<?xml version="1.0" standalone="no"?>
<!DOCTYPE svg PUBLIC "-//W3C//DTD SVG 1.1//EN" "http://www.w3.org/Graphics/SVG/1.1/DTD/svg11.dtd" >
<svg xmlns="http://www.w3.org/2000/svg">
<metadata></metadata>
<defs>
<font id="gotham_roundedlight" horiz-adv-x="1024" >
<font-face units-per-em="2048" ascent="1638" descent="-410" />
<missing-glyph horiz-adv-x="614" />
<glyph horiz-adv-x="2048" />
<glyph horiz-adv-x="2048" />
<glyph unicode="&#xd;" horiz-adv-x="2048" />
<glyph unicode=" "  horiz-adv-x="614" />
<glyph unicode="&#x09;" horiz-adv-x="614" />
<glyph unicode="&#xa0;" horiz-adv-x="614" />
<glyph unicode="!" horiz-adv-x="516" d="M190 59v56q0 29 19.5 48t48.5 19t48.5 -19t19.5 -48v-56q0 -29 -19 -47t-49 -18t-49 18t-19 47zM195 1389q0 22 14.5 36.5t36.5 14.5h24q22 0 37 -14.5t15 -36.5l-33 -990q0 -12 -9.5 -21t-21.5 -9t-21.5 9t-9.5 21z" />
<glyph unicode="&#x22;" horiz-adv-x="839" d="M143 944l62 440q9 54 57 54h39q33 0 33 -35q0 -19 -10 -49l-117 -412q-6 -20 -14 -28.5t-21 -8.5q-34 0 -29 39zM512 944l61 440q9 54 58 54h39q32 0 32 -35q0 -19 -10 -49l-117 -412q-6 -21 -13.5 -29t-20.5 -8q-34 0 -29 39z" />
<glyph unicode="#" horiz-adv-x="1433" d="M92 430q0 20 14.5 34.5t34.5 14.5h224l84 484h-226q-20 0 -34.5 13.5t-14.5 33.5t14.5 34.5t34.5 14.5h242l57 338q3 20 17 32.5t34 12.5q25 0 36.5 -18t8.5 -42l-55 -323h424l57 338q3 20 17.5 32.5t34.5 12.5q25 0 36.5 -18t8.5 -42l-56 -323h205q20 0 34.5 -13.5 t14.5 -33.5t-14.5 -34.5t-34.5 -14.5h-221l-84 -484h223q20 0 34.5 -13.5t14.5 -33.5t-14.5 -34.5t-34.5 -14.5h-239l-60 -346q-3 -20 -17 -31.5t-34 -11.5q-25 0 -36.5 17t-8.5 40l57 332h-424l-59 -346q-3 -20 -17 -31.5t-34 -11.5q-25 0 -36.5 17t-8.5 40l57 332h-207 q-20 0 -34.5 13.5t-14.5 33.5zM463 479h424l84 484h-424z" />
<glyph unicode="$" horiz-adv-x="1294" d="M125 244q0 20 15.5 35.5t35.5 15.5q23 0 37 -14q179 -165 399 -187v584q-230 51 -332 141t-102 244q0 156 121.5 261.5t308.5 109.5v77q0 20 14.5 35t34.5 15t35 -15t15 -35v-81q106 -9 191 -44t173 -100q29 -23 29 -47q0 -22 -15.5 -36.5t-37.5 -14.5q-21 0 -37 14 q-144 115 -308 133v-573q233 -49 338 -140.5t105 -242.5q0 -162 -122.5 -267.5t-315.5 -111.5v-158q0 -20 -15 -34.5t-35 -14.5t-34.5 14.5t-14.5 34.5v160q-255 20 -461 199q-22 19 -22 43zM283 1071q0 -55 14.5 -95.5t51 -77t101 -65t162.5 -51.5v559q-147 -3 -238 -80.5 t-91 -189.5zM702 92q152 3 245 81.5t93 197.5q0 111 -73 177t-265 109v-565z" />
<glyph unicode="%" horiz-adv-x="1687" d="M113 1079v4q0 97 39 180.5t112.5 135t165.5 51.5q91 0 163.5 -51.5t111 -134t38.5 -177.5v-4q0 -149 -89 -257.5t-228 -108.5q-137 0 -225 107.5t-88 254.5zM219 1083q0 -120 61.5 -199t149.5 -79q90 0 148.5 78.5t58.5 195.5v4q0 119 -62 199t-149 80q-89 0 -148 -80.5 t-59 -194.5v-4zM299 35q0 15 8 26l998 1358q16 23 38 23q19 0 32.5 -12.5t13.5 -30.5q0 -15 -9 -27l-997 -1358q-14 -20 -39 -20q-19 0 -32 11.5t-13 29.5zM944 346v4q0 149 89.5 258t228.5 109q91 0 163.5 -51.5t111 -134t38.5 -177.5v-4q0 -149 -89.5 -256.5 t-228.5 -107.5q-137 0 -225 106.5t-88 253.5zM1051 350q0 -120 61.5 -199t149.5 -79q90 0 148 78.5t58 195.5v4q0 119 -62 199t-149 80q-89 0 -147.5 -80t-58.5 -195v-4z" />
<glyph unicode="&#x26;" horiz-adv-x="1425" d="M100 377v4q0 142 96 248t275 172q-86 95 -123 168t-37 159v5q0 139 101.5 232t257.5 93q139 0 234 -90.5t95 -220.5v-4q0 -249 -352 -371l377 -387q95 136 172 315q12 31 47 31q22 0 36.5 -14.5t14.5 -36.5q0 -15 -6 -27q-95 -208 -194 -340l223 -229q24 -24 24 -49 q0 -23 -15 -37t-38 -14t-49 22l-213 221q-209 -245 -485 -245q-190 0 -315.5 111t-125.5 284zM207 381q0 -132 95 -220.5t241 -88.5q222 0 415 225l-423 438q-164 -56 -246 -148.5t-82 -201.5v-4zM418 1133q0 -68 35.5 -131t130.5 -164q309 99 309 301v4q0 95 -65 160 t-162 65q-108 0 -178 -66.5t-70 -164.5v-4z" />
<glyph unicode="'" horiz-adv-x="471" d="M143 944l62 440q9 54 57 54h39q33 0 33 -35q0 -19 -10 -49l-117 -412q-6 -20 -14 -28.5t-21 -8.5q-34 0 -29 39z" />
<glyph unicode="(" horiz-adv-x="880" d="M145 588q0 271 142.5 491t406.5 375q12 6 25 6q17 0 28 -11t11 -28q0 -24 -23 -37q-483 -308 -483 -796q0 -487 483 -795q23 -13 23 -37q0 -17 -11 -28t-28 -11q-11 0 -25 7q-264 155 -406.5 374t-142.5 490z" />
<glyph unicode=")" horiz-adv-x="880" d="M123 -244q0 24 22 37q484 309 484 795q0 487 -484 796q-22 13 -22 37q0 17 11 28t28 11q12 0 24 -6q264 -155 406.5 -375t142.5 -491t-142.5 -490t-406.5 -374q-14 -7 -24 -7q-17 0 -28 11t-11 28z" />
<glyph unicode="*" horiz-adv-x="880" d="M156 995q0 27 28 39l211 101l-211 100q-28 14 -28 39q0 17 12 29t29 14q14 0 32 -12l187 -127l-17 223q-2 19 10 32t31 13t31 -13t10 -32l-16 -223l186 127q18 12 33 12q17 0 29 -13t12 -30q0 -27 -29 -39l-211 -100l211 -101q29 -12 29 -39q0 -17 -12 -30t-29 -13 q-14 0 -33 13l-186 127l16 -224q2 -19 -10 -32t-31 -13t-31 13t-10 32l17 224l-187 -127q-20 -13 -32 -13q-17 0 -29 13t-12 30z" />
<glyph unicode="+" horiz-adv-x="1269" d="M131 721q0 20 14.5 34.5t34.5 14.5h404v397q0 22 14.5 37t36.5 15t36.5 -15t14.5 -37v-397h404q20 0 34.5 -14.5t14.5 -34.5t-14.5 -34.5t-34.5 -14.5h-404v-398q0 -22 -14.5 -36.5t-36.5 -14.5t-36.5 14.5t-14.5 36.5v398h-404q-20 0 -34.5 14.5t-14.5 34.5z" />
<glyph unicode="," horiz-adv-x="471" d="M111 -182q0 16 16 26q56 31 78 67.5t18 88.5q-55 14 -55 72v43q0 29 19.5 48t48.5 19t48 -19t19 -48v-52q0 -155 -55 -210q-26 -26 -59.5 -46t-47.5 -20q-11 0 -20.5 8.5t-9.5 22.5z" />
<glyph unicode="-" horiz-adv-x="835" d="M135 608q0 23 17.5 40.5t40.5 17.5h450q23 0 40 -17.5t17 -40.5t-17 -40t-40 -17h-450q-23 0 -40.5 17t-17.5 40z" />
<glyph unicode="." horiz-adv-x="471" d="M168 59v56q0 29 19.5 48t48.5 19t48 -19t19 -48v-56q0 -29 -19 -47t-48 -18q-30 0 -49 18t-19 47z" />
<glyph unicode="/" d="M-10 -225q0 14 6 26l924 1813q14 28 43 28q19 0 31 -12t12 -31q0 -12 -7 -26l-925 -1813q-14 -28 -43 -28q-19 0 -30 12t-11 31z" />
<glyph unicode="0" horiz-adv-x="1454" d="M133 713v4q0 148 42.5 282.5t118 236t189 162t246.5 60.5t245.5 -59.5t187.5 -161t117 -235t42 -281.5v-4q0 -148 -42.5 -282t-118 -236t-189 -162t-246.5 -60t-245.5 59.5t-187.5 160.5t-117 234.5t-42 281.5zM244 717q0 -125 34.5 -241t96 -206t154 -144t200.5 -54 t200 53.5t152.5 142.5t94.5 204.5t34 240.5v4q0 125 -34.5 241.5t-96 206t-154 143.5t-200.5 54q-87 0 -164 -34.5t-134 -95t-99 -141.5t-63 -175.5t-21 -194.5v-4z" />
<glyph unicode="1" horiz-adv-x="686" d="M61 1296q0 31 39 45l250 93q40 14 66 14h4q24 0 37.5 -15t13.5 -36v-1352q0 -22 -14.5 -36.5t-36.5 -14.5t-37.5 14.5t-15.5 36.5v1292l-234 -80q-15 -6 -27 -6q-19 0 -32 13t-13 32z" />
<glyph unicode="2" horiz-adv-x="1208" d="M90 49q0 23 25 45l518 469q178 161 247.5 268.5t69.5 221.5q0 136 -95 221.5t-228 85.5q-126 0 -220.5 -59.5t-181.5 -180.5q-16 -22 -41 -22q-20 0 -34.5 13.5t-14.5 33.5q0 15 8 26q65 94 129 153t156 94.5t209 35.5q183 0 304.5 -112.5t121.5 -280.5v-4 q0 -74 -19.5 -137t-66.5 -130.5t-109 -132.5t-163 -157l-439 -398h768q22 0 36.5 -14.5t14.5 -36.5t-14.5 -36.5t-36.5 -14.5h-893q-22 0 -36.5 13.5t-14.5 35.5z" />
<glyph unicode="3" horiz-adv-x="1249" d="M113 250q0 22 15.5 37.5t37.5 15.5q27 0 43 -20q177 -211 430 -211q148 0 251 89.5t103 227.5v4q0 147 -123.5 229.5t-322.5 82.5h-51q-21 0 -35.5 13.5t-14.5 33.5q0 17 19 39l471 542h-709q-22 0 -36.5 13.5t-14.5 35.5t14.5 37t36.5 15h815q21 0 34.5 -12.5 t13.5 -32.5t-19 -43l-475 -543q105 -6 194.5 -34t161 -76.5t112 -124.5t40.5 -171v-4q0 -121 -65 -217.5t-171.5 -147.5t-230.5 -51q-161 0 -290 63t-220 173q-14 19 -14 37z" />
<glyph unicode="4" horiz-adv-x="1359" d="M96 406q0 20 17 43l790 976q20 27 51 27q26 0 43 -16.5t17 -42.5v-951h194q19 0 33 -14t14 -33t-14 -32t-33 -13h-194v-307q0 -22 -14.5 -35.5t-36.5 -13.5t-37 14t-15 35v307h-759q-25 0 -40.5 15.5t-15.5 40.5zM227 442h684v848z" />
<glyph unicode="5" horiz-adv-x="1239" d="M123 227q0 19 15 34t36 15q27 0 45 -18q196 -186 404 -186q169 0 277 102t108 258v4q0 152 -110 246t-284 94q-64 0 -123 -12.5t-93 -27.5t-62.5 -27.5t-38.5 -12.5q-29 0 -59 19q-30 21 -27 71l35 590q1 28 16.5 43t38.5 15h711q22 0 36.5 -15t14.5 -37t-14.5 -36.5 t-36.5 -14.5h-668l-35 -536q157 77 318 77q137 0 249 -54t177 -153.5t65 -224.5v-4q0 -198 -141.5 -328.5t-358.5 -130.5q-130 0 -255 56.5t-218 146.5q-22 22 -22 47z" />
<glyph unicode="6" horiz-adv-x="1314" d="M131 678v4q0 216 71 392t205 280t308 104q110 0 201.5 -35t181.5 -106q22 -19 22 -43q0 -22 -15.5 -37.5t-37.5 -15.5q-18 0 -33 12q-157 129 -327 129q-144 0 -252.5 -94.5t-165 -263.5t-51.5 -386q158 267 448 267q130 0 242.5 -54t182 -155t69.5 -225v-5 q0 -133 -66 -240.5t-181 -168t-255 -60.5q-108 0 -203.5 38t-161.5 104q-94 94 -138 220t-44 339zM281 432q0 -154 116 -257t289 -103q170 0 276.5 107t106.5 263v4q0 149 -110 247t-279 98q-86 0 -161.5 -30.5t-127 -80.5t-81 -114t-29.5 -130v-4z" />
<glyph unicode="7" horiz-adv-x="1202" d="M131 1382q0 22 14.5 37t36.5 15h865q22 0 36.5 -13.5t14.5 -34.5q0 -14 -13 -40l-634 -1317q-16 -35 -52 -35q-22 0 -37.5 13t-15.5 34q0 15 8 31l617 1259h-789q-22 0 -36.5 14.5t-14.5 36.5z" />
<glyph unicode="8" horiz-adv-x="1290" d="M113 383v4q0 121 88 214.5t229 139.5q-118 48 -193 131.5t-75 202.5v4q0 108 69 195t179 133.5t235 46.5t235 -46.5t179 -133.5t69 -195v-4q0 -119 -75 -202.5t-193 -131.5q141 -46 229.5 -139.5t88.5 -214.5v-4q0 -176 -152.5 -288.5t-380.5 -112.5q-150 0 -271 50 t-191 142t-70 209zM223 379q0 -127 115.5 -215t306.5 -88t306.5 88t115.5 215v4q0 132 -122.5 219.5t-299.5 87.5t-299.5 -87.5t-122.5 -219.5v-4zM272 1075q0 -129 108.5 -212t264.5 -83t264.5 83t108.5 212v4q0 121 -107.5 200t-265.5 79t-265.5 -79t-107.5 -200v-4z" />
<glyph unicode="9" horiz-adv-x="1314" d="M135 973v4q0 202 142 341.5t362 139.5t365 -145q88 -88 134 -220.5t46 -338.5v-4q0 -222 -76 -399t-209.5 -275.5t-298.5 -98.5q-214 0 -407 156q-23 20 -23 43q0 22 14.5 37.5t36.5 15.5t39 -14q169 -143 342 -143q143 0 254 94.5t170 263.5t51 381q-154 -276 -446 -276 q-215 0 -355.5 126t-140.5 312zM246 977q0 -151 109.5 -249.5t279.5 -98.5q88 0 164.5 31.5t127 83t79 116.5t28.5 133v4q0 154 -115.5 259.5t-291.5 105.5q-114 0 -202.5 -54t-133.5 -140t-45 -187v-4z" />
<glyph unicode=":" horiz-adv-x="491" d="M178 59v56q0 29 19.5 48t48.5 19t48 -19t19 -48v-56q0 -29 -19 -47t-48 -18q-30 0 -49 18t-19 47zM178 930v55q0 29 19.5 48.5t48.5 19.5t48 -19.5t19 -48.5v-55q0 -29 -19 -48.5t-48 -19.5t-48.5 19.5t-19.5 48.5z" />
<glyph unicode=";" horiz-adv-x="491" d="M121 -182q0 16 16 26q56 31 78 67.5t18 88.5q-55 14 -55 72v43q0 29 19.5 48t48.5 19t48 -19t19 -48v-52q0 -155 -55 -210q-27 -27 -59.5 -46.5t-46.5 -19.5q-12 0 -21.5 8.5t-9.5 22.5zM178 930v55q0 29 19.5 48.5t48.5 19.5t48 -19.5t19 -48.5v-55q0 -29 -19 -48.5 t-48 -19.5t-48.5 19.5t-19.5 48.5z" />
<glyph unicode="&#x3c;" horiz-adv-x="1269" d="M123 719v4q0 36 37 55l852 443q16 8 30 8q20 0 32.5 -14t12.5 -35q0 -29 -32 -47l-801 -410l801 -414q32 -18 32 -47q0 -21 -12.5 -35t-32.5 -14q-14 0 -30 8l-852 443q-37 19 -37 55z" />
<glyph unicode="=" horiz-adv-x="1269" d="M162 489q0 22 15.5 38t37.5 16h840q22 0 37.5 -16t15.5 -38t-15.5 -36.5t-37.5 -14.5h-840q-22 0 -37.5 14.5t-15.5 36.5zM162 950q0 22 15.5 38t37.5 16h840q22 0 37.5 -16t15.5 -38t-15.5 -36.5t-37.5 -14.5h-840q-22 0 -37.5 14.5t-15.5 36.5z" />
<glyph unicode="&#x3e;" horiz-adv-x="1269" d="M182 262q0 29 33 47l801 410l-801 414q-33 18 -33 47q0 21 12.5 35t32.5 14q15 0 31 -8l852 -443q37 -19 37 -55v-4q0 -36 -37 -55l-852 -443q-16 -8 -31 -8q-20 0 -32.5 14t-12.5 35z" />
<glyph unicode="?" horiz-adv-x="1093" d="M76 1196q0 20 12 35q187 221 455 221q198 0 321 -115.5t123 -283.5v-4q0 -92 -34 -167.5t-94 -126t-137.5 -82t-168.5 -42.5l-16 -228q-3 -36 -33 -36h-4q-30 0 -33 36l-23 265q-2 21 11.5 35.5t36.5 15.5q177 11 282 95t105 230v5q0 130 -93.5 219.5t-246.5 89.5 q-212 0 -375 -187q-17 -20 -41 -20q-20 0 -33.5 12.5t-13.5 32.5zM434 59v56q0 29 19.5 48t48.5 19t48 -19t19 -48v-56q0 -29 -19 -47t-48 -18q-30 0 -49 18t-19 47z" />
<glyph unicode="@" horiz-adv-x="2007" d="M109 561q0 181 70 346t189.5 286t286 193t351.5 72q184 0 350.5 -66.5t284.5 -177t187.5 -259t69.5 -308.5q0 -126 -33 -224.5t-88 -156t-119 -87t-132 -29.5q-106 0 -179 50.5t-100 139.5q-72 -89 -155 -139.5t-195 -50.5q-152 0 -257 102t-105 262q0 106 42.5 202.5 t110 163t153 105.5t171.5 39q114 0 189 -51.5t116 -130.5l22 121q9 49 52 49q24 0 38 -19.5t9 -44.5l-70 -397q-18 -108 -18 -148q0 -87 48 -133.5t136 -46.5q56 0 107 25t94 74.5t68.5 133.5t25.5 191q0 140 -63 275t-171 239t-263 168t-326 64q-174 0 -328.5 -66 t-263.5 -178t-172.5 -265.5t-63.5 -322.5q0 -170 63 -322t173 -263t268 -175.5t340 -64.5q146 0 262.5 32t235.5 99q8 4 20 4q10 0 18.5 -9t8.5 -20q0 -16 -15 -26q-247 -146 -530 -146q-193 0 -363.5 71t-290.5 191t-189.5 284t-69.5 345zM641 522q0 -128 75 -202t197 -74 q94 0 180 56.5t137.5 148t51.5 190.5q0 122 -76.5 203.5t-193.5 81.5q-144 0 -257.5 -118.5t-113.5 -285.5z" />
<glyph unicode="A" horiz-adv-x="1617" d="M115 37q0 17 8 33l612 1327q23 51 72 51h4q49 0 72 -51l610 -1323q8 -16 8 -33q0 -20 -14.5 -33.5t-36.5 -13.5q-36 0 -53 39l-168 368h-846l-168 -370q-15 -37 -51 -37q-21 0 -35 12t-14 31zM428 498h756l-377 829z" />
<glyph unicode="B" horiz-adv-x="1478" d="M213 53v1327q0 22 15.5 38t37.5 16h539q246 0 373 -127q92 -92 92 -226v-4q0 -70 -21 -128t-58 -98.5t-77 -67.5t-88 -46q68 -18 123.5 -45t102 -67.5t72.5 -99t26 -130.5v-4q0 -179 -140.5 -285t-373.5 -106h-570q-22 0 -37.5 15.5t-15.5 37.5zM319 98h521q185 0 293 79 t108 214v4q0 133 -112.5 206t-323.5 73h-486v-576zM319 772h474q165 0 266.5 78t101.5 217v4q0 120 -94.5 192t-263.5 72h-484v-563z" />
<glyph unicode="C" horiz-adv-x="1511" d="M150 713v4q0 201 91.5 370.5t257 270t367.5 100.5q167 0 289.5 -51t237.5 -150q20 -20 20 -43q0 -22 -16.5 -37.5t-38.5 -15.5t-37 15q-98 90 -206.5 138t-250.5 48q-127 0 -239 -50t-192 -135.5t-126.5 -204t-46.5 -251.5v-4q0 -134 47 -253.5t127.5 -205.5t193 -136 t238.5 -50q141 0 251.5 48.5t215.5 149.5q17 17 37 17t35.5 -15.5t15.5 -35.5q0 -21 -16 -37q-118 -109 -245.5 -165.5t-297.5 -56.5q-151 0 -284 57.5t-226.5 156t-147.5 234.5t-54 288z" />
<glyph unicode="D" horiz-adv-x="1601" d="M213 53v1327q0 22 15.5 38t37.5 16h424q166 0 309 -55t242 -150t155 -226.5t56 -281.5v-4q0 -150 -56 -282t-155 -228t-242 -151.5t-309 -55.5h-424q-22 0 -37.5 15.5t-15.5 37.5zM319 98h371q146 0 269.5 48t206.5 131t129 195.5t46 240.5v4q0 127 -46 240t-129 196.5 t-206.5 132.5t-269.5 49h-371v-1237z" />
<glyph unicode="E" horiz-adv-x="1372" d="M213 53v1327q0 22 15.5 38t37.5 16h926q20 0 34.5 -15t14.5 -35t-14.5 -34.5t-34.5 -14.5h-873v-563h781q20 0 34.5 -14.5t14.5 -34.5t-14.5 -34.5t-34.5 -14.5h-781v-576h883q20 0 34.5 -14.5t14.5 -34.5t-14.5 -34.5t-34.5 -14.5h-936q-22 0 -37.5 15.5t-15.5 37.5z " />
<glyph unicode="F" horiz-adv-x="1343" d="M213 45v1335q0 22 15.5 38t37.5 16h916q20 0 34.5 -15t14.5 -35t-14.5 -34.5t-34.5 -14.5h-863v-587h771q20 0 34.5 -15t14.5 -35t-14.5 -34.5t-34.5 -14.5h-771v-604q0 -22 -15.5 -36.5t-37.5 -14.5t-37.5 14.5t-15.5 36.5z" />
<glyph unicode="G" horiz-adv-x="1605" d="M150 713v4q0 145 51 279t141.5 236.5t225 164t290.5 61.5q154 0 269 -40t221 -120q20 -17 20 -43q0 -22 -15.5 -37.5t-37.5 -15.5q-15 0 -33 15q-92 71 -191.5 108t-238.5 37q-170 0 -306.5 -88t-211 -234.5t-74.5 -318.5v-4q0 -139 42.5 -257.5t120.5 -205t194 -135.5 t257 -49q130 0 252 46t205 117v412h-446q-20 0 -34.5 14.5t-14.5 34.5t14.5 34.5t34.5 14.5h495q22 0 38 -15.5t16 -37.5v-469q0 -32 -37 -61q-238 -183 -527 -183q-166 0 -303 58.5t-227.5 158.5t-140 234t-49.5 285z" />
<glyph unicode="H" horiz-adv-x="1556" d="M213 45v1344q0 22 15.5 37.5t37.5 15.5t37.5 -15.5t15.5 -37.5v-619h918v619q0 22 15.5 37.5t37.5 15.5t37.5 -15.5t15.5 -37.5v-1344q0 -22 -15.5 -36.5t-37.5 -14.5t-37.5 14.5t-15.5 36.5v627h-918v-627q0 -22 -15.5 -36.5t-37.5 -14.5t-37.5 14.5t-15.5 36.5z" />
<glyph unicode="I" horiz-adv-x="561" d="M227 45v1344q0 22 16 37.5t38 15.5t37.5 -15.5t15.5 -37.5v-1344q0 -22 -15.5 -36.5t-37.5 -14.5t-38 15t-16 36z" />
<glyph unicode="J" horiz-adv-x="1124" d="M86 244q0 22 15.5 37.5t37.5 15.5q28 0 43 -25q66 -101 143.5 -148.5t190.5 -47.5q137 0 224 100.5t87 282.5v930q0 22 16 37.5t38 15.5t37.5 -15.5t15.5 -37.5v-922q0 -242 -131 -373q-112 -112 -293 -112q-270 0 -416 233q-8 12 -8 29z" />
<glyph unicode="K" horiz-adv-x="1464" d="M213 45v1344q0 22 15.5 37.5t37.5 15.5t37.5 -15.5t15.5 -37.5v-897l906 933q17 17 37 17t36.5 -16.5t16.5 -36.5t-17 -37l-546 -551l583 -715q17 -20 17 -39q0 -21 -17 -37t-39 -16q-27 0 -41 18l-579 713l-357 -360v-320q0 -22 -15.5 -36.5t-37.5 -14.5t-37.5 14.5 t-15.5 36.5z" />
<glyph unicode="L" horiz-adv-x="1267" d="M213 53v1336q0 22 15.5 37.5t37.5 15.5t37.5 -15.5t15.5 -37.5v-1291h801q20 0 34.5 -14.5t14.5 -34.5t-14.5 -34.5t-34.5 -14.5h-854q-22 0 -37.5 15.5t-15.5 37.5z" />
<glyph unicode="M" horiz-adv-x="1777" d="M213 43v1343q0 22 15.5 38t37.5 16h10q33 0 54 -31l559 -823l559 823q21 31 53 31h10q22 0 38 -16t16 -38v-1341q0 -21 -16 -36t-38 -15t-37.5 14.5t-15.5 36.5v1200l-526 -766q-17 -26 -45 -26t-45 26l-527 766v-1202q0 -22 -14.5 -35.5t-36.5 -13.5t-36.5 13.5 t-14.5 35.5z" />
<glyph unicode="N" horiz-adv-x="1617" d="M213 43v1343q0 22 15.5 38t37.5 16h17q29 0 53 -31l967 -1227v1209q0 22 14.5 36.5t36.5 14.5t36.5 -14.5t14.5 -36.5v-1352q0 -19 -12 -31t-31 -12h-8q-28 0 -54 33l-985 1249v-1235q0 -22 -14.5 -35.5t-36.5 -13.5t-36.5 13.5t-14.5 35.5z" />
<glyph unicode="O" horiz-adv-x="1740" d="M150 713v4q0 146 52.5 280.5t145 236.5t229.5 163t295 61q127 0 241 -39t200 -108t149.5 -161.5t96 -202t32.5 -226.5v-4q0 -146 -52.5 -280.5t-145.5 -236.5t-230 -162.5t-295 -60.5q-127 0 -241 39t-200 108t-149 161t-95.5 201.5t-32.5 226.5zM260 717 q0 -176 78.5 -323.5t219.5 -234.5t314 -87q130 0 244 50.5t193.5 137t125.5 204.5t46 249v4q0 131 -46.5 250t-127 205.5t-195 138t-244.5 51.5q-173 0 -313 -86t-217.5 -232.5t-77.5 -322.5v-4z" />
<glyph unicode="P" horiz-adv-x="1368" d="M213 45v1335q0 22 15.5 38t37.5 16h467q240 0 386.5 -117.5t146.5 -321.5v-4q0 -110 -45 -198t-122.5 -143.5t-177.5 -85t-214 -29.5h-388v-490q0 -22 -15.5 -36.5t-37.5 -14.5t-37.5 14.5t-15.5 36.5zM319 633h394q200 0 323 96.5t123 255.5v4q0 166 -118 256t-316 90 h-406v-702z" />
<glyph unicode="Q" horiz-adv-x="1740" d="M150 713v4q0 146 52.5 280.5t145 236.5t229.5 163t295 61q127 0 241 -39t200 -108t149.5 -161.5t96 -202t32.5 -226.5v-4q0 -142 -49 -273t-139 -233l164 -137q24 -21 24 -47q0 -22 -16 -38t-39 -16q-20 0 -45 21l-162 145q-192 -162 -461 -162q-127 0 -241 39t-200 108 t-149 161t-95.5 201.5t-32.5 226.5zM260 717q0 -176 78.5 -323.5t219.5 -234.5t314 -87q221 0 381 135l-239 205q-25 22 -25 47q0 23 16 39t39 16t46 -20l235 -215q156 180 156 434v4q0 131 -46.5 250t-127 205.5t-195 138t-244.5 51.5q-173 0 -313 -86t-217.5 -232.5 t-77.5 -322.5v-4z" />
<glyph unicode="R" horiz-adv-x="1480" d="M213 45v1335q0 22 15.5 38t37.5 16h549q129 0 233.5 -38t170.5 -104q108 -108 108 -266v-4q0 -174 -115 -279t-305 -131l408 -528q16 -19 16 -37q0 -22 -16.5 -37.5t-38.5 -15.5q-28 0 -47 26l-441 574h-469v-549q0 -22 -15.5 -36.5t-37.5 -14.5t-37.5 14.5t-15.5 36.5z M319 690h484q184 0 301 88t117 240v4q0 146 -109 229.5t-303 83.5h-490v-645z" />
<glyph unicode="S" horiz-adv-x="1310" d="M133 221q0 22 15.5 37.5t37.5 15.5q19 0 35 -12q108 -97 222.5 -141.5t261.5 -44.5q160 0 261 80t101 204v5q0 80 -32.5 133t-122 96t-250.5 76q-258 53 -371 146.5t-113 256.5v4q0 161 131 269t330 108q141 0 248.5 -35.5t208.5 -111.5q22 -18 22 -43q0 -22 -15.5 -38 t-37.5 -16q-19 0 -35 13q-176 135 -395 135q-155 0 -252.5 -78t-97.5 -193v-4q0 -81 32.5 -134.5t125 -99t259.5 -79.5q249 -51 360.5 -144.5t111.5 -250.5v-4q0 -172 -134 -280.5t-342 -108.5q-159 0 -290 48.5t-254 149.5q-21 17 -21 41z" />
<glyph unicode="T" horiz-adv-x="1327" d="M102 1384q0 20 15 35t35 15h1024q20 0 34.5 -15t14.5 -35t-14.5 -34.5t-34.5 -14.5h-459v-1290q0 -22 -15.5 -36.5t-37.5 -14.5t-38 15t-16 36v1290h-458q-20 0 -35 14.5t-15 34.5z" />
<glyph unicode="U" horiz-adv-x="1556" d="M190 596v793q0 22 16 37.5t38 15.5t37.5 -15.5t15.5 -37.5v-783q0 -252 128.5 -392t356.5 -140q223 0 350.5 134t127.5 388v793q0 22 15.5 37.5t37.5 15.5t37.5 -15.5t15.5 -37.5v-781q0 -302 -160 -465t-428 -163q-130 0 -237.5 40.5t-185.5 117t-121.5 193.5t-43.5 265 z" />
<glyph unicode="V" horiz-adv-x="1536" d="M115 1391q0 20 15.5 35.5t37.5 15.5q38 0 55 -43l547 -1284l549 1286q18 41 53 41q21 0 36 -15t15 -34q0 -13 -4 -21l-585 -1339q-19 -45 -64 -45h-4q-45 0 -64 45l-583 1335q-4 8 -4 23z" />
<glyph unicode="W" horiz-adv-x="2256" d="M123 1386q0 22 16.5 39t38.5 17q21 0 36 -14.5t22 -34.5l436 -1235l407 1243q14 41 51 41h5q37 0 51 -41l407 -1243l439 1241q16 43 51 43q20 0 36.5 -16.5t16.5 -36.5q0 -9 -8 -29l-479 -1329q-17 -45 -56 -45h-4q-42 0 -55 45l-406 1204l-405 -1204q-13 -45 -55 -45h-4 q-40 0 -56 45l-479 1329q-6 15 -6 26z" />
<glyph unicode="X" horiz-adv-x="1478" d="M150 41q0 17 14 35l512 655l-488 621q-18 25 -18 41q0 19 15.5 34t35.5 15q25 0 45 -27l475 -612l469 606q26 33 52 33q20 0 33.5 -14.5t13.5 -34.5q0 -16 -15 -35l-489 -625l506 -651q18 -21 18 -41q0 -19 -15.5 -33t-35.5 -14q-27 0 -45 24l-496 644l-489 -637 q-24 -31 -51 -31q-20 0 -33.5 13.5t-13.5 33.5z" />
<glyph unicode="Y" horiz-adv-x="1466" d="M111 1389q0 22 16.5 37.5t38.5 15.5q28 0 49 -31l520 -747l522 747q23 31 48 31q20 0 36.5 -15.5t16.5 -35.5q0 -15 -17 -41l-555 -781v-524q0 -22 -15.5 -36.5t-37.5 -14.5t-37.5 14.5t-15.5 36.5v522l-559 789q-10 17 -10 33z" />
<glyph unicode="Z" horiz-adv-x="1409" d="M145 45v2q0 20 19 45l956 1245h-905q-20 0 -34.5 13.5t-14.5 33.5t14.5 35t34.5 15h999q20 0 36 -14t16 -31v-3q0 -20 -19 -45l-956 -1245h940q20 0 34.5 -13.5t14.5 -33.5t-14.5 -34.5t-34.5 -14.5h-1034q-20 0 -36 14t-16 31z" />
<glyph unicode="[" horiz-adv-x="880" d="M201 -211v1591q0 22 15.5 38t37.5 16h475q15 0 27 -12t12 -27t-12 -27t-27 -12h-434v-1542h434q15 0 27 -12t12 -27t-12 -27t-27 -12h-475q-22 0 -37.5 15.5t-15.5 37.5z" />
<glyph unicode="\" d="M18 1599q0 19 12 31t31 12q29 0 43 -28l926 -1813q6 -12 6 -26q0 -19 -12 -31t-31 -12q-29 0 -43 28l-925 1813q-7 14 -7 26z" />
<glyph unicode="]" horiz-adv-x="880" d="M113 -225q0 15 12 27t27 12h434v1542h-434q-15 0 -27 12t-12 27t12 27t27 12h475q22 0 37.5 -16t15.5 -38v-1591q0 -22 -15.5 -37.5t-37.5 -15.5h-475q-15 0 -27 12t-12 27z" />
<glyph unicode="^" d="M164 1024q0 12 10 27l272 360q29 37 58 37h16q29 0 58 -37l272 -360q10 -15 10 -27q0 -8 -8.5 -15.5t-22.5 -7.5q-53 0 -73 29l-246 322l-246 -322q-20 -29 -71 -29q-13 0 -21 7.5t-8 15.5z" />
<glyph unicode="_" horiz-adv-x="1228" d="M-47 -281q0 19 13 32t32 13h1235q19 0 32 -13t13 -32t-13 -32t-32 -13h-1235q-19 0 -32 13t-13 32z" />
<glyph unicode="`" d="M334 1434q0 15 28.5 31t57.5 16q33 0 57 -37l127 -191q8 -12 8 -22q0 -8 -8 -13.5t-18 -5.5q-37 0 -66 27l-164 158q-22 22 -22 37z" />
<glyph unicode="a" horiz-adv-x="1175" d="M104 303v4q0 160 125.5 250t331.5 90q179 0 346 -45v45q0 156 -90.5 238t-253.5 82q-150 0 -297 -70q-12 -6 -22 -6q-19 0 -33 14t-14 33q0 17 9 29t19 16q176 78 344 78q215 0 330 -115q107 -107 107 -295v-608q0 -23 -14 -36t-36 -13t-35.5 13t-13.5 36v131 q-62 -86 -161.5 -141.5t-237.5 -55.5q-75 0 -146 21t-129 60t-93.5 103t-35.5 142zM211 309q0 -110 88.5 -174.5t214.5 -64.5q163 0 279 90.5t116 230.5v119q-180 47 -354 47q-163 0 -253.5 -66.5t-90.5 -177.5v-4z" />
<glyph unicode="b" horiz-adv-x="1351" d="M190 43v1409q0 23 14 37t36 14t36.5 -14t14.5 -37v-641q169 258 430 258q95 0 185.5 -38t162.5 -105.5t116 -172t44 -227.5v-4q0 -123 -44 -228t-116 -173t-162.5 -106t-185.5 -38q-267 0 -430 248v-182q0 -22 -13.5 -35.5t-35.5 -13.5t-37 14t-15 35zM285 520 q0 -129 61.5 -233.5t158.5 -159.5t206 -55q176 0 292.5 120.5t116.5 325.5v4q0 100 -33 185.5t-89 143t-130.5 90t-156.5 32.5q-81 0 -158 -33t-136.5 -91t-95.5 -143t-36 -182v-4z" />
<glyph unicode="c" horiz-adv-x="1169" d="M119 518v4q0 145 70 270.5t193 201t269 75.5q124 0 217.5 -44.5t175.5 -121.5q15 -15 15 -37t-14.5 -36.5t-36.5 -14.5q-23 0 -35 12q-73 69 -150 108.5t-174 39.5q-178 0 -300 -130.5t-122 -318.5v-4q0 -189 125 -320.5t305 -131.5q179 0 328 149q17 17 33 17 q19 0 34 -15.5t15 -34.5q0 -18 -12 -30q-85 -86 -181.5 -132.5t-222.5 -46.5q-147 0 -270 74t-192.5 198t-69.5 269z" />
<glyph unicode="d" horiz-adv-x="1351" d="M123 518v4q0 123 44 228t116 173.5t162.5 107t185.5 38.5q266 0 430 -250v633q0 23 13.5 37t35.5 14t36.5 -14t14.5 -37v-1409q0 -23 -13.5 -36t-35.5 -13t-36.5 13t-14.5 36v190q-168 -256 -430 -256q-95 0 -185.5 37.5t-162.5 105t-116 171.5t-44 227zM231 522 q0 -100 33.5 -185.5t89.5 -143t130.5 -89.5t156.5 -32q109 0 206 55.5t158.5 160t61.5 232.5v4q0 129 -61.5 233.5t-158.5 160t-206 55.5q-176 0 -293 -121t-117 -326v-4z" />
<glyph unicode="e" horiz-adv-x="1196" d="M119 520v4q0 112 38 212.5t103 173.5t157.5 116t196.5 43q143 0 253.5 -73t168.5 -195.5t58 -272.5q0 -19 -15.5 -33t-34.5 -14h-819q13 -188 131.5 -299.5t278.5 -111.5q192 0 338 143q14 14 33 14q20 0 34.5 -13.5t14.5 -33.5q0 -18 -17 -35q-83 -83 -178.5 -125.5 t-228.5 -42.5q-102 0 -195.5 39.5t-163.5 109t-111.5 172.5t-41.5 222zM225 571h760q-5 81 -31 152.5t-71 129t-115.5 91t-157.5 33.5q-154 0 -262.5 -116t-122.5 -290z" />
<glyph unicode="f" horiz-adv-x="741" d="M92 999q0 19 14 32t33 13h113v103q0 180 92 272q82 82 219 82q64 0 125 -14q17 -3 28 -16.5t11 -30.5q0 -22 -17 -34.5t-40 -8.5q-66 12 -107 12q-107 0 -159 -65t-52 -199v-101h326q20 0 33.5 -13.5t13.5 -33.5q0 -19 -14 -32t-33 -13h-326v-909q0 -22 -13.5 -35.5 t-35.5 -13.5t-36.5 13.5t-14.5 35.5v909h-113q-20 0 -33.5 13.5t-13.5 33.5z" />
<glyph unicode="g" horiz-adv-x="1351" d="M123 569v4q0 109 43 203.5t113.5 157.5t160.5 99t185 36q146 0 255 -65t181 -168v165q0 22 14 37t35 15q22 0 36.5 -15t14.5 -37v-839q0 -219 -133 -352q-68 -68 -166 -104t-213 -36q-249 0 -456 144q-23 16 -23 45q0 18 15.5 32.5t35.5 14.5q13 0 29 -8 q181 -134 401 -134q186 0 298 105t112 299v151q-168 -241 -436 -241q-95 0 -185 35.5t-160.5 97.5t-113.5 155.5t-43 202.5zM231 573q0 -115 56 -207t148.5 -142t199.5 -50q81 0 159 29t138.5 80t97.5 126.5t37 161.5v4q0 116 -63 209t-161 141t-208 48q-170 0 -287 -108.5 t-117 -286.5v-5z" />
<glyph unicode="h" horiz-adv-x="1255" d="M190 43v1409q0 22 14 36.5t36 14.5t36.5 -14.5t14.5 -36.5v-602q125 219 377 219q194 0 305.5 -119t111.5 -311v-596q0 -23 -13.5 -36t-35.5 -13t-36.5 13t-14.5 36v578q0 163 -88 259.5t-244 96.5q-155 0 -258.5 -105.5t-103.5 -267.5v-561q0 -23 -13.5 -36t-35.5 -13 t-37 13t-15 36z" />
<glyph unicode="i" horiz-adv-x="509" d="M193 1368v35q0 26 17.5 43.5t43.5 17.5t44.5 -17.5t18.5 -43.5v-35q0 -26 -18.5 -43.5t-44.5 -17.5t-43.5 17.5t-17.5 43.5zM205 43v958q0 22 14 37t35 15q22 0 36.5 -14.5t14.5 -37.5v-958q0 -23 -13.5 -36t-35.5 -13t-36.5 13t-14.5 36z" />
<glyph unicode="j" horiz-adv-x="509" d="M-8 -285q0 19 12 32t31 13q9 0 24 -1t21 -1q57 0 91 37.5t34 108.5v1097q0 22 14 37t35 15q22 0 36.5 -14.5t14.5 -37.5v-1091q0 -120 -59.5 -181t-163.5 -61q-35 0 -49 2q-41 7 -41 45zM193 1368v35q0 26 17.5 43.5t43.5 17.5t44.5 -17.5t18.5 -43.5v-35 q0 -26 -18.5 -43.5t-44.5 -17.5t-43.5 17.5t-17.5 43.5z" />
<glyph unicode="k" horiz-adv-x="1146" d="M190 43v1409q0 22 14 36.5t36 14.5t36.5 -14.5t14.5 -36.5v-1077l641 663q15 15 35 15t33.5 -13.5t13.5 -33.5q0 -18 -17 -35l-383 -389l410 -506q14 -17 14 -37q0 -21 -13.5 -33t-35.5 -12q-23 0 -43 20l-401 496l-254 -256v-211q0 -23 -13.5 -36t-35.5 -13t-37 13 t-15 36z" />
<glyph unicode="l" horiz-adv-x="509" d="M205 43v1409q0 22 13.5 36.5t35.5 14.5t36.5 -14.5t14.5 -36.5v-1409q0 -23 -13.5 -36t-35.5 -13t-36.5 13t-14.5 36z" />
<glyph unicode="m" horiz-adv-x="1947" d="M190 43v958q0 22 14 37t36 15t36.5 -14.5t14.5 -37.5v-143q29 46 58 80t70.5 65.5t97 48.5t122.5 17q128 0 216.5 -62.5t135.5 -162.5q131 225 377 225q185 0 293 -119t108 -317v-590q0 -23 -13.5 -36t-35.5 -13t-36.5 13t-14.5 36v578q0 168 -82 262t-227 94 q-138 0 -234 -100t-96 -269v-565q0 -23 -13.5 -36t-35.5 -13t-36.5 13t-14.5 36v584q0 162 -82.5 256t-222.5 94t-237 -108.5t-97 -266.5v-559q0 -23 -13.5 -36t-35.5 -13t-37 13t-15 36z" />
<glyph unicode="n" horiz-adv-x="1255" d="M190 43v958q0 22 14 37t36 15t36.5 -14.5t14.5 -37.5v-151q125 219 377 219q194 0 305.5 -119t111.5 -311v-596q0 -23 -13.5 -36t-35.5 -13t-36.5 13t-14.5 36v578q0 163 -88 259.5t-244 96.5q-155 0 -258.5 -105.5t-103.5 -267.5v-561q0 -23 -13.5 -36t-35.5 -13t-37 13 t-15 36z" />
<glyph unicode="o" horiz-adv-x="1310" d="M119 518v4q0 109 41 209t111 174.5t171 119t215 44.5q151 0 274.5 -74.5t192 -198.5t68.5 -270v-4q0 -146 -69 -270.5t-193.5 -199.5t-276.5 -75q-113 0 -213 43.5t-170 117t-110.5 172.5t-40.5 208zM227 522q0 -189 124.5 -320.5t305.5 -131.5q121 0 219.5 60.5 t152.5 163t54 224.5v4q0 190 -124.5 321.5t-305.5 131.5q-183 0 -304.5 -131t-121.5 -318v-4z" />
<glyph unicode="p" horiz-adv-x="1351" d="M190 -283v1284q0 23 14 37.5t36 14.5t36.5 -14.5t14.5 -37.5v-190q169 258 430 258q95 0 185.5 -38t162.5 -105.5t116 -172t44 -227.5v-4q0 -123 -44 -228t-116 -173t-162.5 -106t-185.5 -38q-267 0 -430 248v-508q0 -23 -13.5 -37t-35.5 -14t-37 14t-15 37zM285 520 q0 -129 61.5 -233.5t158.5 -159.5t206 -55q176 0 292.5 120.5t116.5 325.5v4q0 100 -33 185.5t-89 143t-130.5 90t-156.5 32.5q-81 0 -158 -33t-136.5 -91t-95.5 -143t-36 -182v-4z" />
<glyph unicode="q" horiz-adv-x="1351" d="M123 518v4q0 123 44 228t116 173.5t162.5 107t185.5 38.5q266 0 430 -250v182q0 22 14 37t35 15q22 0 36.5 -15t14.5 -37v-1284q0 -23 -13.5 -37t-35.5 -14t-36.5 14t-14.5 37v516q-168 -256 -430 -256q-95 0 -185.5 37.5t-162.5 105t-116 171.5t-44 227zM231 522 q0 -100 33.5 -185.5t89.5 -143t130.5 -89.5t156.5 -32q109 0 206 55.5t158.5 160t61.5 232.5v4q0 129 -61.5 233.5t-158.5 160t-206 55.5q-176 0 -293 -121t-117 -326v-4z" />
<glyph unicode="r" horiz-adv-x="819" d="M190 43v958q0 22 14 37t36 15t36.5 -14.5t14.5 -37.5v-253q65 146 184 229.5t236 83.5q23 0 38 -16t15 -39q0 -22 -14.5 -38.5t-38.5 -17.5q-85 -8 -159 -43.5t-133.5 -98t-93.5 -160.5t-34 -220v-385q0 -22 -13.5 -35.5t-35.5 -13.5t-37 13t-15 36z" />
<glyph unicode="s" horiz-adv-x="1017" d="M104 154q0 20 15 34.5t35 14.5q19 0 32 -10q166 -119 349 -119q108 0 179.5 54.5t71.5 143.5v4q0 36 -16 65.5t-38.5 49.5t-62.5 38.5t-73.5 29.5t-85.5 26q-160 46 -224 81q-134 74 -134 206v4q0 126 96 207.5t248 81.5q173 0 338 -94q26 -17 26 -45q0 -20 -14.5 -34.5 t-34.5 -14.5q-17 0 -29 8q-146 86 -290 86q-106 0 -172 -52t-66 -131v-4q0 -28 10 -52t33 -43t45 -33t62 -28.5t66.5 -23t74.5 -22.5q49 -14 84.5 -25.5t79 -30t72.5 -40t55.5 -50t39.5 -65.5t13 -82v-4q0 -137 -103.5 -220t-257.5 -83q-105 0 -215 36.5t-190 96.5 q-19 14 -19 39z" />
<glyph unicode="t" horiz-adv-x="819" d="M86 999q0 19 14 32t33 13h113v291q0 22 13.5 36.5t35.5 14.5t36.5 -14.5t14.5 -36.5v-291h328q19 0 33 -14t14 -33t-14 -32t-33 -13h-328v-673q0 -203 209 -203q32 0 58 5t41.5 10t19.5 5q18 0 31.5 -13.5t13.5 -31.5q0 -30 -33 -43q-82 -24 -147 -24q-130 0 -211.5 71 t-81.5 213v684h-113q-19 0 -33 14t-14 33z" />
<glyph unicode="u" horiz-adv-x="1255" d="M170 406v595q0 23 13.5 37.5t35.5 14.5t36.5 -14.5t14.5 -37.5v-577q0 -163 88 -259.5t244 -96.5q155 0 259 105t104 267v561q0 23 13.5 37.5t35.5 14.5t36.5 -14.5t14.5 -37.5v-958q0 -22 -13.5 -35.5t-35.5 -13.5t-36.5 13t-14.5 36v152q-124 -218 -377 -218 q-194 0 -306 119t-112 310z" />
<glyph unicode="v" horiz-adv-x="1191" d="M109 1001q0 22 15 37t38 15q35 0 53 -41l381 -899l387 903q15 37 49 37q22 0 36.5 -15t14.5 -37q0 -11 -6 -26l-422 -946q-18 -41 -57 -41h-4q-39 0 -57 41l-420 942q-8 20 -8 30z" />
<glyph unicode="w" horiz-adv-x="1763" d="M119 1004q0 20 15.5 34.5t37.5 14.5q39 0 53 -43l303 -883l303 887q14 39 50 39h4q37 0 51 -39l303 -887l305 887q12 39 49 39q22 0 37 -14t15 -33q0 -12 -9 -35l-342 -940q-15 -43 -55 -43h-4q-40 0 -55 45l-297 854l-299 -854q-15 -45 -56 -45h-4q-40 0 -55 43 l-342 940q-8 20 -8 33z" />
<glyph unicode="x" horiz-adv-x="1167" d="M137 39q0 17 13 33l370 460l-352 439q-14 17 -14 35q0 20 14.5 33.5t34.5 13.5q24 0 41 -21l342 -430l340 426q21 25 43 25q19 0 32 -14t13 -33q0 -17 -13 -33l-354 -438l369 -461q14 -17 14 -35q0 -20 -14 -32.5t-35 -12.5q-26 0 -41 18l-358 453l-357 -449 q-19 -22 -43 -22q-19 0 -32 13t-13 32z" />
<glyph unicode="y" horiz-adv-x="1204" d="M106 1001q0 22 15.5 37t38.5 15q35 0 53 -41l418 -901l364 905q15 37 49 37q22 0 37 -15t15 -37q0 -11 -6 -26l-424 -1010q-67 -160 -150 -228.5t-199 -68.5q-87 0 -178 33q-28 11 -28 43q0 20 13.5 33.5t33.5 13.5q8 0 32 -8q58 -21 134 -21q84 0 141 55.5t110 176.5 l7 12l-467 965q-9 23 -9 30z" />
<glyph unicode="z" horiz-adv-x="1134" d="M125 41v2q0 22 18 43l729 868h-688q-19 0 -32 13t-13 32t13 32t32 13h785q19 0 33 -12.5t14 -27.5v-3q0 -21 -19 -43l-729 -868h717q19 0 32 -13t13 -32t-13 -32t-32 -13h-813q-18 0 -32.5 13t-14.5 28z" />
<glyph unicode="{" horiz-adv-x="983" d="M113 588q0 39 49 39q77 0 129 17.5t79.5 53t38.5 80.5t11 109v162q0 85 16 144.5t59.5 113t126 90.5t209.5 63q18 3 30.5 -6t12.5 -27q0 -24 -24 -32q-90 -24 -148.5 -49t-95.5 -52t-55.5 -67.5t-24.5 -82t-6 -108.5v-153q0 -129 -54 -196t-159 -99q110 -36 161.5 -100.5 t51.5 -194.5v-154q0 -83 9.5 -130.5t44 -92t99.5 -74.5t177 -59q24 -8 24 -33q0 -18 -12.5 -27t-30.5 -6q-86 17 -150.5 39.5t-109.5 51.5t-75 61.5t-46.5 74.5t-23 84.5t-6.5 98.5v162q0 64 -11 109t-38.5 80.5t-79.5 53t-129 17.5q-49 0 -49 39z" />
<glyph unicode="|" horiz-adv-x="585" d="M248 -223v1820q0 19 13 32t32 13t32 -13t13 -32v-1820q0 -19 -13 -32t-32 -13t-32 13t-13 32z" />
<glyph unicode="}" horiz-adv-x="983" d="M109 -250q0 25 24 33q112 29 177 59t99.5 74.5t44 92t9.5 130.5v154q0 129 54 196t159 99q-110 36 -161.5 100.5t-51.5 194.5v153q0 67 -6 108.5t-24.5 82t-55.5 67.5t-95.5 52t-148.5 49q-24 8 -24 32q0 18 12.5 27t30.5 6q127 -26 209.5 -63t126 -90.5t59.5 -113 t16 -144.5v-162q0 -64 11 -109t38.5 -80.5t79.5 -53t129 -17.5q49 0 49 -39t-49 -39q-77 0 -129 -17.5t-79.5 -53t-38.5 -80.5t-11 -109v-162q0 -56 -6.5 -98.5t-23 -84.5t-46.5 -74.5t-75 -61.5t-109.5 -51.5t-150.5 -39.5q-18 -3 -30.5 6t-12.5 27z" />
<glyph unicode="~" horiz-adv-x="942" d="M174 526q0 13 4 25q28 86 66 120t96 34q40 0 134 -42t128 -42q33 0 53 17.5t39 59.5q14 29 37 29q15 0 26 -10t11 -25q0 -12 -4 -24q-28 -86 -66 -120t-96 -34q-40 0 -134 42t-128 42q-33 0 -53 -17.5t-39 -60.5q-14 -28 -37 -28q-15 0 -26 9.5t-11 24.5z" />
<glyph unicode="&#xa1;" horiz-adv-x="516" d="M190 1319v55q0 29 19.5 48.5t48.5 19.5t48.5 -19.5t19.5 -48.5v-55q0 -29 -19.5 -48.5t-48.5 -19.5t-48.5 19.5t-19.5 48.5zM195 45l32 989q0 12 9.5 21.5t21.5 9.5t21.5 -9.5t9.5 -21.5l33 -989q0 -21 -15 -35t-37 -14h-24q-22 0 -36.5 13.5t-14.5 35.5z" />
<glyph unicode="&#xa2;" horiz-adv-x="1189" d="M127 723v4q0 145 70 270.5t193 201t269 75.5h31l27 139q3 16 16.5 28.5t32.5 12.5q25 0 40 -18t9 -45l-27 -131q136 -33 265 -154q18 -18 18 -41q0 -22 -13.5 -36.5t-35.5 -14.5q-23 0 -39 16q-110 107 -219 135l-172 -884q44 -7 74 -7q177 0 327 150q18 18 39 18 q19 0 32 -14t13 -33t-14 -33q-172 -182 -404 -182q-52 0 -79 4l-33 -164q-3 -16 -16.5 -27t-32.5 -11q-26 0 -40.5 17t-8.5 44l34 168q-159 56 -257.5 197t-98.5 315zM236 727q0 -143 75 -257.5t197 -164.5l168 875h-19q-178 0 -299.5 -130.5t-121.5 -318.5v-4z" />
<glyph unicode="&#xa3;" horiz-adv-x="1318" d="M135 27q0 22 25 28l159 37v533h-135q-20 0 -34.5 14.5t-14.5 34.5t14.5 34.5t34.5 14.5h135v242q0 236 134 370q119 119 307 119q140 0 236.5 -50t172.5 -140q15 -19 15 -39q0 -22 -14.5 -35.5t-36.5 -13.5q-23 0 -41 18q-70 80 -146 122t-188 42q-144 0 -232 -88 q-102 -102 -102 -303v-244h569q20 0 34.5 -14.5t14.5 -34.5t-14.5 -34.5t-34.5 -14.5h-569v-529h725q20 0 34.5 -14.5t14.5 -34.5t-14.5 -33.5t-34.5 -13.5h-987q-10 0 -18.5 8t-8.5 19z" />
<glyph unicode="&#xa5;" horiz-adv-x="1404" d="M109 1391q0 22 15.5 36.5t37.5 14.5q26 0 49 -33l494 -739l497 743q19 29 49 29q20 0 33.5 -14.5t13.5 -34.5q0 -18 -14 -39l-496 -713h363q19 0 33 -14t14 -33t-14 -32t-33 -13h-397v-201h397q19 0 33 -13.5t14 -33.5q0 -19 -14 -32t-33 -13h-397v-213q0 -21 -15 -35 t-37 -14t-36.5 13.5t-14.5 35.5v213h-397q-19 0 -33 13t-14 32q0 20 14 33.5t33 13.5h397v201h-397q-19 0 -33 13t-14 32t14 33t33 14h360l-493 713q-12 18 -12 37z" />
<glyph unicode="&#xa7;" horiz-adv-x="1294" d="M133 743v5q0 90 82 152t221 79q-82 36 -129 91.5t-47 123.5v4q0 115 99 185.5t262 70.5q122 0 237.5 -46t200.5 -122q18 -18 18 -41t-16 -38t-39 -15q-20 0 -41 18q-70 65 -166.5 104.5t-204.5 39.5q-116 0 -176.5 -44t-60.5 -114v-4q0 -67 84 -117t291 -100 q227 -55 320 -120t93 -165v-4q0 -90 -82 -152t-221 -79q82 -36 129 -91.5t47 -123.5v-4q0 -115 -98.5 -184.5t-261.5 -69.5q-123 0 -238.5 44.5t-199.5 120.5q-19 19 -19 41q0 23 16 38.5t39 15.5q19 0 41 -19q69 -65 166 -104t205 -39q116 0 177 44t61 114v4q0 67 -84 117 t-291 100q-228 55 -321 119.5t-93 164.5zM240 752q0 -40 26 -71.5t98.5 -65.5t196.5 -64q127 -33 230 -33q116 0 190 48t74 112v4q0 40 -26 71.5t-99 65.5t-197 64q-125 32 -229 32q-116 0 -190 -47.5t-74 -111.5v-4z" />
<glyph unicode="&#xa8;" d="M272 1280v41q0 31 20.5 50.5t51.5 19.5t51.5 -19.5t20.5 -50.5v-41q0 -31 -20.5 -50.5t-51.5 -19.5t-51.5 19.5t-20.5 50.5zM608 1280v41q0 31 20.5 50.5t51.5 19.5t51.5 -19.5t20.5 -50.5v-41q0 -31 -20.5 -50.5t-51.5 -19.5t-51.5 19.5t-20.5 50.5z" />
<glyph unicode="&#xa9;" horiz-adv-x="1699" d="M109 713v4q0 149 58 285.5t157 236.5t237 159.5t291 59.5t290.5 -59t235.5 -158t155.5 -235t57.5 -285v-4q0 -149 -58 -285.5t-157 -236t-237 -159t-291 -59.5t-290.5 58.5t-235.5 158t-155.5 235t-57.5 284.5zM170 713q0 -186 88 -341.5t244 -247t346 -91.5 q191 0 348 92.5t245.5 249t88.5 342.5v4q0 186 -88 341.5t-244 247t-346 91.5q-191 0 -348 -92.5t-245.5 -249t-88.5 -342.5v-4zM485 725v4q0 158 109 272.5t266 114.5q146 0 264 -102q19 -15 19 -37q0 -19 -13 -31t-32 -12q-16 0 -33 14q-101 86 -207 86 q-120 0 -201.5 -88.5t-81.5 -214.5v-4q0 -125 83.5 -215t201.5 -90t217 90q15 10 29 10q17 0 29 -12t12 -29q0 -20 -14 -30q-64 -55 -126.5 -83t-148.5 -28q-157 0 -265 113t-108 272z" />
<glyph unicode="&#xaa;" horiz-adv-x="798" d="M119 641q0 17 12 29t29 12h450q17 0 29 -12t12 -29t-12 -29t-29 -12h-450q-17 0 -29 12t-12 29zM133 1026v4q0 89 70 140t184 51q80 0 170 -23v10q0 77 -45.5 117.5t-124.5 40.5q-70 0 -154 -37q-12 -6 -22 -6q-15 0 -26 11t-11 26q0 24 25 35q98 45 192 45 q118 0 184 -66q58 -58 58 -164v-327q0 -15 -12 -26t-27 -11t-26 11t-11 26v55q-73 -96 -201 -96q-89 0 -156 48.5t-67 135.5zM215 1030q0 -53 42 -84t103 -31q80 0 138.5 44.5t58.5 113.5v55q-77 23 -174 23q-77 0 -122.5 -32.5t-45.5 -84.5v-4z" />
<glyph unicode="&#xab;" horiz-adv-x="1054" d="M113 522q0 19 20 45l281 367q16 22 39 22q19 0 32 -12t13 -31q0 -18 -13 -34l-258 -355l258 -358q13 -16 13 -35t-13 -31t-32 -12q-23 0 -39 23l-281 366q-20 26 -20 45zM530 522q0 18 21 45l280 367q16 22 39 22q19 0 32 -12t13 -31t-12 -34l-258 -355l258 -358 q12 -18 12 -35q-2 -19 -14 -31t-31 -12q-23 0 -39 23l-280 366q-21 27 -21 45z" />
<glyph unicode="&#xad;" horiz-adv-x="835" d="M135 608q0 23 17.5 40.5t40.5 17.5h450q23 0 40 -17.5t17 -40.5t-17 -40t-40 -17h-450q-23 0 -40.5 17t-17.5 40z" />
<glyph unicode="&#xae;" horiz-adv-x="851" d="M70 1094v2q0 147 104 252.5t252 105.5q150 0 253 -104.5t103 -251.5v-2q0 -147 -104 -253t-252 -106q-150 0 -253 105t-103 252zM111 1094q0 -132 90.5 -225t224.5 -93q132 0 223.5 94t91.5 226v2q0 132 -90.5 224.5t-224.5 92.5q-132 0 -223.5 -93.5t-91.5 -225.5v-2z M293 946v307q0 12 8.5 20.5t20.5 8.5h131q58 0 95.5 -29.5t37.5 -81.5q0 -40 -23.5 -69t-62.5 -41l78 -92q10 -13 10 -25q0 -11 -7.5 -18.5t-19.5 -7.5q-16 0 -29 16l-100 121h-82v-109q0 -12 -8 -20t-20 -8t-20.5 8t-8.5 20zM350 1102h96q38 0 59 17.5t21 47.5q0 64 -80 64 h-96v-129z" />
<glyph unicode="&#xaf;" d="M193 1321q0 20 14.5 34.5t34.5 14.5h540q20 0 34.5 -14.5t14.5 -34.5t-14.5 -34.5t-34.5 -14.5h-540q-20 0 -34.5 14.5t-14.5 34.5z" />
<glyph unicode="&#xb0;" horiz-adv-x="921" d="M152 1143v4q0 119 93.5 209t215.5 90t215.5 -90t93.5 -209v-4q0 -119 -93.5 -209t-215.5 -90t-215.5 90t-93.5 209zM254 1143q0 -84 60 -146.5t147 -62.5t147 62.5t60 146.5v4q0 84 -60 146.5t-147 62.5t-147 -62.5t-60 -146.5v-4z" />
<glyph unicode="&#xb1;" horiz-adv-x="1269" d="M152 49q0 20 14.5 34.5t34.5 14.5h868q20 0 34.5 -14.5t14.5 -34.5t-14.5 -34.5t-34.5 -14.5h-868q-20 0 -34.5 14.5t-14.5 34.5zM152 782q0 20 14.5 34.5t34.5 14.5h383v373q0 22 14.5 36.5t36.5 14.5t36.5 -14.5t14.5 -36.5v-373h383q20 0 34.5 -14.5t14.5 -34.5 t-14.5 -34.5t-34.5 -14.5h-383v-373q0 -22 -14.5 -36.5t-36.5 -14.5t-36.5 14.5t-14.5 36.5v373h-383q-20 0 -34.5 14.5t-14.5 34.5z" />
<glyph unicode="&#xb4;" d="M412 1231q0 10 8 22l127 191q24 37 57 37q29 0 57.5 -16t28.5 -31t-22 -37l-164 -158q-29 -27 -66 -27q-10 0 -18 5.5t-8 13.5z" />
<glyph unicode="&#xb6;" horiz-adv-x="983" d="M109 999v5q0 198 147 314t383 116h96q23 0 39.5 -16.5t16.5 -39.5v-1333q0 -23 -15 -37t-39 -14t-39.5 14t-15.5 37v522h-12q-159 0 -285 49.5t-201 149t-75 233.5z" />
<glyph unicode="&#xb7;" horiz-adv-x="471" d="M168 582v55q0 29 19.5 48.5t48.5 19.5t48 -19.5t19 -48.5v-55q0 -29 -19 -48.5t-48 -19.5t-48.5 19.5t-19.5 48.5z" />
<glyph unicode="&#xb8;" d="M348 -240q0 17 10 31l158 229h88l-133 -268q-10 -22 -21 -31.5t-32 -9.5q-25 0 -47.5 16t-22.5 33z" />
<glyph unicode="&#xba;" horiz-adv-x="798" d="M96 641q0 17 12 29t29 12h525q17 0 28.5 -12t11.5 -29t-11.5 -29t-28.5 -12h-525q-17 0 -29 12t-12 29zM104 1139v4q0 124 85 212.5t212 88.5q125 0 209 -87.5t84 -209.5v-4q0 -124 -85 -212.5t-212 -88.5q-125 0 -209 87.5t-84 209.5zM193 1143q0 -93 59.5 -157 t148.5 -64t147 63t58 154v4q0 93 -60 157t-149 64t-146.5 -63t-57.5 -154v-4z" />
<glyph unicode="&#xbb;" horiz-adv-x="1054" d="M139 131q0 19 13 35l258 354l-258 359q-15 22 -13 34q2 19 14 31t31 12q23 0 39 -22l281 -367q20 -26 20 -45t-20 -45l-281 -366q-16 -23 -39 -23q-19 0 -32 12t-13 31zM557 131q0 20 12 35l258 354l-258 359q-12 15 -12 34t13 31t32 12q23 0 39 -22l281 -367 q20 -26 20 -45t-20 -45l-281 -366q-16 -23 -39 -23q-19 0 -32 12t-13 31z" />
<glyph unicode="&#xbf;" horiz-adv-x="1093" d="M106 381v4q0 92 34 167.5t94.5 126t138 82t168.5 42.5l16 227q1 18 10.5 27.5t22.5 9.5h4q13 0 22.5 -9.5t10.5 -27.5l22 -264q2 -21 -11 -35.5t-36 -15.5q-177 -11 -282 -95.5t-105 -230.5v-4q0 -130 93.5 -219.5t246.5 -89.5q213 0 375 186q18 21 41 21 q20 0 33.5 -12.5t13.5 -32.5t-12 -35q-185 -219 -455 -219q-198 0 -321.5 114.5t-123.5 282.5zM524 1319v55q0 29 19.5 48.5t48.5 19.5t48 -19.5t19 -48.5v-55q0 -29 -19 -48.5t-48 -19.5t-48.5 19.5t-19.5 48.5z" />
<glyph unicode="&#xc0;" horiz-adv-x="1617" d="M115 37q0 17 8 33l612 1327q23 51 72 51h4q49 0 72 -51l610 -1323q8 -16 8 -33q0 -20 -14.5 -33.5t-36.5 -13.5q-36 0 -53 39l-168 368h-846l-168 -370q-15 -37 -51 -37q-21 0 -35 12t-14 31zM428 498h756l-377 829zM557 1802q0 15 28.5 31t57.5 16q33 0 57 -37l127 -190 q9 -14 9 -23q0 -7 -8 -12.5t-19 -5.5q-37 0 -66 27l-163 157q-23 23 -23 37z" />
<glyph unicode="&#xc1;" horiz-adv-x="1617" d="M115 37q0 17 8 33l612 1327q23 51 72 51h4q49 0 72 -51l610 -1323q8 -16 8 -33q0 -20 -14.5 -33.5t-36.5 -13.5q-36 0 -53 39l-168 368h-846l-168 -370q-15 -37 -51 -37q-21 0 -35 12t-14 31zM428 498h756l-377 829zM778 1599q0 11 8 23l127 190q24 37 58 37 q29 0 57.5 -16t28.5 -31q0 -14 -23 -37l-164 -157q-29 -27 -65 -27q-11 0 -19 5.5t-8 12.5z" />
<glyph unicode="&#xc2;" horiz-adv-x="1617" d="M115 37q0 17 8 33l612 1327q23 51 72 51h4q49 0 72 -51l610 -1323q8 -16 8 -33q0 -20 -14.5 -33.5t-36.5 -13.5q-36 0 -53 39l-168 368h-846l-168 -370q-15 -37 -51 -37q-21 0 -35 12t-14 31zM428 498h756l-377 829zM584 1602q0 12 10 24l147 180q29 37 58 37h16 q28 0 57 -37l148 -180q10 -12 10 -24q0 -8 -8 -14.5t-21 -6.5q-38 0 -67 27l-129 118l-129 -118q-29 -27 -66 -27q-11 0 -18.5 6.5t-7.5 14.5z" />
<glyph unicode="&#xc3;" horiz-adv-x="1617" d="M115 37q0 17 8 33l612 1327q23 51 72 51h4q49 0 72 -51l610 -1323q8 -16 8 -33q0 -20 -14.5 -33.5t-36.5 -13.5q-36 0 -53 39l-168 368h-846l-168 -370q-15 -37 -51 -37q-21 0 -35 12t-14 31zM428 498h756l-377 829zM516 1599q0 13 4 25q28 86 66 120t96 34q40 0 134 -42 t128 -42q33 0 53 17.5t39 60.5q14 28 37 28q15 0 26 -10t11 -25q0 -12 -4 -24q-28 -86 -66 -120t-96 -34q-40 0 -134 42t-128 42q-33 0 -53 -17.5t-39 -60.5q-14 -28 -37 -28q-15 0 -26 9.5t-11 24.5z" />
<glyph unicode="&#xc4;" horiz-adv-x="1617" d="M115 37q0 17 8 33l612 1327q23 51 72 51h4q49 0 72 -51l610 -1323q8 -16 8 -33q0 -20 -14.5 -33.5t-36.5 -13.5q-36 0 -53 39l-168 368h-846l-168 -370q-15 -37 -51 -37q-21 0 -35 12t-14 31zM428 498h756l-377 829zM567 1649v41q0 30 20.5 49.5t51.5 19.5t51.5 -19.5 t20.5 -49.5v-41q0 -31 -20.5 -50.5t-51.5 -19.5t-51.5 19.5t-20.5 50.5zM903 1649v41q0 30 20.5 49.5t51.5 19.5t51.5 -19.5t20.5 -49.5v-41q0 -31 -20.5 -50.5t-51.5 -19.5t-51.5 19.5t-20.5 50.5z" />
<glyph unicode="&#xc5;" horiz-adv-x="1617" d="M115 41q0 8 4 20l612 1328q-54 22 -88.5 69.5t-34.5 104.5v4q0 77 60.5 133.5t140.5 56.5t140.5 -56.5t60.5 -133.5v-4q0 -58 -34 -105t-89 -69l610 -1323q4 -8 4 -23q0 -19 -15 -34t-38 -15q-34 0 -51 39l-168 368h-846l-168 -370q-15 -37 -49 -37q-21 0 -36 14t-15 33z M428 498h756l-377 829zM682 1563q0 -51 38 -88t89 -37t89 37t38 88v4q0 51 -37.5 88t-89.5 37t-89.5 -37t-37.5 -88v-4z" />
<glyph unicode="&#xc6;" horiz-adv-x="2140" d="M72 39q0 12 10 29l807 1333q20 33 53 33h1018q20 0 34.5 -15t14.5 -35t-14.5 -34.5t-34.5 -14.5h-842v-563h750q20 0 34.5 -14.5t14.5 -34.5t-14.5 -34.5t-34.5 -14.5h-750v-576h852q20 0 34.5 -14.5t14.5 -34.5t-14.5 -34.5t-34.5 -14.5h-905q-22 0 -37.5 15.5 t-15.5 37.5v348h-615l-231 -385q-15 -24 -45 -24q-20 0 -34.5 13.5t-14.5 33.5zM455 498h557v839h-54z" />
<glyph unicode="&#xc7;" horiz-adv-x="1511" d="M150 713v4q0 201 91.5 370.5t257 270t367.5 100.5q167 0 289.5 -51t237.5 -150q20 -20 20 -43q0 -22 -16.5 -37.5t-38.5 -15.5t-37 15q-98 90 -206.5 138t-250.5 48q-127 0 -239 -50t-192 -135.5t-126.5 -204t-46.5 -251.5v-4q0 -134 47 -253.5t127.5 -205.5t193 -136 t238.5 -50q141 0 251.5 48.5t215.5 149.5q17 17 37 17t35.5 -15.5t15.5 -35.5q0 -21 -16 -37q-114 -106 -236 -162t-280 -60l-111 -225q-10 -22 -21 -31.5t-32 -9.5q-25 0 -47.5 16t-22.5 33q0 16 11 31l129 191q-185 15 -332.5 115t-230 262t-82.5 354z" />
<glyph unicode="&#xc8;" horiz-adv-x="1372" d="M213 53v1327q0 22 15.5 38t37.5 16h926q20 0 34.5 -15t14.5 -35t-14.5 -34.5t-34.5 -14.5h-873v-563h781q20 0 34.5 -14.5t14.5 -34.5t-14.5 -34.5t-34.5 -14.5h-781v-576h883q20 0 34.5 -14.5t14.5 -34.5t-14.5 -34.5t-34.5 -14.5h-936q-22 0 -37.5 15.5t-15.5 37.5z M477 1782q0 15 28.5 31t57.5 16q34 0 58 -37l127 -190q8 -12 8 -23q0 -7 -8 -12.5t-19 -5.5q-21 0 -34 5t-31 21l-164 158q-23 23 -23 37z" />
<glyph unicode="&#xc9;" horiz-adv-x="1372" d="M213 53v1327q0 22 15.5 38t37.5 16h926q20 0 34.5 -15t14.5 -35t-14.5 -34.5t-34.5 -14.5h-873v-563h781q20 0 34.5 -14.5t14.5 -34.5t-14.5 -34.5t-34.5 -14.5h-781v-576h883q20 0 34.5 -14.5t14.5 -34.5t-14.5 -34.5t-34.5 -14.5h-936q-22 0 -37.5 15.5t-15.5 37.5z M698 1579q0 9 9 23l127 190q24 37 57 37q29 0 57.5 -16t28.5 -31q0 -14 -23 -37l-163 -158q-28 -26 -66 -26q-11 0 -19 5.5t-8 12.5z" />
<glyph unicode="&#xca;" horiz-adv-x="1372" d="M213 53v1327q0 22 15.5 38t37.5 16h926q20 0 34.5 -15t14.5 -35t-14.5 -34.5t-34.5 -14.5h-873v-563h781q20 0 34.5 -14.5t14.5 -34.5t-14.5 -34.5t-34.5 -14.5h-781v-576h883q20 0 34.5 -14.5t14.5 -34.5t-14.5 -34.5t-34.5 -14.5h-936q-22 0 -37.5 15.5t-15.5 37.5z M504 1581q0 13 10 25l148 180q29 37 57 37h16q29 0 58 -37l147 -180q10 -12 10 -25q0 -8 -7.5 -14t-20.5 -6q-40 0 -68 26l-129 119l-129 -119q-28 -26 -66 -26q-12 0 -19 6t-7 14z" />
<glyph unicode="&#xcb;" horiz-adv-x="1372" d="M213 53v1327q0 22 15.5 38t37.5 16h926q20 0 34.5 -15t14.5 -35t-14.5 -34.5t-34.5 -14.5h-873v-563h781q20 0 34.5 -14.5t14.5 -34.5t-14.5 -34.5t-34.5 -14.5h-781v-576h883q20 0 34.5 -14.5t14.5 -34.5t-14.5 -34.5t-34.5 -14.5h-936q-22 0 -37.5 15.5t-15.5 37.5z M487 1628v41q0 31 20.5 50.5t51.5 19.5t51.5 -19.5t20.5 -50.5v-41q0 -30 -20.5 -49.5t-51.5 -19.5t-51.5 19.5t-20.5 49.5zM823 1628v41q0 31 20.5 50.5t51.5 19.5t51.5 -19.5t20.5 -50.5v-41q0 -30 -20.5 -49.5t-51.5 -19.5t-51.5 19.5t-20.5 49.5z" />
<glyph unicode="&#xcc;" horiz-adv-x="561" d="M31 1782q0 15 28.5 31t57.5 16q33 0 57 -37l127 -190q8 -12 8 -23q0 -7 -7.5 -12.5t-18.5 -5.5q-38 0 -66 26l-164 158q-22 22 -22 37zM227 45v1344q0 22 16 37.5t38 15.5t37.5 -15.5t15.5 -37.5v-1344q0 -22 -15.5 -36.5t-37.5 -14.5t-38 15t-16 36z" />
<glyph unicode="&#xcd;" horiz-adv-x="561" d="M227 45v1344q0 22 16 37.5t38 15.5t37.5 -15.5t15.5 -37.5v-1344q0 -22 -15.5 -36.5t-37.5 -14.5t-38 15t-16 36zM252 1579q0 11 8 23l127 190q24 37 57 37q29 0 57.5 -16t28.5 -31t-22 -37l-164 -158q-18 -16 -31 -21t-34 -5q-11 0 -19 5.5t-8 12.5z" />
<glyph unicode="&#xce;" horiz-adv-x="561" d="M57 1581q0 11 11 25l147 180q29 37 57 37h17q28 0 57 -37l148 -180q10 -12 10 -25q0 -8 -8 -14t-21 -6q-39 0 -67 26l-129 119l-129 -119q-28 -26 -66 -26q-12 0 -19.5 6t-7.5 14zM227 45v1344q0 22 16 37.5t38 15.5t37.5 -15.5t15.5 -37.5v-1344q0 -22 -15.5 -36.5 t-37.5 -14.5t-38 15t-16 36z" />
<glyph unicode="&#xcf;" horiz-adv-x="561" d="M41 1628v41q0 31 20.5 50.5t51.5 19.5t51 -19.5t20 -50.5v-41q0 -31 -20 -50t-51 -19t-51.5 19.5t-20.5 49.5zM227 45v1344q0 22 16 37.5t38 15.5t37.5 -15.5t15.5 -37.5v-1344q0 -22 -15.5 -36.5t-37.5 -14.5t-38 15t-16 36zM377 1628v41q0 31 20.5 50.5t51.5 19.5 t51 -19.5t20 -50.5v-41q0 -31 -20 -50t-51 -19t-51.5 19.5t-20.5 49.5z" />
<glyph unicode="&#xd0;" horiz-adv-x="1662" d="M113 721q0 20 14.5 34.5t34.5 14.5h112v610q0 22 16 38t38 16h424q166 0 308.5 -55t241.5 -150t155 -226.5t56 -281.5v-4q0 -150 -56 -282t-155 -228t-241.5 -151.5t-308.5 -55.5h-424q-22 0 -38 15.5t-16 37.5v619h-112q-20 0 -34.5 14.5t-14.5 34.5zM381 98h371 q146 0 269.5 48t206.5 131t129 195.5t46 240.5v4q0 127 -46 240t-129 196.5t-206.5 132.5t-269.5 49h-371v-565h434q20 0 34.5 -14.5t14.5 -34.5t-14.5 -34.5t-34.5 -14.5h-434v-574z" />
<glyph unicode="&#xd1;" horiz-adv-x="1617" d="M213 43v1343q0 22 15.5 38t37.5 16h17q29 0 53 -31l967 -1227v1209q0 22 14.5 36.5t36.5 14.5t36.5 -14.5t14.5 -36.5v-1352q0 -19 -12 -31t-31 -12h-8q-28 0 -54 33l-985 1249v-1235q0 -22 -14.5 -35.5t-36.5 -13.5t-36.5 13.5t-14.5 35.5zM518 1579q0 13 4 25 q28 86 66 119.5t96 33.5q40 0 134 -42t128 -42q33 0 53 17.5t39 60.5q14 29 37 29q15 0 26 -10t11 -25q0 -13 -4 -25q-28 -86 -66 -119.5t-96 -33.5q-40 0 -134 42t-128 42q-33 0 -53 -17.5t-39 -60.5q-14 -29 -37 -29q-15 0 -26 10t-11 25z" />
<glyph unicode="&#xd2;" horiz-adv-x="1740" d="M150 713v4q0 146 52.5 280.5t145 236.5t229.5 163t295 61q127 0 241 -39t200 -108t149.5 -161.5t96 -202t32.5 -226.5v-4q0 -146 -52.5 -280.5t-145.5 -236.5t-230 -162.5t-295 -60.5q-127 0 -241 39t-200 108t-149 161t-95.5 201.5t-32.5 226.5zM260 717 q0 -176 78.5 -323.5t219.5 -234.5t314 -87q130 0 244 50.5t193.5 137t125.5 204.5t46 249v4q0 131 -46.5 250t-127 205.5t-195 138t-244.5 51.5q-173 0 -313 -86t-217.5 -232.5t-77.5 -322.5v-4zM621 1802q0 15 28.5 31t57.5 16q33 0 57 -37l127 -190q8 -12 8 -23 q0 -7 -8 -12.5t-19 -5.5q-36 0 -65 27l-164 157q-22 22 -22 37z" />
<glyph unicode="&#xd3;" horiz-adv-x="1740" d="M150 713v4q0 146 52.5 280.5t145 236.5t229.5 163t295 61q127 0 241 -39t200 -108t149.5 -161.5t96 -202t32.5 -226.5v-4q0 -146 -52.5 -280.5t-145.5 -236.5t-230 -162.5t-295 -60.5q-127 0 -241 39t-200 108t-149 161t-95.5 201.5t-32.5 226.5zM260 717 q0 -176 78.5 -323.5t219.5 -234.5t314 -87q130 0 244 50.5t193.5 137t125.5 204.5t46 249v4q0 131 -46.5 250t-127 205.5t-195 138t-244.5 51.5q-173 0 -313 -86t-217.5 -232.5t-77.5 -322.5v-4zM842 1599q0 11 8 23l127 190q24 37 57 37q29 0 57.5 -16t28.5 -31t-22 -37 l-164 -157q-29 -27 -66 -27q-11 0 -18.5 5.5t-7.5 12.5z" />
<glyph unicode="&#xd4;" horiz-adv-x="1740" d="M150 713v4q0 146 52.5 280.5t145 236.5t229.5 163t295 61q127 0 241 -39t200 -108t149.5 -161.5t96 -202t32.5 -226.5v-4q0 -146 -52.5 -280.5t-145.5 -236.5t-230 -162.5t-295 -60.5q-127 0 -241 39t-200 108t-149 161t-95.5 201.5t-32.5 226.5zM260 717 q0 -176 78.5 -323.5t219.5 -234.5t314 -87q130 0 244 50.5t193.5 137t125.5 204.5t46 249v4q0 131 -46.5 250t-127 205.5t-195 138t-244.5 51.5q-173 0 -313 -86t-217.5 -232.5t-77.5 -322.5v-4zM647 1602q0 12 10 24l148 180q29 37 57 37h17q28 0 57 -37l147 -180 q11 -14 11 -24q0 -8 -8 -14.5t-21 -6.5q-39 0 -68 27l-129 118l-129 -118q-29 -27 -65 -27q-11 0 -19 6.5t-8 14.5z" />
<glyph unicode="&#xd5;" horiz-adv-x="1740" d="M150 713v4q0 146 52.5 280.5t145 236.5t229.5 163t295 61q127 0 241 -39t200 -108t149.5 -161.5t96 -202t32.5 -226.5v-4q0 -146 -52.5 -280.5t-145.5 -236.5t-230 -162.5t-295 -60.5q-127 0 -241 39t-200 108t-149 161t-95.5 201.5t-32.5 226.5zM260 717 q0 -176 78.5 -323.5t219.5 -234.5t314 -87q130 0 244 50.5t193.5 137t125.5 204.5t46 249v4q0 131 -46.5 250t-127 205.5t-195 138t-244.5 51.5q-173 0 -313 -86t-217.5 -232.5t-77.5 -322.5v-4zM580 1599q0 13 4 25q28 86 65.5 120t95.5 34q40 0 134.5 -42t128.5 -42 q33 0 53 17.5t39 60.5q14 28 37 28q15 0 26 -10t11 -25q0 -9 -5 -24q-28 -86 -65.5 -120t-95.5 -34q-40 0 -134.5 42t-128.5 42q-33 0 -53 -17.5t-39 -60.5q-14 -28 -37 -28q-15 0 -25.5 9.5t-10.5 24.5z" />
<glyph unicode="&#xd6;" horiz-adv-x="1740" d="M150 713v4q0 146 52.5 280.5t145 236.5t229.5 163t295 61q127 0 241 -39t200 -108t149.5 -161.5t96 -202t32.5 -226.5v-4q0 -146 -52.5 -280.5t-145.5 -236.5t-230 -162.5t-295 -60.5q-127 0 -241 39t-200 108t-149 161t-95.5 201.5t-32.5 226.5zM260 717 q0 -176 78.5 -323.5t219.5 -234.5t314 -87q130 0 244 50.5t193.5 137t125.5 204.5t46 249v4q0 131 -46.5 250t-127 205.5t-195 138t-244.5 51.5q-173 0 -313 -86t-217.5 -232.5t-77.5 -322.5v-4zM631 1649v41q0 31 20 50t51 19t51.5 -19.5t20.5 -49.5v-41q0 -31 -20.5 -50.5 t-51.5 -19.5t-51 19.5t-20 50.5zM967 1649v41q0 31 20 50t51 19t51.5 -19.5t20.5 -49.5v-41q0 -31 -20.5 -50.5t-51.5 -19.5t-51 19.5t-20 50.5z" />
<glyph unicode="&#xd7;" horiz-adv-x="1269" d="M205 340q0 21 16 37l346 342l-344 340q-18 18 -18 41q0 22 14.5 36.5t36.5 14.5q23 0 41 -18l340 -345l342 347q16 16 37 16q20 0 34.5 -14.5t14.5 -34.5q0 -21 -16 -37l-347 -342l345 -340q18 -18 18 -41q0 -22 -14.5 -36.5t-36.5 -14.5q-23 0 -41 18l-340 344 l-342 -346q-16 -16 -37 -16q-20 0 -34.5 14.5t-14.5 34.5z" />
<glyph unicode="&#xd8;" horiz-adv-x="1740" d="M150 713v4q0 146 52.5 280.5t145 236.5t229.5 163t295 61q269 0 467 -170l138 148q16 16 36 16q19 0 31 -12t12 -31q0 -21 -12 -33l-141 -151q91 -100 139.5 -230.5t48.5 -273.5v-4q0 -146 -52.5 -280.5t-145.5 -236.5t-230 -162.5t-295 -60.5q-274 0 -467 166l-137 -143 q-16 -16 -37 -16q-19 0 -31 11t-12 30t13 32l139 150q-89 101 -137.5 232.5t-48.5 273.5zM260 717q0 -248 152 -430l858 921q-170 154 -402 154q-173 0 -313 -86t-217.5 -232.5t-77.5 -322.5v-4zM469 225q169 -153 403 -153q130 0 244 50.5t193.5 137t125.5 204.5t46 249v4 q0 242 -152 428z" />
<glyph unicode="&#xd9;" horiz-adv-x="1556" d="M190 596v793q0 22 16 37.5t38 15.5t37.5 -15.5t15.5 -37.5v-783q0 -252 128.5 -392t356.5 -140q223 0 350.5 134t127.5 388v793q0 22 15.5 37.5t37.5 15.5t37.5 -15.5t15.5 -37.5v-781q0 -302 -160 -465t-428 -163q-130 0 -237.5 40.5t-185.5 117t-121.5 193.5t-43.5 265 zM528 1782q0 15 28.5 31t57.5 16q34 0 58 -37l127 -190q8 -12 8 -23q0 -7 -8 -12.5t-19 -5.5q-21 0 -34 5t-31 21l-164 158q-23 23 -23 37z" />
<glyph unicode="&#xda;" horiz-adv-x="1556" d="M190 596v793q0 22 16 37.5t38 15.5t37.5 -15.5t15.5 -37.5v-783q0 -252 128.5 -392t356.5 -140q223 0 350.5 134t127.5 388v793q0 22 15.5 37.5t37.5 15.5t37.5 -15.5t15.5 -37.5v-781q0 -302 -160 -465t-428 -163q-130 0 -237.5 40.5t-185.5 117t-121.5 193.5t-43.5 265 zM750 1579q0 11 8 23l127 190q24 37 57 37q29 0 57.5 -16t28.5 -31t-22 -37l-164 -158q-28 -26 -66 -26q-11 0 -18.5 5.5t-7.5 12.5z" />
<glyph unicode="&#xdb;" horiz-adv-x="1556" d="M190 596v793q0 22 16 37.5t38 15.5t37.5 -15.5t15.5 -37.5v-783q0 -252 128.5 -392t356.5 -140q223 0 350.5 134t127.5 388v793q0 22 15.5 37.5t37.5 15.5t37.5 -15.5t15.5 -37.5v-781q0 -302 -160 -465t-428 -163q-130 0 -237.5 40.5t-185.5 117t-121.5 193.5t-43.5 265 zM555 1581q0 13 10 25l148 180q29 37 57 37h16q29 0 58 -37l147 -180q10 -12 10 -25q0 -8 -7.5 -14t-20.5 -6q-40 0 -68 26l-129 119l-129 -119q-18 -16 -31 -21t-34 -5q-12 0 -19.5 6t-7.5 14z" />
<glyph unicode="&#xdc;" horiz-adv-x="1556" d="M190 596v793q0 22 16 37.5t38 15.5t37.5 -15.5t15.5 -37.5v-783q0 -252 128.5 -392t356.5 -140q223 0 350.5 134t127.5 388v793q0 22 15.5 37.5t37.5 15.5t37.5 -15.5t15.5 -37.5v-781q0 -302 -160 -465t-428 -163q-130 0 -237.5 40.5t-185.5 117t-121.5 193.5t-43.5 265 zM539 1628v41q0 31 20 50.5t51 19.5t51.5 -19.5t20.5 -50.5v-41q0 -30 -20.5 -49.5t-51.5 -19.5t-51 19t-20 50zM874 1628v41q0 31 20.5 50.5t51.5 19.5t51.5 -19.5t20.5 -50.5v-41q0 -30 -20.5 -49.5t-51.5 -19.5t-51.5 19.5t-20.5 49.5z" />
<glyph unicode="&#xdd;" horiz-adv-x="1466" d="M111 1389q0 22 16.5 37.5t38.5 15.5q28 0 49 -31l520 -747l522 747q23 31 48 31q20 0 36.5 -15.5t16.5 -35.5q0 -15 -17 -41l-555 -781v-524q0 -22 -15.5 -36.5t-37.5 -14.5t-37.5 14.5t-15.5 36.5v522l-559 789q-10 17 -10 33zM705 1579q0 11 8 23l127 190q24 37 57 37 q29 0 57.5 -16t28.5 -31t-22 -37l-164 -158q-28 -26 -66 -26q-11 0 -18.5 5.5t-7.5 12.5z" />
<glyph unicode="&#xde;" horiz-adv-x="1378" d="M213 45v1344q0 22 15.5 37.5t37.5 15.5t37.5 -15.5t15.5 -37.5v-215h414q240 0 386.5 -117.5t146.5 -321.5v-4q0 -110 -45 -198.5t-122.5 -144.5t-178 -86t-213.5 -30h-388v-227q0 -22 -15.5 -36.5t-37.5 -14.5t-37.5 14.5t-15.5 36.5zM319 371h394q200 0 323 97.5 t123 256.5v4q0 166 -118 256t-316 90h-406v-704z" />
<glyph unicode="&#xdf;" horiz-adv-x="1269" d="M190 41v983q0 216 123 350.5t328 134.5q182 0 295 -102.5t113 -255.5v-4q0 -72 -27.5 -136.5t-74 -112.5t-102 -83t-118.5 -57q84 -15 156 -43t131 -71.5t93 -108.5t34 -144v-4q0 -122 -68 -210t-182 -131.5t-264 -47.5q-18 0 -30.5 12.5t-12.5 30.5t12.5 30.5t30.5 14.5 q185 10 295 83.5t110 213.5v4q0 68 -30.5 122t-86 90.5t-125.5 60t-155 34.5q-51 7 -51 49q0 38 41 52q315 109 315 348v4q0 117 -85 192.5t-220 75.5q-151 0 -247.5 -106.5t-96.5 -284.5v-983q0 -21 -14.5 -34t-36.5 -13t-36 13t-14 34z" />
<glyph unicode="&#xe0;" horiz-adv-x="1175" d="M104 303v4q0 160 125.5 250t331.5 90q179 0 346 -45v45q0 156 -90.5 238t-253.5 82q-150 0 -297 -70q-12 -6 -22 -6q-19 0 -33 14t-14 33q0 17 9 29t19 16q176 78 344 78q215 0 330 -115q107 -107 107 -295v-608q0 -23 -14 -36t-36 -13t-35.5 13t-13.5 36v131 q-62 -86 -161.5 -141.5t-237.5 -55.5q-75 0 -146 21t-129 60t-93.5 103t-35.5 142zM211 309q0 -110 88.5 -174.5t214.5 -64.5q163 0 279 90.5t116 230.5v119q-180 47 -354 47q-163 0 -253.5 -66.5t-90.5 -177.5v-4zM338 1434q0 15 28.5 31t57.5 16q33 0 57 -37l127 -191 q8 -12 8 -22q0 -8 -8 -13.5t-18 -5.5q-37 0 -66 27l-164 158q-22 22 -22 37z" />
<glyph unicode="&#xe1;" horiz-adv-x="1175" d="M104 303v4q0 160 125.5 250t331.5 90q179 0 346 -45v45q0 156 -90.5 238t-253.5 82q-150 0 -297 -70q-12 -6 -22 -6q-19 0 -33 14t-14 33q0 17 9 29t19 16q176 78 344 78q215 0 330 -115q107 -107 107 -295v-608q0 -23 -14 -36t-36 -13t-35.5 13t-13.5 36v131 q-62 -86 -161.5 -141.5t-237.5 -55.5q-75 0 -146 21t-129 60t-93.5 103t-35.5 142zM211 309q0 -110 88.5 -174.5t214.5 -64.5q163 0 279 90.5t116 230.5v119q-180 47 -354 47q-163 0 -253.5 -66.5t-90.5 -177.5v-4zM559 1231q0 10 8 22l127 191q24 37 58 37q29 0 57.5 -16 t28.5 -31q0 -14 -23 -37l-164 -158q-29 -27 -65 -27q-11 0 -19 6t-8 13z" />
<glyph unicode="&#xe2;" horiz-adv-x="1175" d="M104 303v4q0 160 125.5 250t331.5 90q179 0 346 -45v45q0 156 -90.5 238t-253.5 82q-150 0 -297 -70q-12 -6 -22 -6q-19 0 -33 14t-14 33q0 17 9 29t19 16q176 78 344 78q215 0 330 -115q107 -107 107 -295v-608q0 -23 -14 -36t-36 -13t-35.5 13t-13.5 36v131 q-62 -86 -161.5 -141.5t-237.5 -55.5q-75 0 -146 21t-129 60t-93.5 103t-35.5 142zM211 309q0 -110 88.5 -174.5t214.5 -64.5q163 0 279 90.5t116 230.5v119q-180 47 -354 47q-163 0 -253.5 -66.5t-90.5 -177.5v-4zM365 1233q0 11 10 24l147 181q29 37 58 37h16q28 0 57 -37 l148 -181q10 -13 10 -24q0 -8 -8 -14.5t-21 -6.5q-38 0 -67 27l-129 119l-129 -119q-29 -27 -66 -27q-11 0 -18.5 6.5t-7.5 14.5z" />
<glyph unicode="&#xe3;" horiz-adv-x="1175" d="M104 303v4q0 160 125.5 250t331.5 90q179 0 346 -45v45q0 156 -90.5 238t-253.5 82q-150 0 -297 -70q-12 -6 -22 -6q-19 0 -33 14t-14 33q0 17 9 29t19 16q176 78 344 78q215 0 330 -115q107 -107 107 -295v-608q0 -23 -14 -36t-36 -13t-35.5 13t-13.5 36v131 q-62 -86 -161.5 -141.5t-237.5 -55.5q-75 0 -146 21t-129 60t-93.5 103t-35.5 142zM211 309q0 -110 88.5 -174.5t214.5 -64.5q163 0 279 90.5t116 230.5v119q-180 47 -354 47q-163 0 -253.5 -66.5t-90.5 -177.5v-4zM297 1231q0 12 4 24q28 86 66 120t96 34q40 0 134 -42 t128 -42q33 0 53 17.5t39 60.5q15 29 37 29q15 0 26 -10t11 -25q0 -13 -4 -25q-28 -86 -66 -119.5t-96 -33.5q-40 0 -134 42t-128 42q-33 0 -53 -17.5t-39 -60.5q-15 -29 -37 -29q-15 0 -26 10t-11 25z" />
<glyph unicode="&#xe4;" horiz-adv-x="1175" d="M104 303v4q0 160 125.5 250t331.5 90q179 0 346 -45v45q0 156 -90.5 238t-253.5 82q-150 0 -297 -70q-12 -6 -22 -6q-19 0 -33 14t-14 33q0 17 9 29t19 16q176 78 344 78q215 0 330 -115q107 -107 107 -295v-608q0 -23 -14 -36t-36 -13t-35.5 13t-13.5 36v131 q-62 -86 -161.5 -141.5t-237.5 -55.5q-75 0 -146 21t-129 60t-93.5 103t-35.5 142zM211 309q0 -110 88.5 -174.5t214.5 -64.5q163 0 279 90.5t116 230.5v119q-180 47 -354 47q-163 0 -253.5 -66.5t-90.5 -177.5v-4zM348 1280v41q0 31 20.5 50.5t51.5 19.5t51.5 -19.5 t20.5 -50.5v-41q0 -31 -20.5 -50.5t-51.5 -19.5t-51.5 19.5t-20.5 50.5zM684 1280v41q0 31 20.5 50.5t51.5 19.5t51 -19.5t20 -50.5v-41q0 -31 -20 -50.5t-51 -19.5t-51.5 19.5t-20.5 50.5z" />
<glyph unicode="&#xe5;" horiz-adv-x="1175" d="M104 303v4q0 160 125.5 250t331.5 90q179 0 346 -45v45q0 156 -90.5 238t-253.5 82q-150 0 -297 -70q-12 -6 -22 -6q-19 0 -33 14t-14 33q0 17 9 29t19 16q176 78 344 78q215 0 330 -115q107 -107 107 -295v-608q0 -23 -14 -36t-36 -13t-35.5 13t-13.5 36v131 q-62 -86 -161.5 -141.5t-237.5 -55.5q-75 0 -146 21t-129 60t-93.5 103t-35.5 142zM211 309q0 -110 88.5 -174.5t214.5 -64.5q163 0 279 90.5t116 230.5v119q-180 47 -354 47q-163 0 -253.5 -66.5t-90.5 -177.5v-4zM387 1405v4q0 77 60.5 133.5t140.5 56.5t140 -56.5 t60 -133.5v-4q0 -78 -60 -134.5t-140 -56.5t-140.5 57t-60.5 134zM461 1405q0 -51 38 -88t89 -37t89 37t38 88v4q0 51 -37.5 88t-89.5 37t-89.5 -37t-37.5 -88v-4z" />
<glyph unicode="&#xe6;" horiz-adv-x="1953" d="M104 303v4q0 160 123 250t324 90q161 0 328 -45v45q0 157 -86 238.5t-244 81.5q-136 0 -283 -70q-12 -6 -22 -6q-19 0 -33 14t-14 33q0 17 9 29t19 16q169 78 330 78q157 0 258.5 -66.5t136.5 -195.5q63 124 174.5 197t247.5 73q143 0 253 -73t168 -195.5t58 -272.5 q0 -19 -15 -33t-34 -14h-819q13 -188 131.5 -299.5t278.5 -111.5q192 0 338 143q14 14 32 14q20 0 34.5 -13.5t14.5 -33.5q0 -19 -16 -35q-83 -83 -178.5 -125.5t-228.5 -42.5q-129 0 -241 60.5t-181 167.5q-199 -228 -469 -228q-59 0 -115 13t-107 39.5t-89 64.5t-60.5 92 t-22.5 117zM211 309q0 -110 84 -174.5t209 -64.5q243 0 418 219q-42 106 -45 223q-198 45 -332 45q-158 0 -246 -66.5t-88 -177.5v-4zM983 571h760q-5 81 -31 152.5t-71 129t-115.5 91t-157.5 33.5q-154 0 -262.5 -116t-122.5 -290z" />
<glyph unicode="&#xe7;" horiz-adv-x="1169" d="M119 518v4q0 145 70 270.5t193 201t269 75.5q124 0 217.5 -44.5t175.5 -121.5q15 -15 15 -37t-14.5 -36.5t-36.5 -14.5q-23 0 -35 12q-73 69 -150 108.5t-174 39.5q-178 0 -300 -130.5t-122 -318.5v-4q0 -189 125 -320.5t305 -131.5q179 0 328 149q17 17 33 17 q19 0 34 -15.5t15 -34.5q0 -18 -12 -30q-165 -169 -379 -179l-111 -225q-10 -22 -21 -31.5t-32 -9.5q-25 0 -47.5 16t-22.5 33q0 16 11 31l129 191q-199 25 -331 179t-132 357z" />
<glyph unicode="&#xe8;" horiz-adv-x="1196" d="M119 520v4q0 112 38 212.5t103 173.5t157.5 116t196.5 43q143 0 253.5 -73t168.5 -195.5t58 -272.5q0 -19 -15.5 -33t-34.5 -14h-819q13 -188 131.5 -299.5t278.5 -111.5q192 0 338 143q14 14 33 14q20 0 34.5 -13.5t14.5 -33.5q0 -18 -17 -35q-83 -83 -178.5 -125.5 t-228.5 -42.5q-102 0 -195.5 39.5t-163.5 109t-111.5 172.5t-41.5 222zM225 571h760q-5 81 -31 152.5t-71 129t-115.5 91t-157.5 33.5q-154 0 -262.5 -116t-122.5 -290zM365 1434q0 15 28.5 31t57.5 16q33 0 57 -37l127 -191q8 -12 8 -22q0 -7 -8 -13t-19 -6q-36 0 -65 27 l-164 158q-22 22 -22 37z" />
<glyph unicode="&#xe9;" horiz-adv-x="1196" d="M119 520v4q0 112 38 212.5t103 173.5t157.5 116t196.5 43q143 0 253.5 -73t168.5 -195.5t58 -272.5q0 -19 -15.5 -33t-34.5 -14h-819q13 -188 131.5 -299.5t278.5 -111.5q192 0 338 143q14 14 33 14q20 0 34.5 -13.5t14.5 -33.5q0 -18 -17 -35q-83 -83 -178.5 -125.5 t-228.5 -42.5q-102 0 -195.5 39.5t-163.5 109t-111.5 172.5t-41.5 222zM225 571h760q-5 81 -31 152.5t-71 129t-115.5 91t-157.5 33.5q-154 0 -262.5 -116t-122.5 -290zM586 1231q0 10 8 22l127 191q24 37 57 37q29 0 57.5 -16t28.5 -31t-22 -37l-164 -158q-29 -27 -66 -27 q-10 0 -18 5.5t-8 13.5z" />
<glyph unicode="&#xea;" horiz-adv-x="1196" d="M119 520v4q0 112 38 212.5t103 173.5t157.5 116t196.5 43q143 0 253.5 -73t168.5 -195.5t58 -272.5q0 -19 -15.5 -33t-34.5 -14h-819q13 -188 131.5 -299.5t278.5 -111.5q192 0 338 143q14 14 33 14q20 0 34.5 -13.5t14.5 -33.5q0 -18 -17 -35q-83 -83 -178.5 -125.5 t-228.5 -42.5q-102 0 -195.5 39.5t-163.5 109t-111.5 172.5t-41.5 222zM225 571h760q-5 81 -31 152.5t-71 129t-115.5 91t-157.5 33.5q-154 0 -262.5 -116t-122.5 -290zM391 1233q0 11 10 24l148 181q29 37 57 37h17q28 0 57 -37l147 -181q11 -14 11 -24q0 -8 -8 -14.5 t-21 -6.5q-39 0 -68 27l-129 119l-129 -119q-29 -27 -65 -27q-11 0 -19 6.5t-8 14.5z" />
<glyph unicode="&#xeb;" horiz-adv-x="1196" d="M119 520v4q0 112 38 212.5t103 173.5t157.5 116t196.5 43q143 0 253.5 -73t168.5 -195.5t58 -272.5q0 -19 -15.5 -33t-34.5 -14h-819q13 -188 131.5 -299.5t278.5 -111.5q192 0 338 143q14 14 33 14q20 0 34.5 -13.5t14.5 -33.5q0 -18 -17 -35q-83 -83 -178.5 -125.5 t-228.5 -42.5q-102 0 -195.5 39.5t-163.5 109t-111.5 172.5t-41.5 222zM225 571h760q-5 81 -31 152.5t-71 129t-115.5 91t-157.5 33.5q-154 0 -262.5 -116t-122.5 -290zM375 1280v41q0 31 20 50.5t51 19.5t51.5 -19.5t20.5 -50.5v-41q0 -31 -20.5 -50.5t-51.5 -19.5 t-51 19.5t-20 50.5zM711 1280v41q0 31 20 50.5t51 19.5t51.5 -19.5t20.5 -50.5v-41q0 -31 -20.5 -50.5t-51.5 -19.5t-51 19.5t-20 50.5z" />
<glyph unicode="&#xec;" horiz-adv-x="509" d="M4 1434q0 15 28.5 31t57.5 16q33 0 57 -37l127 -191q9 -13 9 -22q0 -7 -8 -13t-19 -6q-37 0 -66 27l-163 158q-23 23 -23 37zM205 43v958q0 22 14 37t35 15q22 0 36.5 -14.5t14.5 -37.5v-958q0 -23 -13.5 -36t-35.5 -13t-36.5 13t-14.5 36z" />
<glyph unicode="&#xed;" horiz-adv-x="509" d="M205 43v958q0 22 14 37t35 15q22 0 36.5 -14.5t14.5 -37.5v-958q0 -23 -13.5 -36t-35.5 -13t-36.5 13t-14.5 36zM225 1231q0 10 8 22l127 191q24 37 58 37q29 0 57.5 -16t28.5 -31q0 -14 -23 -37l-164 -158q-29 -27 -65 -27q-11 0 -19 6t-8 13z" />
<glyph unicode="&#xee;" horiz-adv-x="509" d="M31 1233q0 11 10 24l147 181q29 37 58 37h16q28 0 57 -37l148 -181q10 -13 10 -24q0 -8 -7.5 -14.5t-20.5 -6.5q-39 0 -68 27l-129 119l-129 -119q-29 -27 -66 -27q-11 0 -18.5 6.5t-7.5 14.5zM205 43v958q0 22 14 37t35 15q22 0 36.5 -14.5t14.5 -37.5v-958 q0 -23 -13.5 -36t-35.5 -13t-36.5 13t-14.5 36z" />
<glyph unicode="&#xef;" horiz-adv-x="509" d="M14 1280v41q0 31 20.5 50.5t51.5 19.5t51.5 -19.5t20.5 -50.5v-41q0 -31 -20.5 -50.5t-51.5 -19.5t-51.5 19.5t-20.5 50.5zM205 43v958q0 22 14 37t35 15q22 0 36.5 -14.5t14.5 -37.5v-958q0 -23 -13.5 -36t-35.5 -13t-36.5 13t-14.5 36zM350 1280v41q0 31 20.5 50.5 t51.5 19.5t51.5 -19.5t20.5 -50.5v-41q0 -31 -20.5 -50.5t-51.5 -19.5t-51.5 19.5t-20.5 50.5z" />
<glyph unicode="&#xf0;" horiz-adv-x="1286" d="M119 500q0 108 40.5 202t108 157.5t157 99.5t185.5 36q114 0 199.5 -34t163.5 -95l-301 426l-250 -127q-12 -6 -25 -6q-19 0 -32 14t-13 33q0 26 29 41l240 117l-37 53q-13 17 -13 37t15 34.5t37 14.5q28 0 47 -26l43 -66l176 90q12 6 24 6q19 0 32 -14t13 -33 q0 -27 -28 -41l-166 -82l221 -329q90 -132 134 -246t44 -254q0 -106 -38 -202.5t-105.5 -169.5t-168 -116t-218.5 -43q-144 0 -263 71.5t-185 191.5t-66 260zM227 494q0 -109 52.5 -206t149.5 -157.5t214 -60.5q119 0 214.5 60t146.5 157t51 211q0 168 -125 287.5 t-307 119.5q-179 0 -287.5 -117t-108.5 -294z" />
<glyph unicode="&#xf1;" horiz-adv-x="1255" d="M190 43v958q0 22 14 37t36 15t36.5 -14.5t14.5 -37.5v-151q125 219 377 219q194 0 305.5 -119t111.5 -311v-596q0 -23 -13.5 -36t-35.5 -13t-36.5 13t-14.5 36v578q0 163 -88 259.5t-244 96.5q-155 0 -258.5 -105.5t-103.5 -267.5v-561q0 -23 -13.5 -36t-35.5 -13t-37 13 t-15 36zM346 1231q0 12 4 24q28 86 66 120t96 34q40 0 134 -42t128 -42q33 0 53 17.5t39 60.5q14 29 37 29q15 0 26 -10t11 -25q0 -13 -4 -25q-28 -86 -66 -119.5t-96 -33.5q-40 0 -134 42t-128 42q-33 0 -53 -17.5t-39 -60.5q-14 -29 -37 -29q-15 0 -26 10t-11 25z" />
<glyph unicode="&#xf2;" horiz-adv-x="1310" d="M119 518v4q0 109 41 209t111 174.5t171 119t215 44.5q151 0 274.5 -74.5t192 -198.5t68.5 -270v-4q0 -146 -69 -270.5t-193.5 -199.5t-276.5 -75q-113 0 -213 43.5t-170 117t-110.5 172.5t-40.5 208zM227 522q0 -189 124.5 -320.5t305.5 -131.5q121 0 219.5 60.5 t152.5 163t54 224.5v4q0 190 -124.5 321.5t-305.5 131.5q-183 0 -304.5 -131t-121.5 -318v-4zM406 1434q0 15 28.5 31t57.5 16q33 0 57 -37l127 -191q8 -12 8 -22q0 -7 -8 -13t-19 -6q-36 0 -65 27l-164 158q-22 22 -22 37z" />
<glyph unicode="&#xf3;" horiz-adv-x="1310" d="M119 518v4q0 109 41 209t111 174.5t171 119t215 44.5q151 0 274.5 -74.5t192 -198.5t68.5 -270v-4q0 -146 -69 -270.5t-193.5 -199.5t-276.5 -75q-113 0 -213 43.5t-170 117t-110.5 172.5t-40.5 208zM227 522q0 -189 124.5 -320.5t305.5 -131.5q121 0 219.5 60.5 t152.5 163t54 224.5v4q0 190 -124.5 321.5t-305.5 131.5q-183 0 -304.5 -131t-121.5 -318v-4zM627 1231q0 10 8 22l127 191q24 37 57 37q29 0 57.5 -16t28.5 -31t-22 -37l-164 -158q-29 -27 -66 -27q-10 0 -18 5.5t-8 13.5z" />
<glyph unicode="&#xf4;" horiz-adv-x="1310" d="M119 518v4q0 109 41 209t111 174.5t171 119t215 44.5q151 0 274.5 -74.5t192 -198.5t68.5 -270v-4q0 -146 -69 -270.5t-193.5 -199.5t-276.5 -75q-113 0 -213 43.5t-170 117t-110.5 172.5t-40.5 208zM227 522q0 -189 124.5 -320.5t305.5 -131.5q121 0 219.5 60.5 t152.5 163t54 224.5v4q0 190 -124.5 321.5t-305.5 131.5q-183 0 -304.5 -131t-121.5 -318v-4zM432 1233q0 11 10 24l148 181q29 37 57 37h17q28 0 57 -37l147 -181q11 -14 11 -24q0 -8 -8 -14.5t-21 -6.5q-39 0 -68 27l-129 119l-129 -119q-29 -27 -65 -27q-11 0 -19 6.5 t-8 14.5z" />
<glyph unicode="&#xf5;" horiz-adv-x="1310" d="M119 518v4q0 109 41 209t111 174.5t171 119t215 44.5q151 0 274.5 -74.5t192 -198.5t68.5 -270v-4q0 -146 -69 -270.5t-193.5 -199.5t-276.5 -75q-113 0 -213 43.5t-170 117t-110.5 172.5t-40.5 208zM227 522q0 -189 124.5 -320.5t305.5 -131.5q121 0 219.5 60.5 t152.5 163t54 224.5v4q0 190 -124.5 321.5t-305.5 131.5q-183 0 -304.5 -131t-121.5 -318v-4zM365 1231q0 12 4 24q28 86 65.5 120t95.5 34q40 0 134.5 -42t128.5 -42q33 0 53 17.5t39 60.5q15 29 37 29q15 0 25.5 -10t10.5 -25q0 -13 -4 -25q-28 -86 -65.5 -119.5 t-95.5 -33.5q-40 0 -134.5 42t-128.5 42q-33 0 -53 -17.5t-39 -60.5q-14 -29 -37 -29q-15 0 -25.5 10t-10.5 25z" />
<glyph unicode="&#xf6;" horiz-adv-x="1310" d="M119 518v4q0 109 41 209t111 174.5t171 119t215 44.5q151 0 274.5 -74.5t192 -198.5t68.5 -270v-4q0 -146 -69 -270.5t-193.5 -199.5t-276.5 -75q-113 0 -213 43.5t-170 117t-110.5 172.5t-40.5 208zM227 522q0 -189 124.5 -320.5t305.5 -131.5q121 0 219.5 60.5 t152.5 163t54 224.5v4q0 190 -124.5 321.5t-305.5 131.5q-183 0 -304.5 -131t-121.5 -318v-4zM416 1280v41q0 31 20 50.5t51 19.5t51.5 -19.5t20.5 -50.5v-41q0 -31 -20.5 -50.5t-51.5 -19.5t-51 19.5t-20 50.5zM752 1280v41q0 31 20 50.5t51 19.5t51.5 -19.5t20.5 -50.5 v-41q0 -31 -20.5 -50.5t-51.5 -19.5t-51 19.5t-20 50.5z" />
<glyph unicode="&#xf7;" horiz-adv-x="1269" d="M131 721q0 -20 14.5 -34.5t34.5 -14.5h910q20 0 34.5 14.5t14.5 34.5t-14.5 34.5t-34.5 14.5h-910q-20 0 -34.5 -14.5t-14.5 -34.5zM553 309v35q0 34 24 58t58 24t58 -24t24 -58v-35q0 -34 -24 -58t-58 -24t-58 24t-24 58zM553 1098v35q0 34 24 57.5t58 23.5t58 -23.5 t24 -57.5v-35q0 -34 -24 -58t-58 -24t-58 24t-24 58z" />
<glyph unicode="&#xf8;" horiz-adv-x="1310" d="M119 518v4q0 109 41 209t111 174.5t171 119t215 44.5q198 0 342 -125l99 107q16 16 37 16q17 0 29 -11t12 -28q0 -18 -13 -31l-104 -110q133 -152 133 -361v-4q0 -146 -69 -270.5t-193.5 -199.5t-276.5 -75q-199 0 -342 121l-98 -98q-16 -16 -37 -16q-17 0 -29 10.5 t-12 25.5q0 19 12 31l103 107q-131 157 -131 360zM227 522q0 -165 97 -289l610 633q-122 109 -281 109q-183 0 -304.5 -131t-121.5 -318v-4zM377 176q118 -106 280 -106q121 0 219.5 60.5t152.5 163t54 224.5v4q0 164 -98 289z" />
<glyph unicode="&#xf9;" horiz-adv-x="1255" d="M170 406v595q0 23 13.5 37.5t35.5 14.5t36.5 -14.5t14.5 -37.5v-577q0 -163 88 -259.5t244 -96.5q155 0 259 105t104 267v561q0 23 13.5 37.5t35.5 14.5t36.5 -14.5t14.5 -37.5v-958q0 -22 -13.5 -35.5t-35.5 -13.5t-36.5 13t-14.5 36v152q-124 -218 -377 -218 q-194 0 -306 119t-112 310zM367 1434q0 15 28.5 31t57.5 16q33 0 57 -37l127 -191q8 -12 8 -22q0 -7 -8 -13t-19 -6q-36 0 -65 27l-164 158q-22 22 -22 37z" />
<glyph unicode="&#xfa;" horiz-adv-x="1255" d="M170 406v595q0 23 13.5 37.5t35.5 14.5t36.5 -14.5t14.5 -37.5v-577q0 -163 88 -259.5t244 -96.5q155 0 259 105t104 267v561q0 23 13.5 37.5t35.5 14.5t36.5 -14.5t14.5 -37.5v-958q0 -22 -13.5 -35.5t-35.5 -13.5t-36.5 13t-14.5 36v152q-124 -218 -377 -218 q-194 0 -306 119t-112 310zM588 1231q0 10 8 22l127 191q24 37 57 37q29 0 57.5 -16t28.5 -31t-22 -37l-164 -158q-29 -27 -66 -27q-10 0 -18 5.5t-8 13.5z" />
<glyph unicode="&#xfb;" horiz-adv-x="1255" d="M170 406v595q0 23 13.5 37.5t35.5 14.5t36.5 -14.5t14.5 -37.5v-577q0 -163 88 -259.5t244 -96.5q155 0 259 105t104 267v561q0 23 13.5 37.5t35.5 14.5t36.5 -14.5t14.5 -37.5v-958q0 -22 -13.5 -35.5t-35.5 -13.5t-36.5 13t-14.5 36v152q-124 -218 -377 -218 q-194 0 -306 119t-112 310zM393 1233q0 11 10 24l148 181q29 37 57 37h17q28 0 57 -37l147 -181q11 -14 11 -24q0 -8 -8 -14.5t-21 -6.5q-39 0 -68 27l-129 119l-129 -119q-29 -27 -65 -27q-11 0 -19 6.5t-8 14.5z" />
<glyph unicode="&#xfc;" horiz-adv-x="1255" d="M170 406v595q0 23 13.5 37.5t35.5 14.5t36.5 -14.5t14.5 -37.5v-577q0 -163 88 -259.5t244 -96.5q155 0 259 105t104 267v561q0 23 13.5 37.5t35.5 14.5t36.5 -14.5t14.5 -37.5v-958q0 -22 -13.5 -35.5t-35.5 -13.5t-36.5 13t-14.5 36v152q-124 -218 -377 -218 q-194 0 -306 119t-112 310zM377 1280v41q0 31 20.5 50.5t51.5 19.5t51 -19.5t20 -50.5v-41q0 -31 -20 -50.5t-51 -19.5t-51.5 19.5t-20.5 50.5zM713 1280v41q0 31 20 50.5t51 19.5t51.5 -19.5t20.5 -50.5v-41q0 -31 -20.5 -50.5t-51.5 -19.5t-51 19.5t-20 50.5z" />
<glyph unicode="&#xfd;" horiz-adv-x="1204" d="M106 1001q0 22 15.5 37t38.5 15q35 0 53 -41l418 -901l364 905q15 37 49 37q22 0 37 -15t15 -37q0 -11 -6 -26l-424 -1010q-67 -160 -150 -228.5t-199 -68.5q-87 0 -178 33q-28 11 -28 43q0 20 13.5 33.5t33.5 13.5q8 0 32 -8q58 -21 134 -21q84 0 141 55.5t110 176.5 l7 12l-467 965q-9 23 -9 30zM582 1231q0 10 8 22l127 191q24 37 57 37q29 0 57.5 -16t28.5 -31t-22 -37l-164 -158q-29 -27 -66 -27q-10 0 -18 5.5t-8 13.5z" />
<glyph unicode="&#xfe;" horiz-adv-x="1351" d="M190 -283v1735q0 23 14 37t36 14t36.5 -14t14.5 -37v-641q169 258 430 258q95 0 185.5 -38t162.5 -105.5t116 -172t44 -227.5v-4q0 -123 -44 -228t-116 -173t-162.5 -106t-185.5 -38q-267 0 -430 248v-508q0 -23 -13.5 -37t-35.5 -14t-37 14t-15 37zM285 520 q0 -129 61.5 -233.5t158.5 -159.5t206 -55q176 0 292.5 120.5t116.5 325.5v4q0 100 -33 185.5t-89 143t-130.5 90t-156.5 32.5q-81 0 -158 -33t-136.5 -91t-95.5 -143t-36 -182v-4z" />
<glyph unicode="&#xff;" horiz-adv-x="1204" d="M106 1001q0 22 15.5 37t38.5 15q35 0 53 -41l418 -901l364 905q15 37 49 37q22 0 37 -15t15 -37q0 -11 -6 -26l-424 -1010q-67 -160 -150 -228.5t-199 -68.5q-87 0 -178 33q-28 11 -28 43q0 20 13.5 33.5t33.5 13.5q8 0 32 -8q58 -21 134 -21q84 0 141 55.5t110 176.5 l7 12l-467 965q-9 23 -9 30zM371 1280v41q0 31 20 50.5t51 19.5t51.5 -19.5t20.5 -50.5v-41q0 -31 -20.5 -50.5t-51.5 -19.5t-51 19.5t-20 50.5zM707 1280v41q0 31 20 50.5t51 19.5t51.5 -19.5t20.5 -50.5v-41q0 -31 -20.5 -50.5t-51.5 -19.5t-51 19.5t-20 50.5z" />
<glyph unicode="&#x152;" horiz-adv-x="2359" d="M150 713v4q0 150 56 282t155 228t241.5 151.5t308.5 55.5h1268q20 0 34.5 -15t14.5 -35t-14.5 -34.5t-34.5 -14.5h-842v-563h750q20 0 34.5 -14.5t14.5 -34.5t-14.5 -34.5t-34.5 -14.5h-750v-576h852q20 0 34.5 -14.5t14.5 -34.5t-14.5 -34.5t-34.5 -14.5h-1278 q-222 0 -396 93t-269.5 255.5t-95.5 364.5zM260 717q0 -127 46 -240t129 -197t206.5 -133t269.5 -49h320v1237h-320q-146 0 -269.5 -48t-206.5 -131t-129 -195t-46 -240v-4z" />
<glyph unicode="&#x153;" horiz-adv-x="2160" d="M119 518v4q0 145 69 270.5t193 201t274 75.5q162 0 290 -88t190 -231q58 145 176.5 232t269.5 87q142 0 252 -73t167.5 -195.5t57.5 -272.5q0 -19 -15 -33t-34 -14h-819q13 -188 131 -299.5t278 -111.5q192 0 338 143q14 14 33 14q20 0 34.5 -13.5t14.5 -33.5 q0 -19 -16 -35q-82 -82 -178 -125t-226 -43q-153 0 -278.5 86t-185.5 234q-62 -143 -191.5 -231.5t-292.5 -88.5q-149 0 -272 74t-191.5 198t-68.5 269zM227 522q0 -189 124.5 -320.5t305.5 -131.5q121 0 219.5 60.5t152.5 163t54 224.5v4q0 190 -124.5 321.5t-305.5 131.5 q-183 0 -304.5 -131t-121.5 -318v-4zM1190 571h760q-5 81 -31 152.5t-71 129t-115.5 91t-157.5 33.5q-154 0 -262.5 -116t-122.5 -290z" />
<glyph unicode="&#x178;" horiz-adv-x="1466" d="M111 1389q0 22 16.5 37.5t38.5 15.5q28 0 49 -31l520 -747l522 747q23 31 48 31q20 0 36.5 -15.5t16.5 -35.5q0 -15 -17 -41l-555 -781v-524q0 -22 -15.5 -36.5t-37.5 -14.5t-37.5 14.5t-15.5 36.5v522l-559 789q-10 17 -10 33zM494 1628v41q0 31 20 50.5t51 19.5 t51.5 -19.5t20.5 -50.5v-41q0 -30 -20.5 -49.5t-51.5 -19.5t-51 19t-20 50zM829 1628v41q0 31 20.5 50.5t51.5 19.5t51.5 -19.5t20.5 -50.5v-41q0 -30 -20.5 -49.5t-51.5 -19.5t-51.5 19.5t-20.5 49.5z" />
<glyph unicode="&#x2c6;" d="M289 1233q0 11 10 24l147 181q29 37 58 37h16q29 0 58 -37l147 -181q10 -13 10 -24q0 -8 -7.5 -14.5t-20.5 -6.5q-39 0 -68 27l-129 119l-129 -119q-29 -27 -66 -27q-11 0 -18.5 6.5t-7.5 14.5z" />
<glyph unicode="&#x2dc;" d="M215 1231q0 12 4 24q28 86 66 120t96 34q40 0 134 -42t128 -42q33 0 53 17.5t39 60.5q15 29 37 29q15 0 26 -10t11 -25q0 -13 -4 -25q-28 -86 -66 -119.5t-96 -33.5q-40 0 -134 42t-128 42q-33 0 -53 -17.5t-39 -60.5q-15 -29 -37 -29q-15 0 -26 10t-11 25z" />
<glyph unicode="&#x2000;" horiz-adv-x="924" />
<glyph unicode="&#x2001;" horiz-adv-x="1849" />
<glyph unicode="&#x2002;" horiz-adv-x="924" />
<glyph unicode="&#x2003;" horiz-adv-x="1849" />
<glyph unicode="&#x2004;" horiz-adv-x="616" />
<glyph unicode="&#x2005;" horiz-adv-x="462" />
<glyph unicode="&#x2006;" horiz-adv-x="308" />
<glyph unicode="&#x2007;" horiz-adv-x="308" />
<glyph unicode="&#x2008;" horiz-adv-x="231" />
<glyph unicode="&#x2009;" horiz-adv-x="369" />
<glyph unicode="&#x200a;" horiz-adv-x="102" />
<glyph unicode="&#x2010;" horiz-adv-x="835" d="M135 608q0 23 17.5 40.5t40.5 17.5h450q23 0 40 -17.5t17 -40.5t-17 -40t-40 -17h-450q-23 0 -40.5 17t-17.5 40z" />
<glyph unicode="&#x2011;" horiz-adv-x="835" d="M135 608q0 23 17.5 40.5t40.5 17.5h450q23 0 40 -17.5t17 -40.5t-17 -40t-40 -17h-450q-23 0 -40.5 17t-17.5 40z" />
<glyph unicode="&#x2012;" horiz-adv-x="835" d="M135 608q0 23 17.5 40.5t40.5 17.5h450q23 0 40 -17.5t17 -40.5t-17 -40t-40 -17h-450q-23 0 -40.5 17t-17.5 40z" />
<glyph unicode="&#x2013;" horiz-adv-x="1081" d="M135 608q0 22 15.5 38t37.5 16h705q22 0 37.5 -16t15.5 -38t-15.5 -37.5t-37.5 -15.5h-705q-22 0 -37.5 15.5t-15.5 37.5z" />
<glyph unicode="&#x2014;" horiz-adv-x="1839" d="M135 608q0 22 15.5 38t37.5 16h1463q22 0 37.5 -16t15.5 -38t-15.5 -37.5t-37.5 -15.5h-1463q-22 0 -37.5 15.5t-15.5 37.5z" />
<glyph unicode="&#x2018;" horiz-adv-x="471" d="M158 1110v51q0 158 55 213q27 27 59.5 46.5t46.5 19.5q12 0 21.5 -8.5t9.5 -22.5q0 -17 -16 -27q-56 -31 -78 -67t-18 -90q55 -14 55 -72v-43q0 -28 -20 -48t-48 -20t-47.5 20t-19.5 48z" />
<glyph unicode="&#x2019;" horiz-adv-x="471" d="M121 1075q0 17 16 27q56 31 78 67.5t18 90.5q-55 14 -55 71v43q0 28 20 48t48 20t47.5 -20t19.5 -48v-51q0 -158 -55 -213q-27 -27 -59.5 -46.5t-46.5 -19.5q-12 0 -21.5 8.5t-9.5 22.5z" />
<glyph unicode="&#x201a;" horiz-adv-x="471" d="M111 -182q0 16 16 26q56 31 78 67.5t18 88.5q-55 14 -55 72v43q0 29 19.5 48t48.5 19t48 -19t19 -48v-52q0 -155 -55 -210q-26 -26 -59.5 -46t-47.5 -20q-11 0 -20.5 8.5t-9.5 22.5z" />
<glyph unicode="&#x201c;" horiz-adv-x="839" d="M158 1110v51q0 158 55 213q27 27 59.5 46.5t46.5 19.5q12 0 21.5 -8.5t9.5 -22.5q0 -17 -16 -27q-56 -31 -78 -67t-18 -90q55 -14 55 -72v-43q0 -28 -20 -48t-48 -20t-47.5 20t-19.5 48zM526 1110v51q0 157 56 213q27 27 59.5 46.5t46.5 19.5q12 0 21.5 -8.5t9.5 -22.5 q0 -17 -17 -27q-56 -31 -78 -67t-18 -90q56 -14 56 -72v-43q0 -28 -20 -48t-48 -20t-48 20t-20 48z" />
<glyph unicode="&#x201d;" horiz-adv-x="839" d="M121 1075q0 17 16 27q56 31 78 67.5t18 90.5q-55 14 -55 71v43q0 28 20 48t48 20t47.5 -20t19.5 -48v-51q0 -158 -55 -213q-27 -27 -59.5 -46.5t-46.5 -19.5q-12 0 -21.5 8.5t-9.5 22.5zM489 1075q0 17 17 27q56 31 78 67.5t18 90.5q-55 14 -55 71v43q0 28 19.5 48 t47.5 20t48 -20t20 -48v-51q0 -158 -55 -213q-26 -26 -59.5 -46t-47.5 -20q-12 0 -21.5 8.5t-9.5 22.5z" />
<glyph unicode="&#x201e;" horiz-adv-x="839" d="M111 -182q0 16 16 26q56 31 78 67.5t18 88.5q-55 14 -55 72v43q0 29 19.5 48t48.5 19t48 -19t19 -48v-52q0 -155 -55 -210q-26 -26 -59.5 -46t-47.5 -20q-11 0 -20.5 8.5t-9.5 22.5zM479 -182q0 16 17 26q56 31 78 67.5t18 88.5q-55 14 -55 72v43q0 28 19.5 47.5 t47.5 19.5t48 -19.5t20 -47.5v-52q0 -154 -56 -210q-27 -27 -59.5 -46.5t-46.5 -19.5q-12 0 -21.5 8.5t-9.5 22.5z" />
<glyph unicode="&#x2022;" horiz-adv-x="962" d="M227 719v4q0 103 76.5 177.5t177.5 74.5q100 0 177 -74.5t77 -177.5v-4q0 -104 -75 -178t-179 -74t-179 74t-75 178z" />
<glyph unicode="&#x2026;" horiz-adv-x="1392" d="M168 59v56q0 29 18 48t47 19t47.5 -19t18.5 -48v-56q0 -29 -18.5 -47t-47.5 -18t-47 18t-18 47zM631 59v56q0 29 18 48t47 19t47.5 -19t18.5 -48v-56q0 -29 -18.5 -47t-47.5 -18t-47 18t-18 47zM1094 59v56q0 29 18 48t47 19t47.5 -19t18.5 -48v-56q0 -29 -18.5 -47 t-47.5 -18t-47 18t-18 47z" />
<glyph unicode="&#x202f;" horiz-adv-x="369" />
<glyph unicode="&#x2039;" horiz-adv-x="636" d="M113 522q0 19 20 45l281 367q16 22 39 22q19 0 32 -12t13 -31q0 -18 -13 -34l-258 -355l258 -358q13 -16 13 -35t-13 -31t-32 -12q-23 0 -39 23l-281 366q-20 26 -20 45z" />
<glyph unicode="&#x203a;" horiz-adv-x="636" d="M139 131q0 19 13 35l258 354l-258 359q-15 22 -13 34q2 19 14 31t31 12q23 0 39 -22l281 -367q20 -26 20 -45t-20 -45l-281 -366q-16 -23 -39 -23q-19 0 -32 12t-13 31z" />
<glyph unicode="&#x205f;" horiz-adv-x="462" />
<glyph unicode="&#x20ac;" horiz-adv-x="1474" d="M113 551q0 20 14.5 34.5t34.5 14.5h129q-6 56 -6 115q0 77 8 137h-131q-20 0 -34.5 14.5t-14.5 34.5t14.5 34.5t34.5 14.5h151q57 225 205.5 366.5t343.5 141.5q108 0 198.5 -34.5t153 -88.5t119.5 -133q13 -17 13 -33q0 -20 -15 -34.5t-35 -14.5q-28 0 -43 23 q-85 113 -174.5 167t-220.5 54q-152 0 -271 -114.5t-169 -299.5h540q20 0 35 -14.5t15 -34.5t-15 -34.5t-35 -14.5h-559q-10 -72 -10 -133q0 -63 6 -119h563q20 0 35 -14.5t15 -34.5t-15 -34.5t-35 -14.5h-544q48 -197 173 -314.5t296 -117.5q220 0 377 231q16 23 40 23 q21 0 34.5 -12.5t13.5 -32.5q0 -14 -11 -29q-88 -128 -198.5 -200.5t-261.5 -72.5q-210 0 -364 144t-206 381h-145q-20 0 -34.5 14.5t-14.5 34.5z" />
<glyph unicode="&#x2122;" horiz-adv-x="1413" d="M45 1399q0 13 10.5 24t24.5 11h432q14 0 24.5 -11t10.5 -24t-10.5 -24t-24.5 -11h-180v-535q0 -15 -11 -24.5t-26 -9.5t-25 9.5t-10 24.5v535h-180q-14 0 -24.5 11t-10.5 24zM682 829v570q0 15 10 25t25 10h10q20 0 33 -19l244 -371l243 371q13 19 33 19h8q14 0 24.5 -11 t10.5 -24v-570q0 -15 -11 -24.5t-26 -9.5t-25 9.5t-10 24.5v463l-215 -321q-14 -21 -32 -21q-21 0 -35 21l-215 321v-463q0 -15 -11 -24.5t-26 -9.5q-14 0 -24.5 9.5t-10.5 24.5z" />
<glyph unicode="&#x25fc;" horiz-adv-x="1054" d="M0 0v1055h1055v-1055h-1055z" />
<glyph unicode="&#xfb01;" horiz-adv-x="1251" d="M92 999q0 19 14 32t33 13h113v103q0 180 92 272q82 82 219 82q64 0 125 -14q17 -3 28 -16.5t11 -30.5q0 -22 -17 -34.5t-40 -8.5q-66 12 -107 12q-107 0 -159 -65t-52 -199v-101h326q20 0 33.5 -13.5t13.5 -33.5q0 -19 -14 -32t-33 -13h-326v-909q0 -22 -13.5 -35.5 t-35.5 -13.5t-36.5 13.5t-14.5 35.5v909h-113q-20 0 -33.5 13.5t-13.5 33.5zM934 1368v35q0 26 17.5 43.5t43.5 17.5q27 0 45.5 -17.5t18.5 -43.5v-35q0 -26 -18.5 -43.5t-45.5 -17.5q-26 0 -43.5 17.5t-17.5 43.5zM946 43v958q0 22 14 37t35 15q22 0 37 -14.5t15 -37.5 v-958q0 -23 -14 -36t-36 -13t-36.5 13t-14.5 36z" />
<glyph unicode="&#xfb02;" horiz-adv-x="1251" d="M92 999q0 19 14 32t33 13h113v103q0 180 92 272q82 82 219 82q64 0 125 -14q17 -3 28 -16.5t11 -30.5q0 -22 -17 -34.5t-40 -8.5q-66 12 -107 12q-107 0 -159 -65t-52 -199v-101h326q20 0 33.5 -13.5t13.5 -33.5q0 -19 -14 -32t-33 -13h-326v-909q0 -22 -13.5 -35.5 t-35.5 -13.5t-36.5 13.5t-14.5 35.5v909h-113q-20 0 -33.5 13.5t-13.5 33.5zM946 43v1409q0 22 13.5 36.5t35.5 14.5t37 -14.5t15 -36.5v-1409q0 -23 -14 -36t-36 -13t-36.5 13t-14.5 36z" />
<glyph unicode="&#xfb03;" horiz-adv-x="1992" d="M92 999q0 19 14 32t33 13h113v103q0 180 92 272q82 82 219 82q64 0 125 -14q17 -3 28 -16.5t11 -30.5q0 -22 -17 -34.5t-40 -8.5q-66 12 -107 12q-107 0 -159 -65t-52 -199v-101h326q20 0 33.5 -13.5t13.5 -33.5q0 -19 -14 -32t-33 -13h-326v-909q0 -22 -13.5 -35.5 t-35.5 -13.5t-36.5 13.5t-14.5 35.5v909h-113q-20 0 -33.5 13.5t-13.5 33.5zM834 999q0 19 14 32t33 13h112v103q0 180 92 272q82 82 220 82q64 0 125 -14q17 -3 27.5 -16t10.5 -31q0 -22 -17 -34.5t-40 -8.5q-66 12 -106 12q-107 0 -159 -65t-52 -199v-101h325 q20 0 33.5 -13.5t13.5 -33.5q0 -19 -14 -32t-33 -13h-325v-909q0 -22 -14 -35.5t-36 -13.5t-36.5 13.5t-14.5 35.5v909h-112q-20 0 -33.5 13.5t-13.5 33.5zM1675 1368v35q0 26 18 43.5t44 17.5t44.5 -17.5t18.5 -43.5v-35q0 -26 -18.5 -43.5t-44.5 -17.5t-44 17.5t-18 43.5z M1688 43v958q0 22 14 37t35 15q22 0 36.5 -14.5t14.5 -37.5v-958q0 -23 -13.5 -36t-35.5 -13t-36.5 13t-14.5 36z" />
<glyph unicode="&#xfb04;" horiz-adv-x="1992" d="M92 999q0 19 14 32t33 13h113v103q0 180 92 272q82 82 219 82q64 0 125 -14q17 -3 28 -16.5t11 -30.5q0 -22 -17 -34.5t-40 -8.5q-66 12 -107 12q-107 0 -159 -65t-52 -199v-101h326q20 0 33.5 -13.5t13.5 -33.5q0 -19 -14 -32t-33 -13h-326v-909q0 -22 -13.5 -35.5 t-35.5 -13.5t-36.5 13.5t-14.5 35.5v909h-113q-20 0 -33.5 13.5t-13.5 33.5zM834 999q0 19 14 32t33 13h112v103q0 180 92 272q82 82 220 82q64 0 125 -14q17 -3 27.5 -16t10.5 -31q0 -22 -17 -34.5t-40 -8.5q-66 12 -106 12q-107 0 -159 -65t-52 -199v-101h325 q20 0 33.5 -13.5t13.5 -33.5q0 -19 -14 -32t-33 -13h-325v-909q0 -22 -14 -35.5t-36 -13.5t-36.5 13.5t-14.5 35.5v909h-112q-20 0 -33.5 13.5t-13.5 33.5zM1688 43v1409q0 22 13.5 36.5t35.5 14.5t36.5 -14.5t14.5 -36.5v-1409q0 -23 -13.5 -36t-35.5 -13t-36.5 13 t-14.5 36z" />
</font>
</defs>
</svg>
