<?xml version="1.0" standalone="no"?>
<!DOCTYPE svg PUBLIC "-//W3C//DTD SVG 1.1//EN" "http://www.w3.org/Graphics/SVG/1.1/DTD/svg11.dtd" >
<svg xmlns="http://www.w3.org/2000/svg">
<metadata>
This is a custom SVG webfont generated by Font Squirrel.
Copyright   : Copyright Dutch Type Library 2003 All rights reserved
Designer    : Erhard Kaiser
Foundry URL : httpwwwdutchtypelibrarycom
</metadata>
<defs>
<font id="DTLProkyonSTRegular" horiz-adv-x="1377" vert-adv-y="2048" >
<font-face units-per-em="2048" ascent="1536" descent="-512" />
<missing-glyph horiz-adv-x="455" />
<glyph unicode=" " horiz-adv-x="455" vert-adv-y="0" />
<glyph unicode="!" horiz-adv-x="954" vert-adv-y="2728" d="M405 0v248h243v-248h-243zM414 464v1159h223v-1159h-223z" />
<glyph unicode="&#x22;" horiz-adv-x="1008" vert-adv-y="2728" d="M228 1705h206l-38 -651h-138zM577 1705h206l-37 -651h-141z" />
<glyph unicode="#" horiz-adv-x="1800" vert-adv-y="2728" d="M130 502l32 134h373l85 377h-372l32 135h373l111 479h162l-112 -479h339l109 479h163l-111 -479h358l-30 -135h-360l-85 -377h356l-30 -134h-359l-116 -511h-163l117 511h-336l-118 -511h-164l119 511h-373zM696 636h339l86 377h-336z" />
<glyph unicode="$" vert-adv-y="2728" d="M195 80v236q127 -91 230 -124q92 -29 213 -30v577q-168 74 -254 133q-186 134 -186 345q0 183 133 297q115 99 307 122v182h126v-175q214 -6 388 -98v-217q-183 129 -388 136v-553q189 -91 265 -150q171 -136 171 -338q0 -190 -130 -306q-112 -101 -306 -130v-189h-126 v180q-230 3 -443 102zM415 1225q0 -89 57 -149q49 -51 166 -108v484q-223 -42 -223 -227zM764 173q217 46 217 234q0 171 -217 277v-511z" />
<glyph unicode="%" horiz-adv-x="2168" vert-adv-y="2728" d="M130 1259q0 228 119 354q103 110 269 110q191 0 296 -141q91 -123 91 -323q0 -230 -118 -357q-102 -109 -269 -109q-191 0 -296 142q-92 124 -92 324zM305 1259q0 -166 65 -253q55 -77 148 -77q106 0 164 99q49 86 49 231q0 164 -64 251q-55 76 -149 76q-107 0 -164 -99 q-49 -85 -49 -228zM451 -75l1113 1812l153 -39l-1114 -1811zM1262 354q0 230 119 355q103 109 270 109q192 0 296 -141q92 -123 92 -323q0 -229 -119 -355q-103 -110 -269 -110q-191 0 -297 142q-92 123 -92 323zM1437 354q0 -163 65 -252q56 -76 149 -76q107 0 164 98 q49 86 49 230q0 165 -65 253q-55 77 -148 77q-107 0 -165 -100q-49 -87 -49 -230z" />
<glyph unicode="&#x26;" horiz-adv-x="1861" vert-adv-y="2728" d="M111 475q0 328 386 449q-144 20 -225 116q-70 84 -70 203q0 189 160 307q140 101 342 101q166 0 346 -83v-202q-162 109 -330 109q-145 0 -229 -71q-73 -62 -73 -159q0 -159 177 -208q47 -14 148 -20v-176q-407 -58 -407 -347q0 -165 145 -259q125 -81 322 -81 q277 0 431 140q135 121 135 315q0 114 -55 226q-133 -46 -196 -113q-57 -59 -88 -165h-205q63 252 305 382q188 96 682 202l34 9v-179l-32 -8q-171 -34 -311 -74q68 -149 68 -291q0 -299 -247 -477q-213 -153 -536 -153q-324 0 -513 159q-164 137 -164 348z" />
<glyph unicode="'" horiz-adv-x="666" vert-adv-y="2728" d="M228 1705h210l-37 -651h-143z" />
<glyph unicode="(" horiz-adv-x="965" vert-adv-y="2728" d="M145 692q0 386 147 704q128 280 387 552l173 -50q-286 -295 -410 -608q-108 -273 -108 -598q0 -373 142 -680q125 -268 376 -530l-173 -50q-296 313 -423 635q-111 284 -111 625z" />
<glyph unicode=")" horiz-adv-x="965" vert-adv-y="2728" d="M113 -518q285 296 410 608q109 275 109 602q0 369 -144 678q-125 269 -375 528l173 50q298 -312 423 -635q111 -282 111 -621q0 -390 -145 -708q-128 -278 -389 -552z" />
<glyph unicode="*" horiz-adv-x="1379" vert-adv-y="2728" d="M182 927l173 100q97 53 222 73l110 16l-110 18q-140 25 -220 73l-175 99l89 156l175 -101q89 -53 172 -157l69 -84l-37 103q-49 125 -49 227v203h179v-203q0 -97 -50 -227l-38 -103l71 84q81 105 172 157l175 101l89 -156l-176 -99q-85 -50 -223 -73l-106 -18l106 -16 q139 -23 223 -73l176 -100l-89 -154l-175 99q-86 50 -172 157l-71 84l38 -102q48 -123 48 -230v-199h-177v199q0 103 47 230l39 102l-69 -84q-83 -103 -172 -157l-175 -99z" />
<glyph unicode="+" vert-adv-y="2728" d="M161 480v166h441v473h173v-473h440v-166h-440v-489h-173v489h-441z" />
<glyph unicode="," horiz-adv-x="685" vert-adv-y="2728" d="M95 -316l205 646h241l-277 -646h-169z" />
<glyph unicode="-" horiz-adv-x="939" vert-adv-y="2728" d="M161 579v194h616v-194h-616z" />
<glyph unicode="." horiz-adv-x="681" vert-adv-y="2728" d="M209 0v271h264v-271h-264z" />
<glyph unicode="/" horiz-adv-x="1375" vert-adv-y="2728" d="M145 -538l905 2486l180 -29l-907 -2487z" />
<glyph unicode="0" horiz-adv-x="1327" vert-adv-y="2728" d="M139 545q0 285 165 450q144 142 366 142q251 0 394 -178q125 -154 125 -395q0 -285 -166 -451q-144 -143 -366 -143q-251 0 -394 178q-124 155 -124 397zM353 554q0 -205 94 -316q82 -97 217 -97q153 0 236 125q72 109 72 288q0 204 -94 315q-81 97 -214 97 q-155 0 -238 -125q-73 -108 -73 -287z" />
<glyph unicode="1" horiz-adv-x="865" vert-adv-y="2728" d="M80 796v176l575 176v-1148h-209v907z" />
<glyph unicode="2" horiz-adv-x="1134" vert-adv-y="2728" d="M100 2v164q201 104 368 222q147 108 206 195q51 76 51 162q0 106 -73 166q-66 52 -168 52q-163 0 -321 -140v190q167 128 375 128q198 0 308 -114q95 -100 95 -259q0 -350 -553 -595l664 9v-180h-952z" />
<glyph unicode="3" horiz-adv-x="1021" vert-adv-y="2728" d="M65 -294q104 -36 213 -36q197 0 308 100q96 86 96 223q0 166 -134 255q-116 77 -312 79v166q406 34 406 280q0 95 -71 151q-62 48 -157 48q-138 0 -273 -102v180q153 93 327 93q185 0 291 -105q93 -92 93 -233q0 -150 -101 -251q-87 -89 -235 -122q190 -26 295 -156 q91 -112 91 -272q0 -240 -192 -384q-165 -123 -415 -123q-115 0 -230 32v177z" />
<glyph unicode="4" horiz-adv-x="1270" vert-adv-y="2728" d="M39 20q124 295 443 700q195 246 316 341q80 63 152 63q3 0 39 -4v-934h221v-166h-221v-515h-202v515h-748zM327 181h462v422q0 137 34 276q-282 -340 -496 -698z" />
<glyph unicode="5" horiz-adv-x="1073" vert-adv-y="2728" d="M59 -293q102 -36 213 -36q218 0 334 115q102 101 102 267q0 385 -545 474l85 592h668v-180h-500l-39 -271q283 -69 424 -238q124 -148 124 -357q0 -275 -199 -436q-173 -139 -437 -139q-116 0 -230 31v178z" />
<glyph unicode="6" horiz-adv-x="1309" vert-adv-y="2728" d="M154 538q0 380 337 766q175 202 393 367l184 -73q-197 -142 -362 -322q-143 -154 -218 -289q88 26 178 26q245 0 384 -158q120 -138 120 -355q0 -254 -159 -401q-137 -129 -348 -129q-250 0 -388 174q-121 151 -121 394zM365 525q0 -191 91 -294q79 -90 210 -90 q145 0 225 105q70 93 70 240q0 184 -104 281q-91 83 -245 83q-73 0 -130 -15q-8 -3 -21 -6q-16 -4 -23 -6q-13 -5 -17 -9q-56 -138 -56 -289z" />
<glyph unicode="7" horiz-adv-x="1132" vert-adv-y="2728" d="M87 932v185h970q-81 -329 -304 -820q-194 -421 -410 -783l-20 -32l-202 32l13 20q195 325 392 751q171 372 263 647h-702z" />
<glyph unicode="8" horiz-adv-x="1303" vert-adv-y="2728" d="M148 393q0 160 94 270q82 96 251 171q-295 126 -295 390q0 196 149 317q131 104 321 104q218 0 350 -133q114 -116 114 -284q0 -278 -301 -394q319 -139 319 -428q0 -206 -159 -329q-137 -107 -344 -107q-235 0 -376 134q-123 116 -123 289zM359 410q0 -128 92 -204 q80 -65 198 -65q137 0 219 85q71 75 71 186q0 154 -150 256q-28 21 -91 52q-4 2 -13 6q-10 4 -15 5q-15 7 -20 7q-291 -111 -291 -328zM404 1225q0 -154 143 -245q37 -22 73 -36q3 -2 12 -6q6 -2 11 -3q16 -8 21 -10q262 92 262 303q0 118 -82 189q-71 63 -178 63 q-122 0 -198 -81q-64 -70 -64 -174z" />
<glyph unicode="9" horiz-adv-x="1307" vert-adv-y="2728" d="M143 609q0 253 159 400q138 128 350 128q249 0 387 -174q120 -149 120 -392q0 -378 -336 -764q-148 -172 -357 -332l-186 72q181 129 338 300q136 147 209 278q-90 -27 -177 -27q-247 0 -387 158q-120 137 -120 353zM352 623q0 -183 105 -279q92 -83 248 -83q69 0 127 13 q4 2 22 7q11 3 21 8q14 4 19 6q54 138 54 289q0 191 -91 294q-79 90 -210 90q-144 0 -224 -106q-71 -92 -71 -239z" />
<glyph unicode=":" horiz-adv-x="900" vert-adv-y="2728" d="M357 0v259h252v-259h-252zM357 712v258h252v-258h-252z" />
<glyph unicode=";" horiz-adv-x="891" vert-adv-y="2728" d="M171 -316l204 646h241l-276 -646h-169zM364 712v258h252v-258h-252z" />
<glyph unicode="&#x3c;" vert-adv-y="2728" d="M145 480v165l1055 487v-188l-848 -378l848 -380v-193z" />
<glyph unicode="=" vert-adv-y="2728" d="M161 293v171h1054v-171h-1054zM161 666v169h1054v-169h-1054z" />
<glyph unicode="&#x3e;" vert-adv-y="2728" d="M178 -7v191l850 378l-850 379v191l1054 -487v-165z" />
<glyph unicode="?" horiz-adv-x="1403" vert-adv-y="2728" d="M306 1321v224q185 100 384 100q240 0 372 -122q115 -107 115 -278q0 -155 -105 -270q-45 -51 -113 -105q-133 -99 -136 -102q-155 -114 -155 -226q0 -40 20 -78h-215q-21 53 -21 104q0 91 61 178q49 67 195 179q147 108 191 174q39 57 39 132q0 112 -84 173 q-75 55 -194 55q-186 0 -354 -138zM491 0v248h240v-248h-240z" />
<glyph unicode="@" horiz-adv-x="2236" vert-adv-y="2728" d="M243 466q0 453 308 726q266 238 662 238q382 0 605 -220q193 -192 193 -485q0 -353 -268 -570q-235 -187 -575 -187q-266 0 -408 134q-124 118 -124 311q0 293 224 479q194 162 470 162q123 0 266 -41l-280 -876q274 32 423 213q131 157 131 385q0 278 -206 439 q-180 140 -457 140q-393 0 -628 -265q-204 -230 -204 -576q0 -375 247 -582q214 -180 560 -180q322 0 525 164v-125q-234 -145 -546 -145q-445 0 -698 266q-220 232 -220 595zM836 427q0 -265 285 -293l241 760q-58 4 -64 4q-210 0 -346 -153q-116 -132 -116 -318z" />
<glyph unicode="A" horiz-adv-x="1648" vert-adv-y="2728" d="M70 0l22 68q222 622 605 1500l26 55h249l26 -57q288 -707 549 -1491l26 -75h-249l-13 41q-56 182 -161 491l-11 34h-635l-13 -39q-111 -292 -176 -488l-13 -39h-232zM575 744h502l-18 52q-79 231 -104 304q-47 143 -85 239l-32 86l-33 -89l-67 -161q-3 -12 -15 -39 q-17 -44 -28 -72q-6 -15 -57 -150q-13 -35 -29 -74q-10 -25 -14 -37z" />
<glyph unicode="B" horiz-adv-x="1407" vert-adv-y="2728" d="M211 4v1610l45 4q253 14 386 14q282 0 425 -98q150 -101 150 -304q0 -300 -306 -380q186 -33 280 -150q82 -101 82 -253q0 -259 -238 -378q-160 -76 -467 -76q-45 0 -314 9zM430 173q144 -4 182 -4q228 0 332 75q97 66 97 207q0 152 -116 225q-105 68 -324 68 q-63 0 -171 -8v-563zM430 916h113q226 0 327 61q119 72 119 221q0 133 -98 199q-88 64 -273 64q-90 0 -188 -11v-534z" />
<glyph unicode="C" horiz-adv-x="1613" vert-adv-y="2728" d="M139 803q0 410 271 644q236 204 603 204q239 0 464 -98v-214q-209 121 -449 121q-323 0 -500 -196q-153 -171 -153 -448q0 -320 199 -494q173 -152 456 -152q239 0 447 119v-214q-219 -101 -479 -101q-421 0 -655 255q-204 221 -204 574z" />
<glyph unicode="D" horiz-adv-x="1734" vert-adv-y="2728" d="M211 4v1612l45 2q222 16 380 16q463 0 696 -182q264 -208 264 -618q0 -429 -286 -652q-251 -191 -707 -191q-133 0 -286 7q-12 1 -32 2q-42 3 -74 4zM434 189q84 -7 193 -7q362 0 546 154q189 165 189 484q0 293 -167 452q-175 173 -538 173q-94 0 -223 -9v-1247z" />
<glyph unicode="E" horiz-adv-x="1305" vert-adv-y="2728" d="M211 2v1616h939v-186h-716v-495h690v-187h-690v-561h734v-187h-957z" />
<glyph unicode="F" horiz-adv-x="1273" vert-adv-y="2728" d="M211 0v1621h946v-187h-723v-532h693v-186h-693v-716h-223z" />
<glyph unicode="G" horiz-adv-x="1716" vert-adv-y="2728" d="M139 805q0 407 281 641q244 205 621 205q249 0 482 -98v-214q-222 121 -473 121q-334 0 -516 -199q-159 -173 -159 -454q0 -305 182 -477q170 -164 484 -164q127 0 270 27v391h-348v186h564v-722q-279 -68 -509 -68q-379 0 -600 180q-142 114 -215 298q-64 161 -64 347z " />
<glyph unicode="H" horiz-adv-x="1720" vert-adv-y="2728" d="M211 0v1623h223v-684h854v684h220v-1623h-220v750h-854v-750h-223z" />
<glyph unicode="I" horiz-adv-x="646" vert-adv-y="2728" d="M211 0v1623h223v-1623h-223z" />
<glyph unicode="J" horiz-adv-x="661" vert-adv-y="2728" d="M-135 -394q229 111 299 251q44 84 58 214q13 114 13 345v1209h221v-1271q0 -240 -21 -366q-20 -115 -65 -200q-48 -90 -121 -153q-65 -57 -185 -122z" />
<glyph unicode="K" horiz-adv-x="1481" vert-adv-y="2728" d="M211 0v1623h223v-744l37 35q186 183 390 402q126 133 273 307h268q-251 -291 -658 -696l-69 -68l45 -52q241 -283 469 -521q126 -135 288 -286h-323q-319 323 -677 775l-43 54v-829h-223z" />
<glyph unicode="L" horiz-adv-x="1247" vert-adv-y="2728" d="M211 2v1621h223v-1428h734v-193h-957z" />
<glyph unicode="M" horiz-adv-x="2234" vert-adv-y="2728" d="M184 0l5 80q10 267 30 549q22 332 41 544l33 389l4 61h224q61 0 85 -25q22 -22 56 -103q172 -399 327 -840q78 -215 111 -336q16 -65 26 -128q14 110 69 282q83 250 262 707q115 294 155 375q35 68 116 68h207l6 -61l35 -389q33 -428 45 -618q18 -322 25 -475l4 -80h-220 l-2 41q-24 528 -25 543q-23 447 -30 534q-11 162 -11 225q0 73 2 130q-42 -155 -91 -273q-28 -61 -148 -377q-126 -329 -272 -758l-23 -65h-230l-22 65q-87 251 -203 569l-118 314q-52 140 -100 252q-48 116 -93 273q4 -123 4 -137q0 -62 -11 -218q-14 -181 -34 -606 q-10 -167 -20 -471l-2 -41h-217z" />
<glyph unicode="N" horiz-adv-x="1780" vert-adv-y="2728" d="M211 0v1623h215q70 0 108 -55l719 -1118q60 -95 133 -296q-26 178 -26 317v1152h208v-1623h-217q-71 0 -104 54l-721 1121q-65 104 -134 294q28 -178 28 -317v-1152h-209z" />
<glyph unicode="O" horiz-adv-x="1854" vert-adv-y="2728" d="M139 794q0 417 247 655q215 206 553 206q381 0 593 -256q184 -224 184 -581q0 -417 -246 -652q-215 -203 -554 -203q-379 0 -592 256q-185 222 -185 575zM375 809q0 -328 168 -505q145 -154 387 -154q274 0 423 197q129 174 129 458q0 332 -164 508q-144 153 -383 153 q-279 0 -429 -199q-131 -174 -131 -458z" />
<glyph unicode="P" horiz-adv-x="1357" vert-adv-y="2728" d="M211 0v1612l34 4q197 16 373 16q301 0 463 -116q180 -131 180 -384q0 -273 -209 -409q-161 -107 -461 -107q-91 0 -157 4v-620h-223zM430 805q111 -7 163 -7q438 0 438 323q0 324 -415 324q-98 0 -186 -6v-634z" />
<glyph unicode="Q" horiz-adv-x="1854" vert-adv-y="2728" d="M139 794q0 417 247 655q215 206 553 206q381 0 593 -256q184 -224 184 -581q0 -364 -188 -589q-164 -197 -444 -252q246 -118 634 -127l-104 -186q-266 9 -473 83q-197 78 -343 223q-332 46 -507 289q-152 212 -152 535zM375 809q0 -328 168 -505q145 -154 387 -154 q274 0 423 197q129 174 129 458q0 332 -164 508q-144 153 -383 153q-280 0 -429 -198q-131 -172 -131 -459z" />
<glyph unicode="R" horiz-adv-x="1525" vert-adv-y="2728" d="M211 0v1614l34 2q169 13 367 13q298 0 447 -99q182 -119 182 -360q0 -220 -154 -343q-68 -52 -196 -93l27 -36q175 -228 405 -500l137 -155l47 -47h-305q-49 55 -85 102q-81 96 -221 277q-14 19 -55 73q-37 52 -62 84q-49 67 -97 132l-20 30l-89 -4q-14 0 -107 6h-36 v-696h-219zM430 872h41q45 -2 115 -2q197 0 286 50q137 77 137 239q0 291 -395 291q-98 0 -184 -7v-571z" />
<glyph unicode="S" horiz-adv-x="1284" vert-adv-y="2728" d="M150 73v243q214 -155 423 -155q156 0 244 77q77 66 77 170q0 109 -75 180q-65 64 -233 143q-215 104 -302 185q-119 112 -119 286q0 214 169 340q147 109 371 109q204 0 386 -96v-223q-184 132 -375 132q-157 0 -244 -73q-77 -63 -77 -166q0 -108 102 -188 q60 -45 217 -119q217 -107 301 -195q111 -115 111 -291q0 -227 -173 -353q-148 -111 -385 -111q-208 0 -418 105z" />
<glyph unicode="T" horiz-adv-x="1440" vert-adv-y="2728" d="M61 1436v185h1319v-185h-548v-1436h-223v1436h-548z" />
<glyph unicode="U" horiz-adv-x="1672" vert-adv-y="2728" d="M193 601v1022h223v-994q0 -243 85 -343q106 -125 337 -125q253 0 357 150q66 97 66 318v994h219v-1022q0 -289 -130 -442q-166 -187 -514 -187q-351 0 -513 187q-130 148 -130 442z" />
<glyph unicode="V" horiz-adv-x="1572" vert-adv-y="2728" d="M41 1623h248l14 -39q103 -330 213 -649q106 -303 223 -619l29 -84l37 84q99 242 243 613q122 319 238 655l15 39h234l-23 -66q-124 -345 -298 -782q-130 -321 -303 -718l-24 -57h-250l-23 59q-148 357 -282 727q-133 361 -265 761z" />
<glyph unicode="W" horiz-adv-x="2416" vert-adv-y="2728" d="M39 1623h234l9 -39q139 -517 139 -518q101 -359 145 -509l78 -257l13 -46l9 -93l11 93l15 46l84 259q79 245 179 571q98 320 134 454l11 39h225l9 -39q55 -211 139 -518q101 -359 145 -509l78 -257l11 -46l15 -93l11 93l15 46l85 259q72 227 179 571q73 240 131 454 l13 39h222l-18 -66q-201 -681 -495 -1500l-19 -57h-278l-17 61q-110 357 -232 785q-57 201 -94 361q-14 73 -20 243h-2l-10 -89q-13 -159 -81 -393q-58 -199 -139 -447q-38 -119 -152 -460l-18 -61h-274l-17 59q-39 117 -167 505q-42 136 -163 540l-61 226q-7 24 -21 73 q-29 99 -41 144z" />
<glyph unicode="X" horiz-adv-x="1559" vert-adv-y="2728" d="M54 0q211 334 482 703l78 102l24 36l-24 36q-294 386 -496 705l-27 41h270l30 -48q123 -194 212 -325q59 -88 188 -268q171 236 270 389q131 205 160 252h250l-28 -41q-211 -334 -495 -705l-28 -36l28 -36l74 -102q274 -367 483 -703h-275l-32 52q-135 217 -232 364 q-170 250 -196 287q-256 -369 -425 -651l-32 -52h-259z" />
<glyph unicode="Y" horiz-adv-x="1536" vert-adv-y="2728" d="M26 1623h266l11 -22q94 -175 211 -373q87 -148 216 -358l33 -47l31 49q94 136 232 353q78 127 121 196q64 107 104 180l13 22h249l-23 -39q-263 -447 -595 -916l-30 -41v-627h-223v627l-28 39q-298 438 -563 911z" />
<glyph unicode="Z" horiz-adv-x="1466" vert-adv-y="2728" d="M91 98q0 104 87 223q73 102 398 475l170 193q154 175 282 334q51 63 75 102h-934v193h1180q6 -43 6 -93q0 -105 -84 -221q-74 -102 -400 -477l-168 -191q-161 -186 -282 -334q-65 -86 -75 -102h1009v-196h-1256q-8 68 -8 94z" />
<glyph unicode="[" horiz-adv-x="904" vert-adv-y="2728" d="M206 -548v2478h528v-143h-348v-2192h348v-143h-528z" />
<glyph unicode="\" horiz-adv-x="1375" vert-adv-y="2728" d="M145 1919l178 29l907 -2486l-180 -30z" />
<glyph unicode="]" horiz-adv-x="904" vert-adv-y="2728" d="M171 -405h347v2192h-347v143h527v-2478h-527v143z" />
<glyph unicode="^" vert-adv-y="2728" d="M134 823l469 800h177l465 -800h-191l-367 648l-362 -648h-191z" />
<glyph unicode="_" horiz-adv-x="1136" vert-adv-y="2728" d="M0 -302h1137v-134h-1137v134z" />
<glyph unicode="`" horiz-adv-x="1136" vert-adv-y="2728" d="M295 1714l187 19l359 -451l-144 -22z" />
<glyph unicode="a" horiz-adv-x="1088" vert-adv-y="2728" d="M123 282q0 195 151 287q133 80 420 106l25 2v37q0 132 -20 170q-37 61 -146 61q-176 0 -369 -134v191q208 120 410 120q217 0 286 -141q35 -71 35 -261v-698l-39 -4q-246 -36 -395 -36q-358 0 -358 300zM321 295q0 -154 180 -154q82 0 218 22v355q-233 -18 -321 -74 q-77 -50 -77 -149z" />
<glyph unicode="b" horiz-adv-x="1286" vert-adv-y="2728" d="M200 18v1687h206v-628q133 43 257 43q249 0 386 -164q119 -143 119 -377q0 -307 -193 -460q-170 -135 -469 -135q-140 0 -306 34zM406 163q84 -13 137 -13q212 0 318 120q92 105 92 291q0 196 -105 299q-91 89 -246 89q-90 0 -196 -33v-753z" />
<glyph unicode="c" horiz-adv-x="1045" vert-adv-y="2728" d="M118 532q0 281 177 445q155 143 391 143q141 0 275 -63v-191q-116 85 -256 85q-184 0 -284 -122q-87 -106 -87 -280q0 -199 110 -304q97 -92 259 -92q135 0 272 90v-189q-143 -76 -307 -76q-270 0 -420 170q-130 147 -130 384z" />
<glyph unicode="d" horiz-adv-x="1279" vert-adv-y="2728" d="M118 527q0 288 181 450q156 141 405 141q91 0 175 -22v609h207v-1673q-214 -48 -391 -48q-300 0 -449 159q-128 138 -128 384zM332 541q0 -202 109 -303q93 -88 258 -88q89 0 180 25v747q-74 25 -163 25q-193 0 -295 -121q-89 -107 -89 -285z" />
<glyph unicode="e" horiz-adv-x="1195" vert-adv-y="2728" d="M118 529q0 285 163 450q142 143 359 143q262 0 385 -193q77 -113 77 -342v-50h-781v-34q0 -177 110 -271q96 -82 255 -82q196 0 362 128v-189q-168 -115 -386 -115q-275 0 -419 167q-125 145 -125 388zM341 694h555q-25 267 -258 267q-125 0 -205 -79q-70 -69 -92 -188z " />
<glyph unicode="f" horiz-adv-x="800" vert-adv-y="2728" d="M82 919v154h176v46q0 193 36 304q32 99 104 169q126 123 314 123q53 0 107 -12v-166q-52 9 -89 9q-137 0 -203 -95q-63 -88 -63 -328v-50h280v-154h-280v-919h-206v919h-176z" />
<glyph unicode="g" horiz-adv-x="1279" vert-adv-y="2728" d="M113 509q0 305 213 463q186 139 498 139q182 0 410 -43v-166q-140 23 -201 29v-40l6 -173l4 -221q5 -245 5 -304q0 -235 -21 -352q-19 -103 -66 -182q-71 -122 -204 -185q-117 -56 -260 -56q-168 0 -356 84v218q182 -120 359 -120q255 0 318 211q22 76 22 211v10 q-103 -45 -223 -45q-244 0 -383 162q-121 140 -121 360zM324 521q0 -184 101 -280q87 -83 233 -83q90 0 182 31v34v127l-2 182l-4 218l-3 155v36h-13l-30 1q-239 0 -358 -124q-106 -109 -106 -297z" />
<glyph unicode="h" horiz-adv-x="1277" vert-adv-y="2728" d="M193 0v1705h207v-637q144 52 282 52q226 0 329 -107q87 -92 87 -293v-720h-209v695q0 145 -65 204q-57 52 -178 52q-115 0 -246 -55v-896h-207z" />
<glyph unicode="i" horiz-adv-x="598" vert-adv-y="2728" d="M186 1334v237h226v-237h-226zM195 0v1104h207v-1104h-207z" />
<glyph unicode="j" horiz-adv-x="596" vert-adv-y="2728" d="M-99 -403q187 100 243 234q36 79 47 201q10 106 10 322v750h209v-802q0 -376 -70 -530q-71 -153 -255 -259zM191 1336v235h227v-235h-227z" />
<glyph unicode="k" horiz-adv-x="1214" vert-adv-y="2728" d="M193 0v1705h207v-1071q264 221 497 470h253q-240 -249 -492 -464l-35 -31l31 -36q281 -320 537 -551l27 -22h-291q-190 176 -489 534l-38 45v-579h-207z" />
<glyph unicode="l" horiz-adv-x="607" vert-adv-y="2728" d="M200 0v1705h206v-1705h-206z" />
<glyph unicode="m" horiz-adv-x="1906" vert-adv-y="2728" d="M193 0v1046q252 74 467 74q172 0 301 -77q177 77 359 77q226 0 327 -115q80 -89 80 -285v-720h-206v697q0 144 -64 203q-54 51 -171 51q-107 0 -225 -46q20 -65 20 -189v-716h-209v697q0 147 -64 204q-58 50 -183 50q-109 0 -225 -37v-914h-207z" />
<glyph unicode="n" horiz-adv-x="1277" vert-adv-y="2728" d="M193 0v1046q244 74 473 74q242 0 347 -109q85 -90 85 -291v-720h-209v695q0 150 -66 206q-58 50 -191 50q-113 0 -232 -40v-911h-207z" />
<glyph unicode="o" horiz-adv-x="1286" vert-adv-y="2728" d="M118 538q0 289 162 448q141 138 369 138q257 0 397 -173q122 -150 122 -395q0 -290 -162 -448q-141 -138 -370 -138q-257 0 -396 172q-122 150 -122 396zM332 547q0 -208 91 -315q80 -93 220 -93q160 0 241 121q69 105 69 287q0 212 -91 319q-79 93 -219 93 q-160 0 -241 -121q-70 -105 -70 -291z" />
<glyph unicode="p" horiz-adv-x="1279" vert-adv-y="2728" d="M193 -568v1636q224 52 380 52q303 0 455 -161q133 -140 133 -384q0 -289 -181 -447q-159 -139 -412 -139q-86 0 -168 15v-572h-207zM400 175q85 -17 149 -17q204 0 308 120q90 104 90 284q0 196 -111 297q-97 88 -264 88q-79 0 -172 -20v-752z" />
<glyph unicode="q" horiz-adv-x="1279" vert-adv-y="2728" d="M118 527q0 303 194 459q170 134 463 134q142 0 311 -36v-1652h-207v584q-115 -32 -219 -32q-276 0 -418 163q-124 140 -124 380zM332 543q0 -201 109 -302q93 -88 258 -88q99 0 180 27v757q-62 12 -134 12q-212 0 -320 -120q-93 -103 -93 -286z" />
<glyph unicode="r" horiz-adv-x="868" vert-adv-y="2728" d="M193 0v1035q209 85 430 85q101 0 193 -29v-177q-87 31 -184 31q-118 0 -232 -45v-900h-207z" />
<glyph unicode="s" horiz-adv-x="936" vert-adv-y="2728" d="M132 34v209q122 -104 284 -104q101 0 157 43q49 38 49 98q0 77 -80 132q-26 18 -150 76q-154 75 -210 149q-50 66 -50 162q0 157 122 247q106 76 269 76q142 0 271 -61v-193q-121 91 -258 91q-95 0 -151 -42q-46 -37 -46 -94q0 -59 42 -96q36 -31 151 -84 q152 -71 212 -135q84 -83 84 -211q0 -158 -126 -249q-109 -80 -281 -80q-140 0 -289 66z" />
<glyph unicode="t" horiz-adv-x="761" vert-adv-y="2728" d="M61 919v154h184v293h193v-293h252v-154h-252v-578q0 -119 36 -156q32 -32 117 -32q32 0 77 8v-154q-66 -16 -145 -16q-172 0 -241 93q-30 39 -39 91q-7 45 -7 155v589h-175z" />
<glyph unicode="u" horiz-adv-x="1268" vert-adv-y="2728" d="M180 410v694h206v-679q0 -163 69 -222q60 -51 202 -51q99 0 212 26v926h207v-1070q-255 -47 -446 -47q-246 0 -350 97q-100 91 -100 326z" />
<glyph unicode="v" horiz-adv-x="1154" vert-adv-y="2728" d="M54 1104h226l4 -27q90 -382 245 -791l16 -41l21 -91l20 91l17 39q176 416 274 793l8 27h215l-13 -47q-156 -509 -405 -1018l-18 -39h-219l-15 39q-240 540 -376 1065z" />
<glyph unicode="w" horiz-adv-x="1893" vert-adv-y="2728" d="M61 1104h221l4 -27q55 -242 107 -422q65 -229 115 -369l10 -30l16 -102l15 102l303 848h200l280 -848l13 -102l14 102l10 28q58 148 131 373q57 178 118 420l7 27h207l-12 -47q-115 -433 -368 -1018l-16 -39h-218l-213 655q-34 96 -59 284q-27 -178 -67 -284l-243 -655 h-218l-16 39q-217 528 -341 1065z" />
<glyph unicode="x" horiz-adv-x="1164" vert-adv-y="2728" d="M54 0q152 259 389 549l19 24l-21 24l-35 46q-170 212 -319 461h247q118 -210 259 -404q146 200 257 404h228q-142 -239 -355 -507l-18 -24l15 -24l28 -31q242 -312 361 -518h-248q-117 213 -288 447q-172 -231 -291 -447h-228z" />
<glyph unicode="y" horiz-adv-x="1164" vert-adv-y="2728" d="M54 1104h226l4 -27q87 -370 245 -791l16 -41l23 -91l25 91l16 39q170 404 276 793l6 27h218l-13 -47q-150 -471 -356 -920l-95 -210q-103 -220 -204 -468l-9 -27h-207q34 88 64 161q66 156 143 325l24 56q-266 598 -402 1130z" />
<glyph unicode="z" horiz-adv-x="1111" vert-adv-y="2728" d="M102 65q0 94 63 195q50 69 106 128q131 143 150 161q219 237 267 291q25 27 76 87h-599v169h840q6 -46 6 -65q0 -86 -67 -175q-59 -78 -290 -320q-139 -143 -246 -263q-41 -49 -74 -98h668v-171h-895q0 4 -4 37q-1 15 -1 24z" />
<glyph unicode="{" horiz-adv-x="939" vert-adv-y="2728" d="M73 616v132q239 13 239 241q0 102 -15 236q-11 115 -11 244q0 228 136 354q119 110 311 110q10 0 54 -5v-134q-13 2 -30 2q-286 0 -286 -319q0 -121 9 -240q12 -153 12 -237q0 -250 -226 -318q226 -68 226 -318q0 -84 -12 -236q-9 -120 -9 -241q0 -319 286 -319h30v-134 q-26 -2 -54 -2q-221 0 -342 142q-105 123 -105 322q0 128 11 243q15 133 15 234q0 226 -239 243z" />
<glyph unicode="|" horiz-adv-x="822" vert-adv-y="2728" d="M323 -568v2191h178v-2191h-178z" />
<glyph unicode="}" horiz-adv-x="939" vert-adv-y="2728" d="M152 -432h32q287 0 287 319q0 92 -13 241q-8 120 -8 236q0 251 225 318q-225 67 -225 316q0 119 8 239q13 144 13 238q0 321 -293 321l-26 -2v134q44 5 57 5q221 0 342 -143q104 -123 104 -321q0 -110 -15 -244q-11 -148 -11 -236q0 -228 237 -241v-132 q-237 -17 -237 -243q0 -86 11 -234q15 -138 15 -243q0 -229 -137 -354q-118 -110 -309 -110q-31 0 -57 2v134z" />
<glyph unicode="~" vert-adv-y="2728" d="M161 623q151 93 295 93q79 0 253 -70q148 -63 222 -63q122 0 262 92l22 -172q-172 -93 -286 -93q-99 0 -261 65q-170 66 -225 66q-133 0 -260 -94z" />
<glyph unicode="&#xa0;" horiz-adv-x="455" vert-adv-y="2728" />
<glyph unicode="&#xa1;" horiz-adv-x="954" vert-adv-y="2728" d="M405 874v247h243v-247h-243zM414 -503v1162h223v-1162h-223z" />
<glyph unicode="&#xa2;" vert-adv-y="2728" d="M236 800q0 187 89 329q78 124 209 192q92 45 225 64v166h126v-163q122 -10 241 -65v-184q-114 74 -241 86v-813q137 9 254 93v-182q-113 -62 -254 -74v-176h-126v173q-265 24 -403 188q-120 142 -120 366zM451 817q0 -336 308 -401v803q-308 -66 -308 -402z" />
<glyph unicode="&#xa3;" vert-adv-y="2728" d="M98 680v152h282q-23 159 -23 287q0 257 170 404q148 128 378 128q194 0 366 -113v-224q-157 157 -351 157q-175 0 -265 -106q-80 -92 -80 -248q0 -111 23 -285h450v-152h-436q8 -78 8 -141q0 -233 -165 -357h884v-180h-1166v173q146 78 193 154q41 65 41 180q0 70 -6 151 l-3 20h-300z" />
<glyph unicode="&#xa4;" vert-adv-y="2728" d="M143 382l184 177q-75 106 -75 250q0 143 78 254l-182 180l111 113l184 -176q114 81 260 81q134 0 247 -68l167 161l115 -115l-163 -159q81 -117 81 -271q0 -157 -84 -260l168 -165l-108 -114l-169 171q-116 -78 -254 -78q-148 0 -265 82l-179 -177zM430 809 q0 -134 86 -217q76 -73 187 -73q134 0 208 94q62 76 64 196q0 135 -83 218q-74 75 -189 75q-138 0 -212 -96q-61 -79 -61 -197z" />
<glyph unicode="&#xa5;" vert-adv-y="2728" d="M-34 1623h256l14 -18q58 -89 205 -295q118 -162 212 -284l29 -37l32 39q120 144 225 280q142 185 218 297l13 18h241l-22 -32q-132 -185 -285 -379q-185 -234 -297 -360l-27 -33v-127h377v-114h-377v-172h377v-113h-377v-293h-214v293h-377v113h377v172h-377v114h377v127 l-25 31q-293 355 -550 736z" />
<glyph unicode="&#xa6;" horiz-adv-x="822" vert-adv-y="2728" d="M323 306h178v-874h-178v874zM323 748v875h178v-875h-178z" />
<glyph unicode="&#xa7;" horiz-adv-x="1316" vert-adv-y="2728" d="M139 677q0 110 43 197q38 74 130 174q-54 96 -54 193q0 199 153 314q132 100 335 100q162 0 325 -71v-200q-144 93 -308 93q-136 0 -216 -68q-69 -59 -69 -150q0 -101 103 -185q34 -27 121 -81l102 -62q238 -147 319 -265q71 -104 71 -254q0 -209 -177 -390 q43 -89 43 -181q0 -197 -159 -316q-136 -102 -342 -102q-155 0 -334 68v204q154 -92 328 -92q140 0 218 67q68 59 68 154q0 94 -80 174q-33 30 -115 86q-35 25 -107 70q-241 155 -325 274q-73 106 -73 249zM347 700q0 -99 76 -184q67 -74 223 -175l152 -100q59 -41 100 -76 q92 88 92 215q0 106 -69 191q-62 74 -202 163l-168 106q-51 35 -114 82q-90 -122 -90 -222z" />
<glyph unicode="&#xa8;" horiz-adv-x="1136" vert-adv-y="2728" d="M262 1345v217h209v-217h-209zM665 1345v217h209v-217h-209z" />
<glyph unicode="&#xa9;" horiz-adv-x="2073" vert-adv-y="2728" d="M132 811q0 401 299 669q257 232 606 232q400 0 669 -297q233 -257 233 -604q0 -398 -297 -666q-259 -232 -605 -232q-402 0 -672 297q-233 256 -233 601zM260 811q0 -349 256 -585q222 -204 521 -204q345 0 576 260q199 225 199 529q0 352 -256 588q-221 204 -519 204 q-345 0 -577 -261q-200 -226 -200 -531zM529 807q0 263 180 416q156 132 393 132q155 0 305 -64v-168q-134 80 -281 80q-200 0 -309 -117q-94 -103 -94 -269q0 -191 119 -292q106 -89 279 -89q153 0 286 80v-169q-146 -63 -311 -63q-276 0 -431 161q-136 140 -136 362z" />
<glyph unicode="&#xaa;" horiz-adv-x="947" vert-adv-y="2728" d="M100 916q0 172 130 251q114 68 371 92l22 2v32q0 116 -20 151q-31 54 -128 54q-153 0 -321 -118v165q180 108 360 108q191 0 250 -123q30 -63 30 -230v-612l-35 -4q-216 -31 -347 -31q-312 0 -312 263zM273 928q0 -134 157 -134q81 0 193 17v311q-206 -15 -282 -65 q-68 -44 -68 -129z" />
<glyph unicode="&#xab;" horiz-adv-x="1182" vert-adv-y="2728" d="M145 603l323 470h168l-267 -470l269 -471h-170zM564 603l271 470h165l-225 -470l230 -471h-170z" />
<glyph unicode="&#xac;" vert-adv-y="2728" d="M161 666v169h1054v-542h-264v373h-790z" />
<glyph unicode="&#xad;" horiz-adv-x="939" vert-adv-y="2728" d="M161 579v194h616v-194h-616z" />
<glyph unicode="&#xae;" horiz-adv-x="2073" vert-adv-y="2728" d="M132 811q0 401 299 669q257 232 606 232q400 0 669 -297q233 -257 233 -604q0 -398 -298 -666q-258 -232 -606 -232q-401 0 -670 297q-233 256 -233 601zM258 811q0 -349 257 -585q223 -204 522 -204q344 0 575 260q200 225 200 529q0 353 -256 589q-220 203 -519 203 q-345 0 -579 -261q-200 -226 -200 -531zM680 323v1017l23 2q214 9 266 9q421 0 421 -302q0 -215 -216 -288l18 -20l66 -79q174 -219 309 -341h-249l-19 20l-36 43q-134 155 -266 336l-11 15l-44 -2l-64 2h-20v-412h-178zM858 869h20q30 -2 69 -2q256 0 256 172 q0 175 -232 175q-59 0 -93 -2l-20 -2v-341z" />
<glyph unicode="&#xaf;" horiz-adv-x="1136" vert-adv-y="2728" d="M152 1389v123h833v-123h-833z" />
<glyph unicode="&#xb0;" horiz-adv-x="1025" vert-adv-y="2728" d="M161 1308q0 155 115 259q100 90 236 90q156 0 261 -115q91 -100 91 -234q0 -158 -116 -262q-101 -91 -236 -91q-157 0 -261 115q-90 101 -90 238zM309 1305q0 -97 66 -162q58 -56 137 -56q91 0 152 72q52 63 52 149q0 96 -68 161q-57 56 -136 56q-91 0 -151 -72 q-52 -63 -52 -148z" />
<glyph unicode="&#xb1;" vert-adv-y="2728" d="M184 9v166h1007v-166h-1007zM184 781v167h417v451h173v-451h417v-167h-417v-462h-173v462h-417z" />
<glyph unicode="&#xb2;" horiz-adv-x="943" vert-adv-y="2728" d="M93 694v147q171 94 313 202q219 170 219 328q0 99 -66 156q-57 50 -145 50q-139 0 -269 -136v169q137 115 306 115q168 0 265 -108q84 -92 84 -235q0 -230 -271 -425q-142 -98 -263 -150q103 28 168 28l410 4v-145h-751z" />
<glyph unicode="&#xb3;" horiz-adv-x="913" vert-adv-y="2728" d="M100 725v156q133 -87 274 -87q117 0 180 51q54 44 54 116q0 135 -184 173q-62 12 -168 12v127q168 3 258 56q79 45 79 118q0 68 -59 106q-51 33 -132 33q-140 0 -257 -97v147q135 89 298 89q159 0 247 -77q78 -66 78 -173q0 -193 -230 -245q127 -25 193 -103 q57 -68 57 -166q0 -148 -123 -232q-106 -72 -274 -72q-161 0 -291 68z" />
<glyph unicode="&#xb4;" horiz-adv-x="1136" vert-adv-y="2728" d="M297 1282l360 451l181 -19l-404 -454z" />
<glyph unicode="&#xb5;" horiz-adv-x="1229" vert-adv-y="2728" d="M59 916v50h28l131 -5l114 5h30v-650q0 -111 52 -158q49 -44 152 -44q122 0 224 64v547q0 131 -23 162q-21 29 -94 29h-21v50h32l126 -5l115 5h32v-656q0 -141 25 -188q21 -35 70 -35q47 0 72 21q7 4 42 46h41q-49 -202 -250 -202q-122 0 -167 173q-53 -54 -132 -94 q-102 -53 -198 -53q-130 0 -191 68v-64l63 -305q0 -139 -100 -139q-91 0 -91 139l54 305v743q0 130 -24 162q-22 29 -97 29h-15z" />
<glyph unicode="&#xb6;" horiz-adv-x="1514" vert-adv-y="2728" d="M130 1059q0 378 330 505q152 59 481 59h367v-2191h-180v2024h-187v-1452q0 -339 -136 -472q-125 -120 -321 -120q-51 0 -104 11v150q51 -11 95 -11q144 0 219 95q67 85 67 329v555q-69 -9 -117 -9q-251 0 -392 162q-122 141 -122 365z" />
<glyph unicode="&#xb7;" horiz-adv-x="455" vert-adv-y="2728" d="M95 677v271h265v-271h-265z" />
<glyph unicode="&#xb8;" horiz-adv-x="1136" vert-adv-y="2728" d="M357 -445q59 -30 119 -30q70 0 109 35q34 33 34 83q0 132 -234 148l183 227h112l-108 -148q206 -42 206 -215q0 -108 -92 -173q-80 -57 -199 -57q-65 0 -130 20v110z" />
<glyph unicode="&#xb9;" horiz-adv-x="757" vert-adv-y="2728" d="M80 1419v147l507 169v-1043h-169v839z" />
<glyph unicode="&#xba;" horiz-adv-x="1100" vert-adv-y="2728" d="M95 1143q0 252 141 390q123 120 321 120q222 0 343 -150q105 -131 105 -343q0 -250 -140 -387q-122 -120 -320 -120q-223 0 -344 148q-106 130 -106 342zM280 1153q0 -182 80 -275q70 -80 189 -80q139 0 210 104q61 93 61 251q0 182 -80 274q-70 80 -191 80 q-137 0 -208 -104q-61 -91 -61 -250z" />
<glyph unicode="&#xbb;" horiz-adv-x="1182" vert-adv-y="2728" d="M178 1073h171l269 -470l-269 -471h-167l225 471zM544 1073h170l323 -470l-323 -471h-168l268 471z" />
<glyph unicode="&#xbc;" horiz-adv-x="1991" vert-adv-y="2728" d="M80 1419v147l507 169v-1043h-169v839zM353 -75l1113 1812l152 -39l-1113 -1811zM1032 137q99 223 334 518q158 196 230 250q58 47 118 47q19 0 32 -2v-679h167v-134h-167v-228h-161v228h-553zM1264 269h321v286q0 101 39 209q-190 -223 -360 -495z" />
<glyph unicode="&#xbd;" horiz-adv-x="2152" vert-adv-y="2728" d="M80 1419v147l507 169v-1043h-169v839zM353 -75l1113 1812l152 -39l-1113 -1811zM1303 70q192 105 313 200q221 173 221 327q0 101 -65 158q-58 50 -148 50q-142 0 -266 -135v166q132 116 305 116q167 0 264 -106q83 -92 83 -237q0 -234 -271 -423q-112 -83 -263 -153 q100 30 168 30l410 2v-143h-751v148z" />
<glyph unicode="&#xbe;" horiz-adv-x="2132" vert-adv-y="2728" d="M100 725v159q131 -90 274 -90q117 0 180 51q54 44 54 116q0 138 -184 173q-74 14 -168 14v127q167 1 258 55q79 46 79 117q0 68 -59 107q-51 34 -132 34q-137 0 -257 -99v149q135 89 298 89q159 0 247 -76q78 -67 78 -174q0 -195 -230 -247q250 -47 250 -269 q0 -147 -123 -231q-107 -73 -274 -73q-155 0 -291 68zM491 -75l1114 1812l152 -39l-1114 -1811zM1173 137q94 218 332 518q152 190 230 250q60 47 118 47q21 0 32 -2v-679h167v-134h-167v-228h-161v228h-551zM1405 269h319v286q0 103 41 209q-203 -239 -360 -495z" />
<glyph unicode="&#xbf;" horiz-adv-x="1405" vert-adv-y="2728" d="M306 -125q0 159 105 270q45 53 113 105q15 13 59 44q59 43 77 59q155 117 155 226q0 37 -20 78h215q21 -64 21 -104q0 -91 -61 -178q-53 -74 -197 -180q-147 -110 -191 -174q-39 -57 -39 -132q0 -111 85 -173q76 -55 195 -55q186 0 354 137v-223q-188 -100 -387 -100 q-239 0 -369 121q-115 107 -115 279zM749 871v250h243v-250h-243z" />
<glyph unicode="&#xc0;" horiz-adv-x="1648" vert-adv-y="2728" d="M70 0l22 68q222 622 605 1500l26 55h249l26 -57q288 -707 549 -1491l26 -75h-249l-13 41q-56 182 -161 491l-11 34h-635l-13 -39q-111 -292 -176 -488l-13 -39h-232zM395 2191l202 50l455 -434l-150 -45zM575 744h502l-18 52q-79 231 -104 304q-47 143 -85 239l-32 86 l-33 -89l-67 -161q-3 -12 -15 -39q-17 -44 -28 -72q-6 -15 -57 -150q-13 -35 -29 -74q-10 -25 -14 -37z" />
<glyph unicode="&#xc1;" horiz-adv-x="1648" vert-adv-y="2728" d="M70 0l22 68q222 622 605 1500l26 55h249l26 -57q288 -707 549 -1491l26 -75h-249l-13 41q-56 182 -161 491l-11 34h-635l-13 -39q-111 -292 -176 -488l-13 -39h-232zM575 744h502l-18 52q-79 231 -104 304q-47 143 -85 239l-32 86l-33 -89l-67 -161q-3 -12 -15 -39 q-17 -44 -28 -72q-6 -15 -57 -150q-13 -35 -29 -74q-10 -25 -14 -37zM670 1807l454 434l191 -50l-504 -429z" />
<glyph unicode="&#xc2;" horiz-adv-x="1648" vert-adv-y="2728" d="M70 0l22 68q222 622 605 1500l26 55h249l26 -57q288 -707 549 -1491l26 -75h-249l-13 41q-56 182 -161 491l-11 34h-635l-13 -39q-111 -292 -176 -488l-13 -39h-232zM420 1766l379 471h130l377 -471l-154 -22l-297 341l-297 -341zM575 744h502l-18 52q-79 231 -104 304 q-47 143 -85 239l-32 86l-33 -89l-67 -161q-3 -12 -15 -39q-17 -44 -28 -72q-6 -15 -57 -150q-13 -35 -29 -74q-10 -25 -14 -37z" />
<glyph unicode="&#xc3;" horiz-adv-x="1648" vert-adv-y="2728" d="M70 0l22 68q222 622 605 1500l26 55h249l26 -57q288 -707 549 -1491l26 -75h-249l-13 41q-56 182 -161 491l-11 34h-635l-13 -39q-111 -292 -176 -488l-13 -39h-232zM408 1919q108 168 274 168q64 0 132 -25l138 -51q65 -24 127 -24q119 0 207 145l50 -127 q-104 -168 -270 -168q-71 0 -137 24l-139 53q-68 23 -124 23q-121 0 -205 -145zM575 744h502l-18 52q-79 231 -104 304q-47 143 -85 239l-32 86l-33 -89l-67 -161q-3 -12 -15 -39q-17 -44 -28 -72q-6 -15 -57 -150q-13 -35 -29 -74q-10 -25 -14 -37z" />
<glyph unicode="&#xc4;" horiz-adv-x="1648" vert-adv-y="2728" d="M70 0l22 68q222 622 605 1500l26 55h249l26 -57q288 -707 549 -1491l26 -75h-249l-13 41q-56 182 -161 491l-11 34h-635l-13 -39q-111 -292 -176 -488l-13 -39h-232zM480 1809v235h227v-235h-227zM575 744h502l-18 52q-79 231 -104 304q-47 143 -85 239l-32 86l-33 -89 l-67 -161q-3 -12 -15 -39q-17 -44 -28 -72q-6 -15 -57 -150q-13 -35 -29 -74q-10 -25 -14 -37zM1013 1809v235h230v-235h-230z" />
<glyph unicode="&#xc5;" horiz-adv-x="1648" vert-adv-y="2728" d="M70 0l22 68q222 622 605 1500l26 55h249l26 -57q288 -707 549 -1491l26 -75h-249l-13 41q-56 182 -161 491l-11 34h-635l-13 -39q-111 -292 -176 -488l-13 -39h-232zM573 1974q0 124 92 207q80 72 190 72q123 0 206 -92q72 -80 72 -187q0 -127 -92 -210q-79 -72 -186 -72 q-126 0 -209 92q-73 81 -73 190zM575 744h502l-18 52q-79 231 -104 304q-47 143 -85 239l-32 86l-33 -89l-67 -161q-3 -12 -15 -39q-17 -44 -28 -72q-6 -15 -57 -150q-13 -35 -29 -74q-10 -25 -14 -37zM696 1974q0 -76 53 -127q46 -44 106 -44q69 0 115 56q40 49 40 115 q0 75 -51 125q-45 43 -104 43q-71 0 -119 -56q-40 -48 -40 -112z" />
<glyph unicode="&#xc6;" horiz-adv-x="2141" vert-adv-y="2728" d="M63 0l22 68q124 347 301 782q116 287 304 718l26 53h1275v-185h-953l14 -39q0 -1 163 -417l16 -41h737v-189h-670l15 -43q128 -360 169 -484l11 -32h518v-189h-696l-13 41q-9 28 -117 363l-11 35h-724l-14 -39q-2 -5 -13 -37q-11 -29 -23 -63q-3 -5 -13 -34 q-6 -19 -11 -32l-70 -197l-13 -39h-230zM519 625h592l-15 48q-64 182 -130 370q-22 65 -58 159q-38 104 -44 123l-33 84l-36 -86q-78 -192 -130 -323q-9 -22 -70 -182q-4 -11 -34 -84q-13 -31 -20 -52z" />
<glyph unicode="&#xc7;" horiz-adv-x="1613" vert-adv-y="2728" d="M139 803q0 408 271 643q236 205 603 205q235 0 464 -101v-214q-208 121 -449 121q-323 0 -500 -195q-153 -171 -153 -448q0 -320 199 -493q173 -151 456 -151q238 0 447 116v-214q-185 -84 -427 -98l-83 -113q224 -45 224 -236q0 -119 -100 -189q-85 -61 -215 -61 q-66 0 -143 22v119q60 -32 129 -32q77 0 119 40q38 34 38 90q0 141 -254 161l161 199q-392 26 -603 275q-184 216 -184 554z" />
<glyph unicode="&#xc8;" horiz-adv-x="1305" vert-adv-y="2728" d="M211 2v1616h939v-186h-716v-495h690v-187h-690v-561h734v-187h-957zM236 2189l202 50l454 -434l-152 -43z" />
<glyph unicode="&#xc9;" horiz-adv-x="1305" vert-adv-y="2728" d="M211 2v1616h939v-186h-716v-495h690v-187h-690v-561h734v-187h-957zM556 1805l455 434l191 -48l-505 -429z" />
<glyph unicode="&#xca;" horiz-adv-x="1305" vert-adv-y="2728" d="M211 2v1616h939v-186h-716v-495h690v-187h-690v-561h734v-187h-957zM256 1764l380 473h130l377 -471l-155 -22l-298 341l-295 -341z" />
<glyph unicode="&#xcb;" horiz-adv-x="1305" vert-adv-y="2728" d="M211 2v1616h939v-186h-716v-495h690v-187h-690v-561h734v-187h-957zM313 1809v235h230v-235h-230zM849 1809v235h230v-235h-230z" />
<glyph unicode="&#xcc;" horiz-adv-x="650" vert-adv-y="2728" d="M-78 2191l202 50l455 -434l-149 -45zM215 0v1623h223v-1623h-223z" />
<glyph unicode="&#xcd;" horiz-adv-x="652" vert-adv-y="2728" d="M130 1807l455 434l193 -50l-507 -429zM214 0v1623h223v-1623h-223z" />
<glyph unicode="&#xce;" horiz-adv-x="652" vert-adv-y="2728" d="M-32 1770l312 462h106l311 -462l-139 -22l-228 323l-235 -323zM215 0v1623h223v-1623h-223z" />
<glyph unicode="&#xcf;" horiz-adv-x="650" vert-adv-y="2728" d="M-11 1814v225h221v-225h-221zM214 0v1623h223v-1623h-223zM441 1814v225h221v-225h-221z" />
<glyph unicode="&#xd0;" horiz-adv-x="1815" vert-adv-y="2728" d="M-9 764v150h300v702l45 2q225 16 380 16q463 0 696 -182q266 -209 266 -618q0 -430 -288 -652q-251 -191 -707 -191q-134 0 -286 7q-12 1 -32 2q-42 3 -74 4v760h-300zM514 189q84 -7 193 -7q362 0 546 154q189 165 189 484q0 293 -167 452q-175 173 -536 173 q-93 0 -225 -9v-522h377v-150h-377v-575z" />
<glyph unicode="&#xd1;" horiz-adv-x="1780" vert-adv-y="2728" d="M211 0v1623h215q70 0 108 -55l719 -1118q60 -95 133 -296q-26 178 -26 317v1152h208v-1623h-217q-71 0 -104 54l-721 1121q-65 104 -134 294q28 -178 28 -317v-1152h-209zM475 1919q103 168 270 168q64 0 132 -25l139 -51q67 -24 130 -24q122 0 204 145l52 -127 q-108 -168 -273 -168q-71 0 -136 24l-136 53q-69 23 -126 23q-122 0 -206 -145z" />
<glyph unicode="&#xd2;" horiz-adv-x="1854" vert-adv-y="2728" d="M139 794q0 417 247 655q215 206 553 206q381 0 593 -256q184 -224 184 -581q0 -417 -246 -652q-215 -203 -554 -203q-379 0 -592 256q-185 222 -185 575zM375 809q0 -328 168 -505q145 -154 387 -154q274 0 423 197q129 174 129 458q0 332 -164 508q-144 153 -383 153 q-279 0 -429 -199q-131 -174 -131 -458zM486 2191l203 48l454 -432l-150 -45z" />
<glyph unicode="&#xd3;" horiz-adv-x="1854" vert-adv-y="2728" d="M139 794q0 417 247 655q215 206 553 206q381 0 593 -256q184 -224 184 -581q0 -417 -246 -652q-215 -203 -554 -203q-379 0 -592 256q-185 222 -185 575zM375 809q0 -328 168 -505q145 -154 387 -154q274 0 423 197q129 174 129 458q0 332 -164 508q-144 153 -383 153 q-279 0 -429 -199q-131 -174 -131 -458zM750 1807l455 432l191 -48l-507 -429z" />
<glyph unicode="&#xd4;" horiz-adv-x="1854" vert-adv-y="2728" d="M139 794q0 417 247 655q215 206 553 206q381 0 593 -256q184 -224 184 -581q0 -417 -246 -652q-215 -203 -554 -203q-379 0 -592 256q-185 222 -185 575zM375 809q0 -328 168 -505q145 -154 387 -154q274 0 423 197q129 174 129 458q0 332 -164 508q-144 153 -383 153 q-279 0 -429 -199q-131 -174 -131 -458zM509 1766l380 471h128l379 -471l-155 -22l-297 341l-298 -341z" />
<glyph unicode="&#xd5;" horiz-adv-x="1854" vert-adv-y="2728" d="M139 794q0 417 247 655q215 206 553 206q381 0 593 -256q184 -224 184 -581q0 -417 -246 -652q-215 -203 -554 -203q-379 0 -592 256q-185 222 -185 575zM375 809q0 -328 168 -505q145 -154 387 -154q274 0 423 197q129 174 129 458q0 332 -164 508q-144 153 -383 153 q-279 0 -429 -199q-131 -174 -131 -458zM507 1919q103 168 270 168q64 0 132 -25l139 -53q62 -22 130 -22q118 0 204 145l50 -127q-101 -170 -270 -170q-65 0 -136 26l-137 50q-64 26 -125 26q-119 0 -207 -145z" />
<glyph unicode="&#xd6;" horiz-adv-x="1854" vert-adv-y="2728" d="M139 794q0 417 247 655q215 206 553 206q381 0 593 -256q184 -224 184 -581q0 -417 -246 -652q-215 -203 -554 -203q-379 0 -592 256q-185 222 -185 575zM375 809q0 -328 168 -505q145 -154 387 -154q274 0 423 197q129 174 129 458q0 332 -164 508q-144 153 -383 153 q-279 0 -429 -199q-131 -174 -131 -458zM566 1809v235h230v-235h-230zM1102 1809v235h228v-235h-228z" />
<glyph unicode="&#xd7;" vert-adv-y="2728" d="M189 291l379 379l-379 380l125 125l380 -379l379 379l114 -114l-380 -379l380 -380l-126 -124l-379 379l-380 -379z" />
<glyph unicode="&#xd8;" horiz-adv-x="1871" vert-adv-y="2728" d="M125 50l185 198q-162 217 -162 548q0 415 246 651q215 206 552 206q294 0 500 -164l161 177l117 -98l-173 -184q173 -230 173 -566q0 -417 -245 -652q-212 -203 -551 -203q-308 0 -516 176l-169 -185zM386 811q0 -222 80 -384l839 903q-144 134 -364 134 q-275 0 -425 -199q-130 -172 -130 -454zM555 302q98 -89 190 -121q81 -29 194 -29q272 0 420 197q128 170 128 451q0 239 -88 409z" />
<glyph unicode="&#xd9;" horiz-adv-x="1672" vert-adv-y="2728" d="M193 601v1022h223v-994q0 -243 85 -343q106 -125 337 -125q253 0 357 150q66 97 66 318v994h219v-1022q0 -289 -130 -442q-166 -187 -514 -187q-351 0 -513 187q-130 148 -130 442zM402 2191l201 50l456 -434l-152 -45z" />
<glyph unicode="&#xda;" horiz-adv-x="1672" vert-adv-y="2728" d="M193 601v1022h223v-994q0 -243 85 -343q106 -125 337 -125q253 0 357 150q66 97 66 318v994h219v-1022q0 -289 -130 -442q-166 -187 -514 -187q-351 0 -513 187q-130 148 -130 442zM696 1807l454 434l191 -50l-504 -427z" />
<glyph unicode="&#xdb;" horiz-adv-x="1672" vert-adv-y="2728" d="M193 601v1022h223v-994q0 -243 85 -343q106 -125 337 -125q253 0 357 150q66 97 66 318v994h219v-1022q0 -289 -130 -442q-166 -187 -514 -187q-351 0 -513 187q-130 148 -130 442zM410 1766l377 471h129l379 -471l-154 -22l-297 341l-299 -341z" />
<glyph unicode="&#xdc;" horiz-adv-x="1672" vert-adv-y="2728" d="M193 601v1022h223v-994q0 -243 85 -343q106 -125 337 -125q253 0 357 150q66 97 66 318v994h219v-1022q0 -289 -130 -442q-166 -187 -514 -187q-351 0 -513 187q-130 148 -130 442zM466 1809v235h230v-235h-230zM1002 1809v235h228v-235h-228z" />
<glyph unicode="&#xdd;" horiz-adv-x="1536" vert-adv-y="2728" d="M26 1623h266l11 -22q94 -175 211 -373q87 -148 216 -358l33 -47l31 49q94 136 232 353q78 127 121 196q64 107 104 180l13 22h249l-23 -39q-263 -447 -595 -916l-30 -41v-627h-223v627l-28 39q-298 438 -563 911zM603 1807l455 434l191 -50l-505 -429z" />
<glyph unicode="&#xde;" horiz-adv-x="1373" vert-adv-y="2728" d="M211 0v1623h223v-293h20q92 6 178 6q290 0 449 -115q180 -134 180 -384q0 -273 -209 -410q-161 -106 -461 -106q-91 0 -157 4v-325h-223zM430 514q112 -7 163 -7q438 0 438 318q0 321 -408 321q-55 0 -193 -7v-625z" />
<glyph unicode="&#xdf;" horiz-adv-x="1320" vert-adv-y="2728" d="M193 0v1114q0 292 96 418q128 177 405 177q213 0 331 -111q103 -96 103 -252q0 -103 -47 -179q-41 -68 -152 -174q-93 -86 -93 -154q0 -46 32 -80q29 -30 134 -102q132 -90 180 -152q61 -82 61 -193q0 -159 -124 -253q-108 -81 -271 -81q-119 0 -234 54v191 q103 -79 223 -79q93 0 149 48q49 40 49 102q0 58 -42 102q-35 40 -141 113q-113 82 -156 126q-71 73 -71 182q0 119 104 226l101 103q91 91 91 193q0 103 -73 161q-64 51 -165 51q-175 0 -245 -146q-38 -84 -38 -286v-1119h-207z" />
<glyph unicode="&#xe0;" horiz-adv-x="1088" vert-adv-y="2728" d="M123 282q0 195 151 287q133 80 420 106l25 2v37q0 132 -20 170q-37 61 -146 61q-176 0 -369 -134v191q208 120 410 120q217 0 286 -141q35 -71 35 -261v-698l-39 -4q-246 -36 -395 -36q-358 0 -358 300zM236 1714l187 19l360 -451l-144 -22zM321 295q0 -154 180 -154 q82 0 218 22v355q-233 -18 -321 -74q-77 -50 -77 -149z" />
<glyph unicode="&#xe1;" horiz-adv-x="1088" vert-adv-y="2728" d="M123 282q0 195 151 287q133 80 420 106l25 2v37q0 132 -20 170q-37 61 -146 61q-176 0 -369 -134v191q208 120 410 120q217 0 286 -141q35 -71 35 -261v-698l-39 -4q-246 -36 -395 -36q-358 0 -358 300zM321 295q0 -154 180 -154q82 0 218 22v355q-233 -18 -321 -74 q-77 -50 -77 -149zM433 1282l358 451l182 -19l-405 -454z" />
<glyph unicode="&#xe2;" horiz-adv-x="1088" vert-adv-y="2728" d="M123 282q0 195 151 287q133 80 420 106l25 2v37q0 132 -20 170q-37 61 -146 61q-176 0 -369 -134v191q208 120 410 120q217 0 286 -141q35 -71 35 -261v-698l-39 -4q-246 -36 -395 -36q-358 0 -358 300zM193 1271l314 430h107l314 -428l-128 -22l-247 300l-246 -300z M321 295q0 -154 180 -154q82 0 218 22v355q-233 -18 -321 -74q-77 -50 -77 -149z" />
<glyph unicode="&#xe3;" horiz-adv-x="1088" vert-adv-y="2728" d="M123 282q0 195 151 287q133 80 420 106l25 2v37q0 132 -20 170q-37 61 -146 61q-176 0 -369 -134v191q208 120 410 120q217 0 286 -141q35 -71 35 -261v-698l-39 -4q-246 -36 -395 -36q-358 0 -358 300zM180 1412q88 152 223 152q51 0 111 -23l114 -48q55 -20 107 -20 q101 0 171 132l40 -116q-87 -153 -222 -153q-59 0 -115 23l-113 47q-51 21 -104 21q-102 0 -171 -132zM321 295q0 -154 180 -154q82 0 218 22v355q-233 -18 -321 -74q-77 -50 -77 -149z" />
<glyph unicode="&#xe4;" horiz-adv-x="1088" vert-adv-y="2728" d="M123 282q0 195 151 287q133 80 420 106l25 2v37q0 132 -20 170q-37 61 -146 61q-176 0 -369 -134v191q208 120 410 120q217 0 286 -141q35 -71 35 -261v-698l-39 -4q-246 -36 -395 -36q-358 0 -358 300zM266 1345v217h209v-217h-209zM321 295q0 -154 180 -154 q82 0 218 22v355q-233 -18 -321 -74q-77 -50 -77 -149zM669 1345v217h209v-217h-209z" />
<glyph unicode="&#xe5;" horiz-adv-x="1088" vert-adv-y="2728" d="M123 282q0 195 151 287q133 80 420 106l25 2v37q0 132 -20 170q-37 61 -146 61q-176 0 -369 -134v191q208 120 410 120q217 0 286 -141q35 -71 35 -261v-698l-39 -4q-246 -36 -395 -36q-358 0 -358 300zM321 295q0 -154 180 -154q82 0 218 22v355q-233 -18 -321 -74 q-77 -50 -77 -149zM330 1484q0 113 83 189q72 65 169 65q114 0 189 -83q66 -73 66 -171q0 -112 -84 -186q-73 -66 -171 -66q-111 0 -187 83q-65 73 -65 169zM443 1484q0 -67 45 -111q40 -39 94 -39q63 0 105 50q37 43 37 100q0 68 -47 113q-41 39 -95 39q-63 0 -104 -50 q-35 -43 -35 -102z" />
<glyph unicode="&#xe6;" horiz-adv-x="1752" vert-adv-y="2728" d="M111 281q0 193 151 286q132 81 415 109l25 2q2 34 2 86q0 104 -47 145q-41 37 -131 37q-167 0 -354 -135v189q204 120 405 120q200 0 273 -144q141 146 354 146q267 0 388 -193q76 -113 76 -342v-50h-780q-2 -15 -2 -34q0 -177 111 -271q96 -82 257 -82q198 0 360 128 v-189q-168 -115 -384 -115q-166 0 -330 85q-191 -77 -407 -77q-382 0 -382 299zM309 296q0 -149 199 -149q130 0 271 46q-79 142 -84 324q-220 -16 -309 -74q-77 -51 -77 -147zM907 694h555q-25 267 -258 267q-244 0 -297 -267z" />
<glyph unicode="&#xe7;" horiz-adv-x="1045" vert-adv-y="2728" d="M118 532q0 279 177 443q155 143 391 143q142 0 275 -64v-188q-117 83 -256 83q-184 0 -284 -122q-87 -105 -87 -280q0 -198 110 -305q97 -92 259 -92q135 0 272 91v-189q-124 -66 -260 -75l-79 -107q206 -42 206 -215q0 -108 -92 -173q-80 -57 -198 -57q-66 0 -130 20 v110q59 -30 117 -30q70 0 109 35q35 33 35 83q0 131 -233 147l152 189q-245 25 -372 190q-112 142 -112 363z" />
<glyph unicode="&#xe8;" horiz-adv-x="1197" vert-adv-y="2728" d="M118 529q0 285 163 450q142 143 359 143q262 0 385 -193q77 -113 77 -342v-50h-781v-34q0 -177 110 -271q96 -82 255 -82q196 0 362 128v-189q-168 -115 -386 -115q-275 0 -419 167q-125 145 -125 388zM231 1712l186 21l360 -453l-143 -22zM341 694h555q-25 267 -258 267 q-125 0 -205 -79q-70 -69 -92 -188z" />
<glyph unicode="&#xe9;" horiz-adv-x="1197" vert-adv-y="2728" d="M118 529q0 285 163 450q142 143 359 143q262 0 385 -193q77 -113 77 -342v-50h-781v-34q0 -177 110 -271q96 -82 255 -82q196 0 362 128v-189q-168 -115 -386 -115q-275 0 -419 167q-125 145 -125 388zM341 694h555q-25 267 -258 267q-125 0 -205 -79q-70 -69 -92 -188z M513 1280l359 453l182 -21l-405 -452z" />
<glyph unicode="&#xea;" horiz-adv-x="1197" vert-adv-y="2728" d="M118 529q0 285 163 450q142 143 359 143q262 0 385 -193q77 -113 77 -342v-50h-781v-34q0 -177 110 -271q96 -82 255 -82q196 0 362 128v-189q-168 -115 -386 -115q-275 0 -419 167q-125 145 -125 388zM291 1271l313 430h108l313 -430l-128 -20l-248 297l-245 -297z M341 694h555q-25 267 -258 267q-125 0 -205 -79q-70 -69 -92 -188z" />
<glyph unicode="&#xeb;" horiz-adv-x="1197" vert-adv-y="2728" d="M118 529q0 285 163 450q142 143 359 143q262 0 385 -193q77 -113 77 -342v-50h-781v-34q0 -177 110 -271q96 -82 255 -82q196 0 362 128v-189q-168 -115 -386 -115q-275 0 -419 167q-125 145 -125 388zM341 694h555q-25 267 -258 267q-125 0 -205 -79q-70 -69 -92 -188z M356 1343v217h209v-217h-209zM759 1343v217h209v-217h-209z" />
<glyph unicode="&#xec;" horiz-adv-x="596" vert-adv-y="2728" d="M-95 1712l186 21l360 -451l-145 -24zM194 0v1104h209v-1104h-209z" />
<glyph unicode="&#xed;" horiz-adv-x="593" vert-adv-y="2728" d="M154 1282l360 451l181 -21l-404 -452zM193 0v1104h207v-1104h-207z" />
<glyph unicode="&#xee;" horiz-adv-x="593" vert-adv-y="2728" d="M4 1271l252 430h87l252 -430l-113 -20l-187 293l-188 -293zM191 0v1104h209v-1104h-209z" />
<glyph unicode="&#xef;" horiz-adv-x="590" vert-adv-y="2728" d="M26 1351v204h197v-204h-197zM192 0v1104h209v-1104h-209zM369 1351v204h199v-204h-199z" />
<glyph unicode="&#xf0;" horiz-adv-x="1299" vert-adv-y="2728" d="M118 543q0 283 163 443q143 138 366 138q130 0 262 -65q-62 230 -186 362l-232 -187l-74 91l208 168q-97 55 -219 55q-46 0 -106 -10v159q62 12 123 12q195 0 350 -97l197 163l76 -91l-180 -146q96 -96 159 -218q143 -290 143 -661q0 -354 -155 -532q-134 -157 -368 -157 q-258 0 -402 175q-125 154 -125 398zM334 541q0 -199 94 -307q83 -93 219 -93q306 0 306 482q0 102 -15 204q-4 32 -7 52q-136 74 -261 74q-170 0 -259 -123q-77 -107 -77 -289z" />
<glyph unicode="&#xf1;" horiz-adv-x="1277" vert-adv-y="2728" d="M193 0v1046q244 74 473 74q242 0 347 -109q85 -90 85 -291v-720h-209v695q0 150 -66 206q-58 50 -191 50q-113 0 -232 -40v-911h-207zM261 1409q89 153 225 153q55 0 109 -21l114 -48q60 -22 107 -22q100 0 171 132l43 -114q-90 -155 -225 -155q-55 0 -111 25l-117 45 q-51 21 -102 21q-101 0 -171 -130z" />
<glyph unicode="&#xf2;" horiz-adv-x="1286" vert-adv-y="2728" d="M118 538q0 289 162 448q141 138 369 138q257 0 397 -173q122 -150 122 -395q0 -290 -162 -448q-141 -138 -370 -138q-257 0 -396 172q-122 150 -122 396zM231 1712l186 21l360 -451l-143 -22zM332 547q0 -208 91 -315q80 -93 220 -93q160 0 241 121q69 105 69 287 q0 212 -91 319q-79 93 -219 93q-160 0 -241 -121q-70 -105 -70 -291z" />
<glyph unicode="&#xf3;" horiz-adv-x="1286" vert-adv-y="2728" d="M118 538q0 289 162 448q141 138 369 138q257 0 397 -173q122 -150 122 -395q0 -290 -162 -448q-141 -138 -370 -138q-257 0 -396 172q-122 150 -122 396zM332 547q0 -208 91 -315q80 -93 220 -93q160 0 241 121q69 105 69 287q0 212 -91 319q-79 93 -219 93 q-160 0 -241 -121q-70 -105 -70 -291zM504 1282l360 451l182 -21l-403 -452z" />
<glyph unicode="&#xf4;" horiz-adv-x="1286" vert-adv-y="2728" d="M118 538q0 289 162 448q141 138 369 138q257 0 397 -173q122 -150 122 -395q0 -290 -162 -448q-141 -138 -370 -138q-257 0 -396 172q-122 150 -122 396zM295 1271l313 430h108l315 -430l-129 -21l-246 301l-248 -301zM332 547q0 -208 91 -315q80 -93 220 -93 q160 0 241 121q69 105 69 287q0 212 -91 319q-79 93 -219 93q-160 0 -241 -121q-70 -105 -70 -291z" />
<glyph unicode="&#xf5;" horiz-adv-x="1286" vert-adv-y="2728" d="M118 538q0 289 162 448q141 138 369 138q257 0 397 -173q122 -150 122 -395q0 -290 -162 -448q-141 -138 -370 -138q-257 0 -396 172q-122 150 -122 396zM286 1412q90 152 222 152q51 0 112 -23l114 -48q54 -20 106 -20q101 0 171 130l43 -114q-88 -153 -225 -153 q-59 0 -113 23l-114 47q-51 21 -102 21q-99 0 -174 -132zM332 547q0 -208 91 -315q80 -93 220 -93q160 0 241 121q69 105 69 287q0 212 -91 319q-79 93 -219 93q-160 0 -241 -121q-70 -105 -70 -291z" />
<glyph unicode="&#xf6;" horiz-adv-x="1286" vert-adv-y="2728" d="M118 538q0 289 162 448q141 138 369 138q257 0 397 -173q122 -150 122 -395q0 -290 -162 -448q-141 -138 -370 -138q-257 0 -396 172q-122 150 -122 396zM332 547q0 -208 91 -315q80 -93 220 -93q160 0 241 121q69 105 69 287q0 212 -91 319q-79 93 -219 93 q-160 0 -241 -121q-70 -105 -70 -291zM356 1345v217h209v-217h-209zM759 1345v217h209v-217h-209z" />
<glyph unicode="&#xf7;" vert-adv-y="2728" d="M161 593v168h1054v-168h-1054zM577 204v234h226v-234h-226zM577 916v234h226v-234h-226z" />
<glyph unicode="&#xf8;" horiz-adv-x="1305" vert-adv-y="2728" d="M93 30l132 143q-97 148 -97 368q0 287 163 446q142 137 371 137q186 0 334 -111l118 130l86 -75l-127 -137q105 -150 105 -377q0 -288 -162 -446q-141 -138 -370 -138q-196 0 -344 119l-120 -132zM336 553q0 -123 35 -219l499 538q-87 89 -217 89q-161 0 -245 -122 q-72 -105 -72 -286zM430 230q86 -95 223 -95q162 0 244 121q72 106 72 289q0 127 -37 225z" />
<glyph unicode="&#xf9;" horiz-adv-x="1268" vert-adv-y="2728" d="M180 410v694h206v-679q0 -163 69 -222q60 -51 202 -51q99 0 212 26v926h207v-1070q-255 -47 -446 -47q-246 0 -350 97q-100 91 -100 326zM228 1714l186 19l360 -451l-144 -22z" />
<glyph unicode="&#xfa;" horiz-adv-x="1268" vert-adv-y="2728" d="M180 410v694h206v-679q0 -163 69 -222q60 -51 202 -51q99 0 212 26v926h207v-1070q-255 -47 -446 -47q-246 0 -350 97q-100 91 -100 326zM507 1282l357 451l184 -19l-404 -454z" />
<glyph unicode="&#xfb;" horiz-adv-x="1268" vert-adv-y="2728" d="M180 410v694h206v-679q0 -163 69 -222q60 -51 202 -51q99 0 212 26v926h207v-1070q-255 -47 -446 -47q-246 0 -350 97q-100 91 -100 326zM284 1271l317 430h106l314 -428l-130 -22l-245 300l-248 -300z" />
<glyph unicode="&#xfc;" horiz-adv-x="1268" vert-adv-y="2728" d="M180 410v694h206v-679q0 -163 69 -222q60 -51 202 -51q99 0 212 26v926h207v-1070q-255 -47 -446 -47q-246 0 -350 97q-100 91 -100 326zM346 1345v217h211v-217h-211zM750 1345v217h209v-217h-209z" />
<glyph unicode="&#xfd;" horiz-adv-x="1164" vert-adv-y="2728" d="M54 1104h226l4 -27q87 -370 245 -791l16 -41l23 -91l25 91l16 39q170 404 276 793l6 27h218l-13 -47q-150 -471 -356 -920l-95 -210q-103 -220 -204 -468l-9 -27h-207q34 88 64 161q66 156 143 325l24 56q-266 598 -402 1130zM447 1282l360 451l182 -21l-405 -452z" />
<glyph unicode="&#xfe;" horiz-adv-x="1286" vert-adv-y="2728" d="M200 -568v2273h206v-605q90 20 191 20q290 0 440 -162q131 -142 131 -383q0 -289 -181 -447q-159 -139 -412 -139q-87 0 -169 15v-572h-206zM406 175q86 -17 150 -17q202 0 306 120q91 104 91 284q0 195 -109 299q-96 90 -256 90q-80 0 -182 -26v-750z" />
<glyph unicode="&#xff;" horiz-adv-x="1164" vert-adv-y="2728" d="M54 1104h226l4 -27q87 -370 245 -791l16 -41l23 -91l25 91l16 39q170 404 276 793l6 27h218l-13 -47q-150 -471 -356 -920l-95 -210q-103 -220 -204 -468l-9 -27h-207q34 88 64 161q66 156 143 325l24 56q-266 598 -402 1130zM297 1343v219h209v-219h-209zM700 1343v219 h209v-219h-209z" />
<glyph unicode="&#x152;" horiz-adv-x="2494" vert-adv-y="2728" d="M132 794q0 406 237 642q217 219 549 219q117 0 253 -34h1173v-187h-875q178 -200 216 -497h636v-187h-632q-16 -347 -220 -561h895v-187h-1175q-151 -39 -280 -39q-378 0 -592 256q-185 222 -185 575zM369 809q0 -328 167 -505q146 -154 385 -154q274 0 420 197 q125 174 125 462q0 331 -163 505q-142 152 -379 152q-276 0 -426 -198q-129 -175 -129 -459z" />
<glyph unicode="&#x153;" horiz-adv-x="1995" vert-adv-y="2728" d="M109 539q0 288 162 447q141 138 367 138q262 0 408 -210q149 210 401 210q265 0 388 -193q76 -122 76 -342v-50h-781v-36q0 -176 110 -270q96 -82 255 -82q192 0 362 127v-189q-166 -111 -386 -111q-292 0 -428 195q-91 -116 -192 -163q-90 -40 -217 -40q-262 0 -403 171 q-122 150 -122 398zM323 548q0 -209 92 -316q80 -93 219 -93q161 0 242 121q70 105 70 288q0 211 -92 318q-80 93 -220 93q-160 0 -241 -121q-70 -105 -70 -290zM1150 694h555q-24 269 -258 269q-247 0 -297 -269z" />
<glyph unicode="&#x178;" horiz-adv-x="1536" vert-adv-y="2728" d="M26 1623h266l11 -22q94 -175 211 -373q87 -148 216 -358l33 -47l31 49q94 136 232 353q78 127 121 196q64 107 104 180l13 22h249l-23 -39q-263 -447 -595 -916l-30 -41v-627h-223v627l-28 39q-298 438 -563 911zM396 1809v235h228v-235h-228zM932 1809v235h228v-235 h-228z" />
<glyph unicode="&#x2c6;" horiz-adv-x="1136" vert-adv-y="2728" d="M202 1271l314 430h107l314 -428l-128 -22l-247 300l-247 -300z" />
<glyph unicode="&#x2dc;" horiz-adv-x="1136" vert-adv-y="2728" d="M184 1412q87 152 223 152q50 0 111 -23l114 -48q55 -20 107 -20q101 0 170 132l41 -116q-86 -153 -223 -153q-58 0 -113 23l-113 47q-51 21 -106 21q-101 0 -170 -132z" />
<glyph unicode="&#x2013;" horiz-adv-x="1136" vert-adv-y="2728" d="M0 584v186h1137v-186h-1137z" />
<glyph unicode="&#x2014;" horiz-adv-x="2273" vert-adv-y="2728" d="M0 584v186h2273v-186h-2273z" />
<glyph unicode="&#x2018;" horiz-adv-x="631" vert-adv-y="2728" d="M130 1089l254 616h153l-188 -616h-219z" />
<glyph unicode="&#x2019;" horiz-adv-x="650" vert-adv-y="2728" d="M113 1089l189 616h219l-256 -616h-152z" />
<glyph unicode="&#x201a;" horiz-adv-x="648" vert-adv-y="2728" d="M95 -300l189 616h219l-255 -616h-153z" />
<glyph unicode="&#x201c;" horiz-adv-x="977" vert-adv-y="2728" d="M130 1089l254 616h148l-188 -616h-214zM480 1089l255 616h147l-186 -616h-216z" />
<glyph unicode="&#x201d;" horiz-adv-x="995" vert-adv-y="2728" d="M113 1089l189 616h213l-254 -616h-148zM463 1089l189 616h214l-254 -616h-149z" />
<glyph unicode="&#x201e;" horiz-adv-x="993" vert-adv-y="2728" d="M95 -300l189 616h213l-254 -616h-148zM445 -300l189 616h214l-254 -616h-149z" />
<glyph unicode="&#x2022;" vert-adv-y="2728" d="M466 462v457h445v-457h-445z" />
<glyph unicode="&#x2026;" horiz-adv-x="2273" vert-adv-y="2728" d="M250 0v262h256v-262h-256zM1007 0v262h256v-262h-256zM1764 0v262h256v-262h-256z" />
<glyph unicode="&#x2039;" horiz-adv-x="813" vert-adv-y="2728" d="M145 603l323 470h168l-265 -470l269 -471h-172z" />
<glyph unicode="&#x203a;" horiz-adv-x="813" vert-adv-y="2728" d="M173 1073h176l319 -470l-319 -471h-171l266 471z" />
<glyph unicode="&#x20ac;" vert-adv-y="2728" d="M-121 625v132h245q-2 20 -2 48q0 46 7 104v18h-250v130h275q50 181 150 301q245 293 695 293q225 0 462 -98v-208q-212 121 -454 121q-252 0 -418 -121q-144 -105 -203 -288h929l-30 -130h-929q-6 -79 -6 -116q0 -32 2 -54h898l-30 -132h-850q56 -235 242 -356 q163 -106 399 -106q239 0 450 119v-207q-220 -101 -480 -101q-364 0 -598 200q-203 173 -248 451h-256z" />
<glyph unicode="&#x2122;" horiz-adv-x="2207" vert-adv-y="2728" d="M46 1482v139h804v-139h-317v-803h-167v803h-320zM959 679l2 46q12 225 26 406q16 231 39 455l2 37h143q68 0 90 -30q20 -27 78 -168q40 -97 97 -245q77 -192 98 -353q18 145 99 353q97 245 126 311q41 99 64 116q18 16 75 16h134l5 -37l20 -225q11 -138 28 -359 q8 -160 15 -277l2 -46h-163l-2 25q0 51 -4 112q-5 109 -7 161q-2 59 -7 127l-14 226l-2 56q0 21 6 132h-2q-22 -93 -102 -288q-57 -136 -191 -512l-13 -39h-144l-13 39l-55 152q-14 41 -38 107q-77 202 -99 253q-77 191 -100 288h-4q6 -109 6 -132q0 -38 -2 -56l-13 -226 q-15 -215 -18 -400l-2 -25h-160z" />
<glyph unicode="&#xe000;" horiz-adv-x="1105" vert-adv-y="2209" d="M0 1105h1105v-1105h-1105v1105z" />
<glyph unicode="&#xfb01;" horiz-adv-x="1398" vert-adv-y="2728" d="M986 1334v237h226v-237h-226zM995 0v1104h207v-1104h-207zM82 919v154h176v46q0 193 36 304q32 99 104 169q126 123 314 123q53 0 107 -12v-166q-52 9 -89 9q-137 0 -203 -95q-63 -88 -63 -328v-50h280v-154h-280v-919h-206v919h-176z" />
<glyph unicode="&#xfb02;" horiz-adv-x="1407" vert-adv-y="2728" d="M1000 0v1705h206v-1705h-206zM82 919v154h176v46q0 193 36 304q32 99 104 169q126 123 314 123q53 0 107 -12v-166q-52 9 -89 9q-137 0 -203 -95q-63 -88 -63 -328v-50h280v-154h-280v-919h-206v919h-176z" />
<glyph unicode="&#xfb03;" horiz-adv-x="2198" vert-adv-y="2728" d="M1787 1334v237h226v-237h-226zM1796 0v1104h207v-1104h-207zM882 919v154h176v46q0 193 36 304q32 99 104 169q126 123 314 123q53 0 107 -12v-166q-52 9 -89 9q-137 0 -203 -95q-63 -88 -63 -328v-50h280v-154h-280v-919h-206v919h-176zM82 919v154h176v46q0 193 36 304 q32 99 104 169q126 123 314 123q53 0 107 -12v-166q-52 9 -89 9q-137 0 -203 -95q-63 -88 -63 -328v-50h280v-154h-280v-919h-206v919h-176z" />
<glyph unicode="&#xfb04;" horiz-adv-x="2207" vert-adv-y="2728" d="M1801 0v1705h206v-1705h-206zM882 919v154h176v46q0 193 36 304q32 99 104 169q126 123 314 123q53 0 107 -12v-166q-52 9 -89 9q-137 0 -203 -95q-63 -88 -63 -328v-50h280v-154h-280v-919h-206v919h-176zM82 919v154h176v46q0 193 36 304q32 99 104 169 q126 123 314 123q53 0 107 -12v-166q-52 9 -89 9q-137 0 -203 -95q-63 -88 -63 -328v-50h280v-154h-280v-919h-206v919h-176z" />
</font>
</defs>
</svg>
