<?xml version="1.0" standalone="no"?>
<!DOCTYPE svg PUBLIC "-//W3C//DTD SVG 1.1//EN" "http://www.w3.org/Graphics/SVG/1.1/DTD/svg11.dtd" >
<svg xmlns="http://www.w3.org/2000/svg">
<metadata>
This is a custom SVG webfont generated by Font Squirrel.
Copyright   : Copyright Dutch Type Library 2003 All rights reserved
Designer    : Erhard Kaiser
Foundry URL : httpwwwdutchtypelibrarycom
</metadata>
<defs>
<font id="DTLProkyonTMediumRegular" horiz-adv-x="1377" vert-adv-y="2048" >
<font-face units-per-em="2048" ascent="1536" descent="-512" />
<missing-glyph horiz-adv-x="455" />
<glyph unicode=" " horiz-adv-x="455" vert-adv-y="0" />
<glyph unicode="!" horiz-adv-x="965" vert-adv-y="2728" d="M380 0v310h302v-310h-302zM386 495v1128h289v-1128h-289z" />
<glyph unicode="&#x22;" horiz-adv-x="1050" vert-adv-y="2728" d="M202 1705h252l-36 -651h-179zM595 1705h253l-37 -651h-177z" />
<glyph unicode="#" horiz-adv-x="1830" vert-adv-y="2728" d="M107 477l38 163h373l84 367h-372l38 166h372l105 454h201l-105 -454h322l108 454h198l-105 -454h359l-39 -166h-356l-87 -367h360l-39 -163h-358l-113 -486h-200l114 486h-326l-111 -486h-199l111 486h-373zM718 640h325l85 367h-325z" />
<glyph unicode="$" vert-adv-y="2728" d="M159 82v304q212 -156 466 -163v482q-200 75 -303 154q-163 133 -163 328q0 193 141 315q122 106 325 132v184h145v-175q227 -9 414 -96v-274q-187 127 -414 136v-468l55 -23q201 -81 294 -170q118 -115 118 -307q0 -385 -467 -454v-189h-145v180q-245 3 -466 104z M443 1209q0 -72 47 -121q42 -45 135 -86v393q-182 -41 -182 -186zM770 236q182 42 182 194q0 142 -182 218v-412z" />
<glyph unicode="%" horiz-adv-x="2241" vert-adv-y="2728" d="M121 1259q0 231 123 356q107 110 282 110q199 0 308 -142q94 -123 94 -324q0 -229 -122 -355q-108 -110 -280 -110q-199 0 -310 143q-95 124 -95 322zM335 1259q0 -147 58 -227q50 -70 133 -70q94 0 144 89q44 78 44 208q0 150 -57 228q-49 69 -131 69q-95 0 -146 -90 q-45 -78 -45 -207zM473 -75l1114 1814l182 -47l-1114 -1813zM1314 354q0 230 125 356q106 110 279 110q199 0 309 -142q94 -123 94 -324q0 -229 -122 -354q-108 -109 -281 -109q-198 0 -308 142q-96 124 -96 321zM1528 354q0 -146 58 -226q50 -70 132 -70q96 0 146 89 q43 78 43 207q0 150 -57 229q-48 69 -132 69q-94 0 -145 -89q-45 -79 -45 -209z" />
<glyph unicode="&#x26;" horiz-adv-x="1893" vert-adv-y="2728" d="M91 477q0 326 375 447q-136 17 -214 114q-68 84 -68 199q0 195 168 313q145 101 364 101q166 0 351 -74v-247q-157 91 -317 91q-136 0 -215 -59q-69 -51 -69 -130q0 -170 282 -193v-228q-364 -61 -364 -304q0 -144 134 -225q117 -71 300 -71q260 0 403 122 q125 107 125 279q0 88 -43 182q-105 -46 -154 -101q-43 -49 -71 -136h-271q72 270 330 402q198 107 724 212l37 7v-232l-32 -7q-124 -21 -318 -73q59 -131 59 -268q0 -297 -254 -476q-221 -154 -550 -154q-343 0 -541 159q-171 137 -171 350z" />
<glyph unicode="'" horiz-adv-x="657" vert-adv-y="2728" d="M202 1705h252l-36 -651h-179z" />
<glyph unicode="(" horiz-adv-x="997" vert-adv-y="2728" d="M123 692q0 386 147 704q127 280 387 552l228 -65q-284 -291 -408 -601q-108 -271 -108 -590q0 -367 142 -672q125 -268 374 -523l-228 -65q-296 313 -423 635q-111 284 -111 625z" />
<glyph unicode=")" horiz-adv-x="1000" vert-adv-y="2728" d="M113 -503q285 293 409 602q107 271 107 593q0 365 -142 669q-124 267 -374 522l228 65q297 -312 423 -635q111 -282 111 -621q0 -390 -146 -708q-127 -278 -388 -552z" />
<glyph unicode="*" horiz-adv-x="1379" vert-adv-y="2728" d="M175 939l176 100q91 51 224 65l110 12l-110 14q-134 13 -226 65l-174 100l103 178l173 -100q94 -55 172 -164l64 -89l-43 103q-57 125 -57 229v201h204v-201q0 -103 -54 -229l-45 -103l65 89q84 114 171 164l174 100l102 -178l-174 -100q-85 -51 -225 -65l-109 -14 l109 -12q135 -14 225 -65l174 -100l-102 -178l-174 100q-88 53 -171 161l-65 91l45 -102q54 -126 54 -230v-199h-204v199q0 98 57 230l43 102l-64 -91q-86 -112 -172 -161l-173 -100z" />
<glyph unicode="+" vert-adv-y="2728" d="M161 575v202h421v455h214v-455h419v-202h-419v-471h-214v471h-421z" />
<glyph unicode="," horiz-adv-x="698" vert-adv-y="2728" d="M73 -325l207 655h298l-282 -655h-223z" />
<glyph unicode="-" horiz-adv-x="930" vert-adv-y="2728" d="M137 559v235h657v-235h-657z" />
<glyph unicode="." horiz-adv-x="698" vert-adv-y="2728" d="M186 0v334h326v-334h-326z" />
<glyph unicode="/" horiz-adv-x="1386" vert-adv-y="2728" d="M125 -529l903 2477l234 -29l-905 -2487z" />
<glyph unicode="0" vert-adv-y="2728" d="M104 809q0 425 175 646q152 193 409 193q274 0 426 -212q161 -224 161 -627q0 -404 -161 -629q-154 -212 -426 -212q-268 0 -423 212q-161 225 -161 629zM395 809q0 -607 293 -607q153 0 230 178q67 154 67 429q0 315 -87 471q-75 136 -210 136q-152 0 -227 -177 q-66 -156 -66 -430z" />
<glyph unicode="1" vert-adv-y="2728" d="M87 1146v245l777 257v-1648h-282v1306z" />
<glyph unicode="2" vert-adv-y="2728" d="M134 2v223q256 186 448 362q314 288 314 523q0 145 -93 226q-80 71 -209 71q-196 0 -375 -164v275q203 137 429 137q263 0 413 -159q130 -138 130 -357q0 -227 -170 -447q-150 -194 -475 -444l697 8v-254h-1109z" />
<glyph unicode="3" vert-adv-y="2728" d="M166 50v277q194 -118 392 -118q169 0 261 75q80 67 80 174q0 138 -133 209q-117 62 -315 62h-46v226q228 7 344 84q102 68 102 180q0 100 -77 155q-69 49 -180 49q-174 0 -336 -119v258q206 95 411 95q237 0 367 -120q113 -105 113 -273q0 -294 -308 -387 q360 -97 360 -430q0 -233 -190 -366q-164 -115 -422 -115q-215 0 -423 84z" />
<glyph unicode="4" vert-adv-y="2728" d="M8 416q171 379 479 788q200 262 318 352q104 80 213 80q20 0 52 -7v-987h239v-226h-239v-418h-269v418h-793zM396 642h405v367q0 141 41 305q-264 -336 -446 -672z" />
<glyph unicode="5" vert-adv-y="2728" d="M173 50v277q192 -118 378 -118q172 0 267 91q83 79 83 204q0 362 -655 362h-5l84 755h835v-243h-596l-29 -287q342 -37 511 -202q146 -144 146 -375q0 -265 -193 -416q-168 -132 -431 -132q-186 0 -395 84z" />
<glyph unicode="6" vert-adv-y="2728" d="M130 534q0 619 761 1141l262 -102q-377 -234 -605 -566q89 21 176 21q253 0 397 -160q126 -140 126 -359q0 -263 -180 -417q-157 -133 -395 -133q-272 0 -417 173q-125 151 -125 402zM410 523q0 -170 83 -260q73 -79 194 -79q137 0 210 95q63 82 63 219q0 313 -316 313 q-60 0 -132 -15q-6 -1 -18 -6q-12 -3 -21 -5q-13 -6 -18 -8q-45 -129 -45 -254z" />
<glyph unicode="7" vert-adv-y="2728" d="M141 1373v245h1128q-81 -327 -311 -829q-200 -434 -417 -787l-20 -34l-282 43l15 23q208 331 401 739q175 374 250 600h-764z" />
<glyph unicode="8" vert-adv-y="2728" d="M123 400q0 283 350 437q-298 126 -298 395q0 201 167 322q144 105 358 105q246 0 393 -134q128 -118 128 -293q0 -277 -300 -398q326 -139 326 -424q0 -217 -176 -343q-153 -110 -386 -110q-269 0 -425 138q-137 121 -137 305zM416 418q0 -115 86 -183q74 -60 185 -60 q126 0 201 78q65 67 65 165q0 139 -138 235q-42 27 -85 45q-2 1 -27 11q-14 5 -18 7q-269 -100 -269 -298zM464 1223q0 -140 130 -218q19 -15 63 -35q15 -4 23 -9q14 -4 18 -6q232 81 232 266q0 108 -73 172q-64 56 -161 56q-108 0 -174 -73q-58 -62 -58 -153z" />
<glyph unicode="9" vert-adv-y="2728" d="M132 1109q0 264 180 417q155 133 395 133q272 0 416 -173q126 -151 126 -402q0 -618 -763 -1138l-261 102q378 234 605 566q-85 -21 -175 -21q-253 0 -397 160q-126 138 -126 356zM418 1122q0 -313 317 -313q74 0 132 16q23 5 38 11q14 4 19 4q45 123 45 258 q0 167 -84 258q-72 80 -193 80q-136 0 -209 -95q-65 -83 -65 -219z" />
<glyph unicode=":" horiz-adv-x="904" vert-adv-y="2728" d="M332 0v316h306v-316h-306zM332 664v314h306v-314h-306z" />
<glyph unicode=";" horiz-adv-x="900" vert-adv-y="2728" d="M145 -325l207 655h298l-281 -655h-224zM341 662v316h304v-316h-304z" />
<glyph unicode="&#x3c;" vert-adv-y="2728" d="M145 577v198l1055 470v-232l-782 -336l782 -332v-238z" />
<glyph unicode="=" vert-adv-y="2728" d="M161 380v208h1054v-208h-1054zM161 767v209h1054v-209h-1054z" />
<glyph unicode="&#x3e;" vert-adv-y="2728" d="M178 107v229l783 337l-783 332v240l1054 -470v-198z" />
<glyph unicode="?" horiz-adv-x="1400" vert-adv-y="2728" d="M284 1271v276q191 96 402 96q255 0 393 -123q119 -108 119 -287q0 -159 -102 -272q-77 -80 -248 -197q-95 -68 -128 -111q-28 -39 -28 -88q0 -34 20 -70h-282q-20 52 -20 104q0 94 62 170q55 70 192 167q149 107 191 163q36 48 36 112q0 93 -77 144q-67 45 -175 45 q-189 0 -355 -129zM445 0v310h302v-310h-302z" />
<glyph unicode="@" horiz-adv-x="2223" vert-adv-y="2728" d="M230 471q0 456 309 731q269 239 668 239q384 0 608 -222q194 -192 194 -488q0 -354 -271 -572q-235 -189 -579 -189q-267 0 -410 135q-124 118 -124 313q0 295 225 481q196 162 473 162q134 0 267 -41l-274 -854q251 30 396 205q124 150 124 360q0 275 -199 431 q-172 136 -442 136q-381 0 -607 -259q-195 -224 -195 -564q0 -364 237 -564q208 -174 543 -174q321 0 530 165v-152q-238 -145 -551 -145q-446 0 -701 267q-221 233 -221 599zM866 427q0 -226 225 -254l219 693q-26 4 -52 4q-175 0 -291 -145q-101 -127 -101 -298z" />
<glyph unicode="A" horiz-adv-x="1696" vert-adv-y="2728" d="M57 0l22 68q137 379 305 782q134 328 306 718l26 55h316l25 -57q142 -348 286 -729q148 -402 269 -762l24 -75h-322l-12 41q-61 192 -143 436l-11 35h-605l-16 -39q-124 -348 -152 -432l-14 -41h-304zM632 744h434l-16 54l-63 189q-16 42 -52 150q-7 19 -43 124 q-15 47 -31 93q-7 -21 -19 -52q-7 -20 -8 -24l-55 -141q-10 -20 -33 -87l-51 -134q-22 -57 -40 -111z" />
<glyph unicode="B" horiz-adv-x="1438" vert-adv-y="2728" d="M191 4v1610l52 4q233 14 405 14q309 0 462 -98q152 -102 152 -306q0 -283 -280 -378q334 -87 334 -393q0 -268 -247 -388q-153 -76 -485 -76q-118 0 -345 9zM473 225h43q91 -4 132 -4q373 0 373 241q0 254 -389 254q-84 0 -159 -4v-487zM473 944l41 -3h63q202 0 292 52 q100 60 100 190q0 226 -314 226q-70 0 -182 -9v-456z" />
<glyph unicode="C" horiz-adv-x="1643" vert-adv-y="2728" d="M128 789q0 408 289 651q251 211 629 211q239 0 475 -101v-264q-211 115 -443 115q-315 0 -489 -180q-149 -157 -149 -410q0 -289 192 -447q167 -138 439 -138q233 0 450 113v-266q-227 -101 -512 -101q-371 0 -599 189q-282 230 -282 628z" />
<glyph unicode="D" horiz-adv-x="1748" vert-adv-y="2728" d="M191 4v1612l50 2q244 16 393 16q478 0 718 -182q269 -208 269 -616q0 -432 -293 -654q-255 -191 -727 -191q-171 0 -410 13zM480 248q133 -7 190 -7q320 0 480 141q166 147 166 438q0 566 -620 566q-43 0 -167 -4l-49 -4v-1130z" />
<glyph unicode="E" horiz-adv-x="1312" vert-adv-y="2728" d="M191 2v1616h978v-245h-689v-410h666v-247h-666v-466h709v-248h-998z" />
<glyph unicode="F" horiz-adv-x="1282" vert-adv-y="2728" d="M191 0v1621h987v-248h-698v-436h668v-248h-668v-689h-289z" />
<glyph unicode="G" horiz-adv-x="1743" vert-adv-y="2728" d="M125 783q0 417 290 657q252 208 644 208q249 0 505 -100v-268q-234 121 -484 121q-319 0 -492 -184q-151 -160 -151 -421q0 -285 187 -435q163 -131 438 -131q115 0 224 22v312h-338v243h620v-761q-275 -68 -529 -68q-460 0 -702 242q-212 210 -212 563z" />
<glyph unicode="H" horiz-adv-x="1732" vert-adv-y="2728" d="M191 0v1623h289v-660h773v660h289v-1623h-289v716h-773v-716h-289z" />
<glyph unicode="I" horiz-adv-x="670" vert-adv-y="2728" d="M191 0v1623h289v-1623h-289z" />
<glyph unicode="J" horiz-adv-x="679" vert-adv-y="2728" d="M-186 -360q240 109 317 250q45 86 60 215q13 114 13 345v1175h291v-1271q0 -398 -93 -566q-51 -90 -128 -153q-69 -57 -195 -122z" />
<glyph unicode="K" horiz-adv-x="1516" vert-adv-y="2728" d="M191 0v1623h289v-744l32 35q193 210 352 402q96 117 243 307h334q-246 -319 -584 -691l-61 -68l40 -53q228 -300 421 -522q119 -142 259 -289h-390q-286 324 -608 775l-38 54v-829h-289z" />
<glyph unicode="L" horiz-adv-x="1259" vert-adv-y="2728" d="M191 2v1621h289v-1367h709v-254h-998z" />
<glyph unicode="M" horiz-adv-x="2241" vert-adv-y="2728" d="M150 0l4 80q17 361 30 549q16 221 22 308q10 151 19 236l34 389l4 61h312q72 0 101 -29q24 -27 60 -117q142 -350 286 -781q91 -276 108 -473q16 207 107 473q65 201 152 430q31 84 68 187q35 91 38 103q47 117 69 155q32 52 120 52h292l6 -61l34 -389q9 -92 30 -396 q27 -401 41 -697l4 -80h-286l-2 41q-23 555 -50 1013q-9 153 -9 228q0 87 4 157q-42 -172 -89 -296l-88 -238q-26 -68 -59 -174q-137 -391 -221 -666l-22 -65h-303l-22 65q-83 260 -141 435q-59 177 -80 231q-35 106 -59 174l-89 238q-49 133 -87 296q3 -70 3 -161 q0 -71 -9 -224q-30 -481 -50 -1013l-2 -41h-280z" />
<glyph unicode="N" horiz-adv-x="1798" vert-adv-y="2728" d="M191 0v1623h262q84 0 126 -66l630 -966q74 -116 169 -348q-42 197 -42 366v1014h271v-1623h-262q-84 0 -126 65l-627 967q-71 106 -171 348q41 -193 41 -367v-1013h-271z" />
<glyph unicode="O" horiz-adv-x="1878" vert-adv-y="2728" d="M128 794q0 419 253 656q221 205 569 205q393 0 611 -256q189 -224 189 -581q0 -417 -252 -652q-219 -203 -570 -203q-392 0 -611 255q-189 222 -189 576zM440 809q0 -297 152 -457q132 -139 349 -139q250 0 383 180q117 156 117 414q0 301 -150 460q-130 138 -347 138 q-251 0 -387 -180q-117 -157 -117 -416z" />
<glyph unicode="P" horiz-adv-x="1384" vert-adv-y="2728" d="M191 0v1612l34 4q240 16 402 16q322 0 486 -118q189 -135 189 -393q0 -269 -211 -412q-170 -108 -486 -108q-62 0 -91 2h-34v-603h-289zM475 841q132 -4 134 -4q393 0 393 277t-352 277q-82 0 -132 -5l-43 -2v-543z" />
<glyph unicode="Q" horiz-adv-x="1878" vert-adv-y="2728" d="M128 794q0 418 253 655q221 206 569 206q393 0 611 -256q189 -224 189 -581q0 -363 -187 -585q-164 -194 -449 -252q221 -126 575 -126q33 0 55 2l-148 -249q-278 0 -482 93q-193 88 -350 276q-322 56 -490 296q-146 209 -146 521zM440 809q0 -297 151 -457 q132 -139 350 -139q250 0 383 180q117 156 117 414q0 301 -150 460q-130 138 -347 138q-251 0 -387 -180q-117 -157 -117 -416z" />
<glyph unicode="R" horiz-adv-x="1555" vert-adv-y="2728" d="M191 0v1614l34 2q169 13 402 13q313 0 469 -104q193 -129 193 -377q0 -221 -150 -350q-61 -52 -166 -91q287 -388 580 -698l13 -13h-384q-15 16 -86 102q-134 165 -209 268q-129 169 -187 252l-21 28l-86 -3q-5 0 -118 5v-648h-284zM475 877h37q41 -2 108 -2 q369 0 369 262q0 260 -345 260q-53 0 -169 -6v-514z" />
<glyph unicode="S" horiz-adv-x="1307" vert-adv-y="2728" d="M130 68v312q216 -167 451 -167q141 0 220 63q68 56 68 141q0 99 -89 171q-44 39 -207 119q-230 111 -317 198q-111 115 -111 284q0 221 180 349q156 113 393 113q212 0 419 -96v-282q-192 139 -399 139q-140 0 -222 -61q-71 -52 -71 -132q0 -97 100 -171q40 -26 199 -104 q215 -104 308 -200q119 -122 119 -312q0 -227 -182 -357q-159 -112 -406 -112q-231 0 -453 105z" />
<glyph unicode="T" horiz-adv-x="1477" vert-adv-y="2728" d="M57 1378v243h1364v-243h-537v-1378h-291v1378h-536z" />
<glyph unicode="U" horiz-adv-x="1682" vert-adv-y="2728" d="M173 634v989h289v-961q0 -239 80 -330q95 -114 299 -114q225 0 319 136q61 86 61 308v961h289v-989q0 -318 -135 -471q-170 -191 -534 -191t-534 191q-134 153 -134 471z" />
<glyph unicode="V" horiz-adv-x="1622" vert-adv-y="2728" d="M37 1623h316l13 -39q81 -262 161 -493q113 -335 165 -475l82 -234l24 -70l28 70l93 234q215 555 356 968l14 39h303l-24 -66q-122 -347 -297 -782q-130 -327 -302 -718l-23 -57h-313l-24 59q-147 357 -282 727q-133 361 -265 761z" />
<glyph unicode="W" horiz-adv-x="2479" vert-adv-y="2728" d="M37 1623h306l10 -39q48 -209 129 -518q81 -308 136 -509l48 -175l14 -43l14 -159l15 159l14 45q38 125 159 538q38 128 96 343q70 258 84 319l9 39h345l9 -39q127 -553 258 -1027l47 -175l12 -43l15 -159l19 159l13 45q43 128 100 321q82 270 143 493q87 303 107 386 l12 39h293l-19 -66q-133 -473 -231 -782q-73 -234 -236 -718l-21 -57h-380l-15 61q-40 140 -212 785q-60 230 -77 344q-14 104 -16 251h-5q-2 -96 -13 -180q-10 -98 -39 -226q-31 -125 -77 -280q-115 -394 -207 -694l-18 -61h-377l-19 59q-66 205 -179 579q-92 310 -153 546 l-93 363z" />
<glyph unicode="X" horiz-adv-x="1600" vert-adv-y="2728" d="M46 0q212 349 463 703l73 102l25 36l-25 36q-65 85 -131 182q-145 208 -210 307q-80 125 -137 216l-24 41h352l28 -46q158 -273 354 -561l52 75q170 251 305 486l27 46h325l-27 -41q-224 -362 -477 -705l-26 -36l26 -36l74 -102q283 -404 462 -703h-357l-29 50 q-87 151 -208 343q-32 53 -172 269q-228 -340 -382 -612l-27 -50h-334z" />
<glyph unicode="Y" horiz-adv-x="1607" vert-adv-y="2728" d="M18 1623h341l11 -20q108 -197 205 -358q125 -205 193 -310l27 -46l34 48q81 115 204 308q125 195 219 358l11 20h325l-25 -41q-269 -451 -602 -914l-30 -41v-627h-288v627l-30 41q-170 250 -287 436q-125 198 -282 473z" />
<glyph unicode="Z" horiz-adv-x="1475" vert-adv-y="2728" d="M70 107q0 72 21 119q39 88 430 547l161 186q144 169 259 319q41 51 66 91h-859v249h1230q6 -45 6 -97q0 -107 -75 -211q-65 -93 -216 -269l-164 -195q-38 -43 -104 -123q-70 -84 -77 -91q-82 -96 -160 -194q-102 -129 -136 -182h932v-252h-1306q-8 76 -8 103z" />
<glyph unicode="[" horiz-adv-x="936" vert-adv-y="2728" d="M184 -548v2478h582v-186h-348v-2106h348v-186h-582z" />
<glyph unicode="\" horiz-adv-x="1386" vert-adv-y="2728" d="M125 1919l235 29l902 -2477l-232 -39z" />
<glyph unicode="]" horiz-adv-x="936" vert-adv-y="2728" d="M171 -362h347v2106h-347v186h582v-2478h-582v186z" />
<glyph unicode="^" vert-adv-y="2728" d="M123 823l453 800h231l448 -800h-236l-332 609l-323 -609h-241z" />
<glyph unicode="_" horiz-adv-x="1136" vert-adv-y="2728" d="M0 -303h1137v-163h-1137v163z" />
<glyph unicode="`" horiz-adv-x="1136" vert-adv-y="2728" d="M264 1709l248 26l359 -451l-193 -34z" />
<glyph unicode="a" horiz-adv-x="1118" vert-adv-y="2728" d="M115 295q0 227 191 319q126 61 382 89l24 2v40q0 96 -40 131q-36 30 -120 30q-176 0 -371 -122v232q212 113 431 113q238 0 310 -141q37 -70 37 -263v-703q-286 -40 -466 -40q-209 0 -299 86q-79 75 -79 227zM363 314q0 -125 148 -125q82 0 205 17v296q-208 -16 -285 -64 q-68 -41 -68 -124z" />
<glyph unicode="b" horiz-adv-x="1309" vert-adv-y="2728" d="M178 20v1685h270v-622q130 46 246 46q252 0 390 -168q121 -145 121 -379q0 -308 -205 -461q-179 -134 -495 -134q-135 0 -327 33zM448 211q58 -9 105 -9q377 0 377 361q0 175 -93 264q-81 79 -220 79q-80 0 -169 -29v-666z" />
<glyph unicode="c" horiz-adv-x="1073" vert-adv-y="2728" d="M104 538q0 281 190 447q164 144 415 144q147 0 293 -63v-232q-118 74 -254 74q-180 0 -277 -107q-87 -93 -87 -244q0 -174 110 -270q95 -82 252 -82q135 0 270 79v-230q-155 -76 -330 -76q-285 0 -444 172q-138 149 -138 388z" />
<glyph unicode="d" horiz-adv-x="1312" vert-adv-y="2728" d="M104 538q0 288 181 448q157 138 408 138q98 0 177 -20v601h264v-1673q-228 -48 -416 -48q-614 0 -614 554zM384 549q0 -177 97 -267q85 -79 233 -79q75 0 156 22v661q-71 22 -147 22q-171 0 -261 -107q-78 -93 -78 -252z" />
<glyph unicode="e" horiz-adv-x="1227" vert-adv-y="2728" d="M107 539q0 285 167 450q147 143 373 143q159 0 277 -76q102 -68 153 -180q52 -120 52 -369v-4h-762q18 -305 343 -305q201 0 362 114v-225q-187 -113 -402 -113q-284 0 -434 169q-129 148 -129 396zM385 696h483q-18 232 -225 232q-110 0 -179 -70q-61 -60 -79 -162z" />
<glyph unicode="f" horiz-adv-x="804" vert-adv-y="2728" d="M61 882v200h175v37q0 194 39 305q35 99 111 170q135 120 343 120q55 0 115 -11v-216q-49 8 -85 8q-132 0 -195 -84q-57 -71 -57 -292v-37h272v-200h-272v-882h-271v882h-175z" />
<glyph unicode="g" horiz-adv-x="1314" vert-adv-y="2728" d="M95 512q0 307 225 468q196 140 528 140q177 0 432 -43v-216q-99 17 -200 30v-39l4 -162l5 -206q4 -224 4 -275q0 -237 -23 -358q-20 -107 -70 -187q-151 -246 -506 -246q-189 0 -371 75v264q186 -109 367 -109q190 0 269 101q69 89 69 277v8q-105 -47 -225 -47 q-247 0 -387 163q-121 141 -121 362zM369 527q0 -161 88 -247q78 -75 207 -75q81 0 164 31v29l-2 112q0 91 -3 161l-3 193l-2 137v32h-13q-11 1 -25 1q-213 0 -319 -110q-92 -95 -92 -264z" />
<glyph unicode="h" horiz-adv-x="1297" vert-adv-y="2728" d="M178 0v1705h270v-628q138 50 277 50q226 0 327 -105q85 -86 85 -291v-731h-271v688q0 126 -56 176q-49 44 -153 44q-96 0 -209 -47v-861h-270z" />
<glyph unicode="i" horiz-adv-x="620" vert-adv-y="2728" d="M171 1316v289h280v-289h-280zM175 0v1107h271v-1107h-271z" />
<glyph unicode="j" horiz-adv-x="613" vert-adv-y="2728" d="M-144 -373q197 102 258 234q60 132 60 523v725h271v-807q0 -380 -75 -530q-75 -154 -269 -259zM171 1316v291h280v-291h-280z" />
<glyph unicode="k" horiz-adv-x="1262" vert-adv-y="2728" d="M178 0v1705h270v-1069l33 30q213 200 415 441h312q-213 -247 -441 -464l-34 -31l30 -37q132 -167 240 -289q111 -129 241 -264l25 -22h-348q-172 182 -438 534l-35 45v-579h-270z" />
<glyph unicode="l" horiz-adv-x="624" vert-adv-y="2728" d="M178 0v1705h270v-1705h-270z" />
<glyph unicode="m" horiz-adv-x="1925" vert-adv-y="2728" d="M173 0v1052q251 75 482 75q181 0 314 -77q187 77 373 77q229 0 336 -111q87 -92 87 -300v-716h-271v697q0 122 -52 171q-47 43 -146 43q-95 0 -195 -41q18 -57 18 -158v-712h-271v695q0 124 -55 173q-49 43 -156 43q-91 0 -193 -34v-877h-271z" />
<glyph unicode="n" horiz-adv-x="1293" vert-adv-y="2728" d="M173 0v1052q261 75 502 75q262 0 368 -114q89 -95 89 -301v-712h-271v693q0 125 -56 173q-51 42 -163 42q-96 0 -198 -31v-877h-271z" />
<glyph unicode="o" horiz-adv-x="1305" vert-adv-y="2728" d="M107 541q0 291 168 451q147 140 384 140q268 0 412 -173q127 -151 127 -397q0 -292 -169 -452q-147 -140 -384 -140q-266 0 -412 173q-126 152 -126 398zM380 553q0 -187 81 -283q71 -85 192 -85q137 0 209 109q63 96 63 259q0 186 -81 283q-71 83 -191 83 q-139 0 -211 -109q-62 -94 -62 -257z" />
<glyph unicode="p" horiz-adv-x="1305" vert-adv-y="2728" d="M173 -568v1645q241 50 425 50q310 0 466 -162q137 -142 137 -390q0 -286 -182 -446q-159 -140 -412 -140q-84 0 -163 15v-572h-271zM444 223q77 -15 132 -15q179 0 270 105q80 92 80 251q0 174 -98 262q-85 78 -234 78q-68 0 -150 -18v-663z" />
<glyph unicode="q" horiz-adv-x="1305" vert-adv-y="2728" d="M104 538q0 298 205 453q178 136 479 136q158 0 344 -34v-1661h-271v584q-108 -32 -214 -32q-265 0 -414 170q-129 148 -129 384zM382 545q0 -342 323 -342q81 0 156 25v670q-58 8 -104 8q-193 0 -291 -107q-84 -92 -84 -254z" />
<glyph unicode="r" horiz-adv-x="902" vert-adv-y="2728" d="M173 0v1031q234 96 475 96q115 0 217 -31v-228q-87 31 -189 31q-119 0 -232 -42v-857h-271z" />
<glyph unicode="s" horiz-adv-x="967" vert-adv-y="2728" d="M121 39v245q160 -101 302 -101q180 0 180 112q0 77 -107 126l-109 52q-151 70 -212 153q-54 73 -54 173q0 161 130 251q113 79 293 79q149 0 286 -61v-232q-136 84 -267 84q-180 0 -180 -106q0 -44 37 -73q34 -25 154 -82q166 -84 223 -148q72 -84 72 -202 q0 -168 -132 -259q-115 -80 -304 -80q-162 0 -312 69z" />
<glyph unicode="t" horiz-adv-x="795" vert-adv-y="2728" d="M48 880v200h186v295h253v-295h252v-200h-252v-489q0 -119 36 -157q32 -33 116 -33q31 0 77 8v-202q-82 -16 -163 -16q-202 0 -278 102q-34 44 -43 100q-9 50 -9 169v518h-175z" />
<glyph unicode="u" horiz-adv-x="1284" vert-adv-y="2728" d="M161 436v673h271v-662q0 -138 58 -187q49 -44 170 -44q81 0 180 20v873h271v-1070q-270 -52 -473 -52q-256 0 -373 102q-61 58 -84 143q-20 75 -20 204z" />
<glyph unicode="v" horiz-adv-x="1188" vert-adv-y="2728" d="M41 1107h286l7 -28q78 -338 219 -713l15 -39l16 -149l23 149q166 391 267 780h278l-13 -48q-87 -283 -189 -527q-101 -253 -220 -493l-18 -39h-276l-18 39q-238 535 -377 1068z" />
<glyph unicode="w" horiz-adv-x="1925" vert-adv-y="2728" d="M50 1107h273l7 -28q49 -253 132 -541q39 -141 65 -219l18 -148l17 148l265 788h275l246 -788l16 -148l20 148l11 28q24 66 101 312q60 198 111 420l7 28h262l-12 -46q-108 -434 -352 -1022l-16 -39h-292l-191 623q-41 140 -54 311q-12 -166 -61 -311l-219 -623h-288 l-16 39q-120 302 -225 661q-63 230 -100 407z" />
<glyph unicode="x" horiz-adv-x="1204" vert-adv-y="2728" d="M39 0q130 235 371 553l17 22l-17 26l-35 42q-174 232 -304 464h322q101 -198 223 -384q127 187 223 384h295q-144 -253 -338 -506l-18 -26l18 -22l25 -35q219 -293 346 -518h-319q-95 194 -256 436l-30 -45q-126 -195 -226 -391h-297z" />
<glyph unicode="y" horiz-adv-x="1195" vert-adv-y="2728" d="M41 1107h293l5 -24q82 -349 218 -712l14 -39l21 -123l22 123l13 37q65 150 128 336q71 206 116 378l7 24h282l-17 -50q-161 -503 -354 -923l-97 -209q-134 -289 -204 -466l-8 -27h-266q34 88 64 158q65 154 143 326l25 56q-256 567 -405 1135z" />
<glyph unicode="z" horiz-adv-x="1145" vert-adv-y="2728" d="M87 84q0 117 64 211q58 85 240 261l114 110q121 121 165 168q30 30 46 50h-564v220h894q8 -52 8 -84q0 -105 -67 -193q-59 -77 -280 -286q-180 -172 -232 -229q-37 -37 -71 -84h642v-224h-953q-6 58 -6 80z" />
<glyph unicode="{" horiz-adv-x="970" vert-adv-y="2728" d="M50 596v172q239 13 239 234q0 100 -15 230q-11 109 -11 237q0 232 143 356q126 108 334 108q7 0 78 -5v-175q-13 2 -30 2q-288 0 -288 -302q0 -87 12 -230q9 -112 9 -223q0 -251 -226 -318q226 -67 226 -318q0 -111 -9 -225q-12 -140 -12 -228q0 -302 288 -302h30v-175 q-37 -2 -78 -2q-238 0 -366 138q-111 123 -111 326q0 124 11 236q15 130 15 230q0 221 -239 234z" />
<glyph unicode="|" horiz-adv-x="834" vert-adv-y="2728" d="M302 -568v2191h230v-2191h-230z" />
<glyph unicode="}" horiz-adv-x="970" vert-adv-y="2728" d="M152 -391h30q289 0 289 300q0 89 -13 230q-8 114 -8 225q0 251 225 318q-225 67 -225 316q0 114 8 225q13 145 13 230q0 302 -293 302q-15 0 -26 -2v175q70 5 78 5q238 0 366 -140q111 -122 111 -324q0 -129 -11 -237q-14 -129 -14 -230q0 -221 238 -234v-172 q-238 -13 -238 -234q0 -102 14 -230q11 -111 11 -236q0 -233 -143 -357q-124 -107 -334 -107q-41 0 -78 2v175z" />
<glyph unicode="~" vert-adv-y="2728" d="M161 750q136 100 295 100q77 0 256 -75q153 -69 224 -69q112 0 257 108l22 -216q-161 -103 -286 -103q-93 0 -256 68q-179 71 -235 71q-133 0 -255 -98z" />
<glyph unicode="&#xa0;" horiz-adv-x="455" vert-adv-y="2728" />
<glyph unicode="&#xa1;" horiz-adv-x="965" vert-adv-y="2728" d="M380 820v310h302v-310h-302zM386 -503v1137h289v-1137h-289z" />
<glyph unicode="&#xa2;" vert-adv-y="2728" d="M204 805q0 268 175 427q150 140 400 162v157h146v-159q113 -12 225 -60v-229q-105 60 -225 72v-700q116 9 238 78v-230q-110 -54 -238 -72v-178h-146v173q-289 15 -442 181q-133 146 -133 378zM484 824q0 -291 295 -343v688q-295 -57 -295 -345z" />
<glyph unicode="&#xa3;" vert-adv-y="2728" d="M46 662v188h284q-25 168 -25 289q0 243 183 387q160 125 401 125q197 0 380 -98v-267q-168 133 -352 133q-172 0 -259 -94q-75 -82 -75 -225q0 -102 26 -250h432v-188h-414q6 -39 6 -94q0 -126 -42 -204q-37 -71 -120 -128h863v-234h-1213v226q149 75 194 146 q40 64 40 181q0 59 -2 91l-2 16h-305z" />
<glyph unicode="&#xa4;" vert-adv-y="2728" d="M107 370l190 186q-73 113 -73 253q0 142 76 257l-187 188l135 139l193 -182q112 78 262 78q137 0 252 -65l175 167l139 -141l-169 -167q80 -117 80 -274q0 -162 -82 -266l173 -171l-134 -141l-174 180q-122 -72 -260 -72q-148 0 -267 76l-188 -184zM445 809 q0 -130 81 -206q71 -67 176 -67q127 0 197 86q60 73 60 187q2 131 -77 210q-69 70 -180 70q-129 0 -199 -90q-58 -74 -58 -190z" />
<glyph unicode="&#xa5;" horiz-adv-x="1529" vert-adv-y="2728" d="M2 1623h332l11 -16q77 -115 198 -284q61 -83 186 -250l30 -36l32 39q98 117 198 245q114 145 211 286l14 16h313l-22 -32q-273 -381 -587 -741l-29 -32v-118h378v-127h-378v-163h378v-128h-378v-282h-277v282h-378v128h378v163h-378v127h378v116l-28 34 q-169 206 -282 354q-151 202 -274 382z" />
<glyph unicode="&#xa6;" horiz-adv-x="834" vert-adv-y="2728" d="M302 306h230v-874h-230v874zM302 748v875h230v-875h-230z" />
<glyph unicode="&#xa7;" vert-adv-y="2728" d="M145 657q0 117 46 209q40 80 134 182q-56 91 -56 193q0 199 158 314q139 100 352 100q171 0 334 -67v-247q-136 82 -302 82q-121 0 -193 -55q-63 -49 -63 -123q0 -99 148 -191l156 -97q201 -121 278 -214q106 -127 106 -311q0 -219 -184 -410q43 -92 43 -181 q0 -197 -164 -316q-143 -102 -359 -102q-169 0 -343 65v264q160 -88 328 -88q122 0 192 53q60 47 60 120q0 75 -62 136q-55 54 -211 152q-209 131 -287 220q-111 132 -111 312zM416 679q0 -86 65 -160q57 -64 194 -153l134 -86q37 -25 87 -65q81 79 81 185q0 94 -60 167 q-53 63 -177 142l-147 94q-44 27 -100 69q-77 -104 -77 -193z" />
<glyph unicode="&#xa8;" horiz-adv-x="1136" vert-adv-y="2728" d="M221 1328v270h259v-270h-259zM656 1328v270h259v-270h-259z" />
<glyph unicode="&#xa9;" horiz-adv-x="2047" vert-adv-y="2728" d="M121 811q0 401 299 669q257 232 606 232q400 0 669 -297q233 -257 233 -604q0 -398 -299 -666q-257 -232 -606 -232q-400 0 -669 297q-233 256 -233 601zM271 811q0 -338 250 -566q215 -197 505 -197q333 0 557 253q193 217 193 510q0 341 -246 569q-215 197 -504 197 q-336 0 -561 -253q-194 -218 -194 -513zM508 798q0 262 182 415q158 132 402 132q156 0 291 -61v-197q-126 67 -265 67q-187 0 -289 -102q-89 -90 -89 -234q0 -164 114 -253q98 -77 258 -77q145 0 271 69v-200q-149 -66 -309 -66q-277 0 -431 155q-135 136 -135 352z" />
<glyph unicode="&#xaa;" horiz-adv-x="963" vert-adv-y="2728" d="M98 922q0 198 168 280q111 55 330 76l23 2v33q0 86 -35 117q-32 27 -106 27q-153 0 -324 -107v200q188 101 377 101q207 0 272 -124q29 -58 29 -229v-614l-36 -5q-229 -30 -368 -30q-184 0 -262 76q-68 65 -68 197zM314 938q0 -109 128 -109q74 0 180 19v254 q-185 -14 -250 -54q-58 -36 -58 -110z" />
<glyph unicode="&#xab;" horiz-adv-x="1240" vert-adv-y="2728" d="M125 607l323 473h218l-265 -473l271 -475h-224zM596 607l269 473h215l-228 -473l232 -475h-219z" />
<glyph unicode="&#xac;" vert-adv-y="2728" d="M161 767v209h1054v-596h-214v387h-840z" />
<glyph unicode="&#xad;" horiz-adv-x="930" vert-adv-y="2728" d="M137 559v235h657v-235h-657z" />
<glyph unicode="&#xae;" horiz-adv-x="2047" vert-adv-y="2728" d="M121 811q0 401 299 669q257 232 606 232q400 0 669 -297q233 -257 233 -604q0 -398 -299 -666q-257 -232 -606 -232q-400 0 -669 297q-233 256 -233 601zM271 811q0 -338 250 -566q215 -197 505 -197q333 0 557 253q193 217 193 510q0 341 -246 569q-215 197 -504 197 q-336 0 -561 -253q-194 -218 -194 -513zM639 330v1002h24q178 11 275 11q211 0 314 -70q118 -79 118 -236q0 -202 -198 -287l16 -20l59 -77q168 -213 284 -326h-289q-9 14 -48 61q-101 124 -167 224l-67 93l-7 11h-32q-22 0 -45 2h-22v-388h-215zM854 880h17h60 q218 0 218 145q0 149 -202 149q-55 0 -93 -3v-291z" />
<glyph unicode="&#xaf;" horiz-adv-x="1136" vert-adv-y="2728" d="M139 1380v158h859v-158h-859z" />
<glyph unicode="&#xb0;" horiz-adv-x="1004" vert-adv-y="2728" d="M141 1293q0 161 119 269q103 93 242 93q161 0 268 -119q94 -103 94 -243q0 -160 -119 -267q-103 -95 -243 -95q-160 0 -268 120q-93 103 -93 242zM319 1293q0 -88 61 -147q53 -52 122 -52q82 0 137 66q47 57 47 133q0 89 -60 148q-53 51 -124 51q-81 0 -137 -66 q-46 -56 -46 -133z" />
<glyph unicode="&#xb1;" horiz-adv-x="1379" vert-adv-y="2728" d="M186 9v204h1007v-204h-1007zM186 780v202h398v432h211v-432h398v-202h-398v-446h-211v446h-398z" />
<glyph unicode="&#xb2;" horiz-adv-x="950" vert-adv-y="2728" d="M84 694v177q187 100 302 187q217 159 217 306q0 90 -61 140q-54 44 -137 44q-139 0 -268 -113v198q132 95 306 95q184 0 284 -105q87 -91 87 -242q0 -325 -493 -542q109 27 186 30l350 7v-182h-773z" />
<glyph unicode="&#xb3;" horiz-adv-x="925" vert-adv-y="2728" d="M93 718v198q147 -86 287 -86q106 0 163 41q50 37 50 96q0 116 -180 152q-56 8 -157 11v154q321 11 321 162q0 114 -164 114q-141 0 -274 -89v186q145 73 306 73q171 0 263 -79q80 -69 80 -182q0 -187 -206 -239q110 -25 173 -104q54 -72 54 -165q0 -148 -126 -233 q-111 -73 -288 -73q-149 0 -302 63z" />
<glyph unicode="&#xb4;" horiz-adv-x="1136" vert-adv-y="2728" d="M273 1282l357 448l234 -23l-411 -457z" />
<glyph unicode="&#xb5;" horiz-adv-x="1229" vert-adv-y="2728" d="M59 916v50h28l131 -5l114 5h30v-650q0 -111 52 -158q49 -44 152 -44q122 0 224 64v547q0 131 -23 162q-21 29 -94 29h-21v50h32l126 -5l115 5h32v-656q0 -141 25 -188q21 -35 70 -35q47 0 72 21q7 4 42 46h41q-49 -202 -250 -202q-122 0 -167 173q-53 -54 -132 -94 q-102 -53 -198 -53q-130 0 -191 68v-64l63 -305q0 -139 -100 -139q-91 0 -91 139l54 305v743q0 130 -24 162q-22 29 -97 29h-15z" />
<glyph unicode="&#xb6;" horiz-adv-x="1607" vert-adv-y="2728" d="M107 1032q0 395 345 530q105 40 273 54q85 7 251 7h447v-2191h-214v1991h-224v-1328q0 -224 -41 -354q-36 -113 -115 -191q-139 -138 -371 -138q-58 0 -117 11v182q67 -13 106 -13q163 0 248 108q75 97 75 368v418q-75 -9 -123 -9q-264 0 -412 170q-128 149 -128 385z " />
<glyph unicode="&#xb7;" horiz-adv-x="455" vert-adv-y="2728" d="M65 646v334h326v-334h-326z" />
<glyph unicode="&#xb8;" horiz-adv-x="1136" vert-adv-y="2728" d="M345 -441q53 -25 111 -25q137 0 137 104q0 114 -222 134l202 248h136l-112 -145q196 -55 196 -222q0 -113 -98 -179q-85 -58 -211 -58q-68 0 -139 20v123z" />
<glyph unicode="&#xb9;" horiz-adv-x="784" vert-adv-y="2728" d="M73 1360v193l551 182v-1043h-211v777z" />
<glyph unicode="&#xba;" horiz-adv-x="1114" vert-adv-y="2728" d="M87 1143q0 251 145 389q127 121 330 121q229 0 355 -150q109 -130 109 -341q0 -252 -146 -389q-126 -120 -329 -120q-230 0 -356 148q-108 130 -108 342zM321 1152q0 -159 70 -242q61 -71 164 -71q120 0 182 95q54 82 54 222q0 158 -69 240q-63 73 -167 73 q-119 0 -180 -95q-54 -82 -54 -222z" />
<glyph unicode="&#xbb;" horiz-adv-x="1240" vert-adv-y="2728" d="M157 1080h218l270 -473l-270 -475h-214l225 475zM571 1080h222l323 -473l-323 -475h-220l267 475z" />
<glyph unicode="&#xbc;" horiz-adv-x="2093" vert-adv-y="2728" d="M73 1360v193l550 182v-1043h-211v779zM390 -75l1113 1814l182 -47l-1113 -1813zM1101 128q103 236 339 528q145 186 229 252q56 45 128 45q31 0 57 -4v-655h167v-166h-167v-219h-196v219h-557zM1388 289h270v224q0 109 39 209l-30 -39q-180 -229 -279 -394z" />
<glyph unicode="&#xbd;" horiz-adv-x="2236" vert-adv-y="2728" d="M73 1360v193l550 182v-1043h-211v779zM390 -75l1113 1814l182 -47l-1113 -1813zM1371 -78v180q181 93 303 184q216 159 216 307q0 90 -61 140q-53 44 -136 44q-138 0 -269 -113v197q131 96 306 96q185 0 285 -106q86 -92 86 -242q0 -226 -243 -400q-103 -76 -250 -139 q112 28 187 28l350 6v-182h-774z" />
<glyph unicode="&#xbe;" horiz-adv-x="2216" vert-adv-y="2728" d="M93 720v198q142 -86 287 -86q213 0 213 137q0 118 -180 150q-52 10 -157 13v154q321 12 321 163q0 54 -50 85q-44 28 -114 28q-141 0 -274 -89v186q141 71 306 71q171 0 263 -78q80 -69 80 -183q0 -188 -206 -237q110 -23 173 -104q54 -71 54 -165q0 -150 -126 -234 q-111 -72 -288 -72q-156 0 -302 63zM512 -75l1113 1814l184 -47l-1113 -1813zM1223 128q99 226 339 528q150 186 230 252q57 45 129 45q29 0 57 -4v-655h165v-166h-165v-219h-198v219h-557zM1510 289h270v224q0 101 39 209l-30 -39q-165 -211 -279 -394z" />
<glyph unicode="&#xbf;" horiz-adv-x="1398" vert-adv-y="2728" d="M282 -111q0 162 102 274q73 77 248 198q95 70 127 113q29 39 29 88q0 35 -20 70h282q20 -50 20 -107q0 -93 -62 -170q-56 -68 -192 -166q-150 -108 -191 -163q-37 -49 -37 -115q0 -93 78 -144q67 -45 174 -45q190 0 355 130v-279q-195 -98 -401 -98q-255 0 -392 125 q-120 109 -120 289zM733 818v310h302v-310h-302z" />
<glyph unicode="&#xc0;" horiz-adv-x="1696" vert-adv-y="2728" d="M57 0l22 68q137 379 305 782q134 328 306 718l26 55h316l25 -57q142 -348 286 -729q148 -402 269 -762l24 -75h-322l-12 41q-61 192 -143 436l-11 35h-605l-16 -39q-124 -348 -152 -432l-14 -41h-304zM386 2189l257 67l466 -444l-202 -66zM632 744h434l-16 54l-63 189 q-16 42 -52 150q-7 19 -43 124q-15 47 -31 93q-7 -21 -19 -52q-7 -20 -8 -24l-55 -141q-10 -20 -33 -87l-51 -134q-22 -57 -40 -111z" />
<glyph unicode="&#xc1;" horiz-adv-x="1696" vert-adv-y="2728" d="M57 0l22 68q137 379 305 782q134 328 306 718l26 55h316l25 -57q142 -348 286 -729q148 -402 269 -762l24 -75h-322l-12 41q-61 192 -143 436l-11 35h-605l-16 -39q-124 -348 -152 -432l-14 -41h-304zM632 744h434l-16 54l-63 189q-16 42 -52 150q-7 19 -43 124 q-15 47 -31 93q-7 -21 -19 -52q-7 -20 -8 -24l-55 -141q-10 -20 -33 -87l-51 -134q-22 -57 -40 -111zM662 1807l468 446l245 -64l-520 -443z" />
<glyph unicode="&#xc2;" horiz-adv-x="1696" vert-adv-y="2728" d="M57 0l22 68q137 379 305 782q134 328 306 718l26 55h316l25 -57q142 -348 286 -729q148 -402 269 -762l24 -75h-322l-12 41q-61 192 -143 436l-11 35h-605l-16 -39q-124 -348 -152 -432l-14 -41h-304zM427 1766l380 471h168l377 -471l-195 -28l-273 317l-277 -317z M632 744h434l-16 54l-63 189q-16 42 -52 150q-7 19 -43 124q-15 47 -31 93q-7 -21 -19 -52q-7 -20 -8 -24l-55 -141q-10 -20 -33 -87l-51 -134q-22 -57 -40 -111z" />
<glyph unicode="&#xc3;" horiz-adv-x="1696" vert-adv-y="2728" d="M57 0l22 68q137 379 305 782q134 328 306 718l26 55h316l25 -57q142 -348 286 -729q148 -402 269 -762l24 -75h-322l-12 41q-61 192 -143 436l-11 35h-605l-16 -39q-124 -348 -152 -432l-14 -41h-304zM427 1948q104 169 271 169q62 0 133 -26l137 -52q62 -23 130 -23 q122 0 204 146l69 -171q-104 -168 -271 -168q-61 0 -137 25l-138 52q-58 24 -125 24q-121 0 -205 -146zM632 744h434l-16 54l-63 189q-16 42 -52 150q-7 19 -43 124q-15 47 -31 93q-7 -21 -19 -52q-7 -20 -8 -24l-55 -141q-10 -20 -33 -87l-51 -134q-22 -57 -40 -111z" />
<glyph unicode="&#xc4;" horiz-adv-x="1696" vert-adv-y="2728" d="M57 0l22 68q137 379 305 782q134 328 306 718l26 55h316l25 -57q142 -348 286 -729q148 -402 269 -762l24 -75h-322l-12 41q-61 192 -143 436l-11 35h-605l-16 -39q-124 -348 -152 -432l-14 -41h-304zM458 1798v287h282v-287h-282zM632 744h434l-16 54l-63 189 q-16 42 -52 150q-7 19 -43 124q-15 47 -31 93q-7 -21 -19 -52q-7 -20 -8 -24l-55 -141q-10 -20 -33 -87l-51 -134q-22 -57 -40 -111zM1032 1798v287h282v-287h-282z" />
<glyph unicode="&#xc5;" horiz-adv-x="1696" vert-adv-y="2728" d="M57 0l22 68q137 379 305 782q134 328 306 718l26 55h316l25 -57q142 -348 286 -729q148 -402 269 -762l24 -75h-322l-12 41q-61 192 -143 436l-11 35h-605l-16 -39q-124 -348 -152 -432l-14 -41h-304zM586 1985q0 127 98 215q83 76 196 76q129 0 217 -97q74 -83 74 -194 q0 -130 -95 -218q-84 -75 -196 -75q-131 0 -218 96q-76 85 -76 197zM632 744h434l-16 54l-63 189q-16 42 -52 150q-7 19 -43 124q-15 47 -31 93q-7 -21 -19 -52q-7 -20 -8 -24l-55 -141q-10 -20 -33 -87l-51 -134q-22 -57 -40 -111zM738 1982q0 -67 47 -113q41 -39 95 -39 q62 0 103 50q36 44 36 102q0 69 -46 115q-39 40 -93 40q-63 0 -105 -51q-37 -44 -37 -104z" />
<glyph unicode="&#xc6;" horiz-adv-x="2157" vert-adv-y="2728" d="M50 0l22 68q138 380 305 782q140 342 307 714l23 57h1312v-248h-899l17 -34q5 -17 38 -100q6 -17 18 -47q25 -61 35 -90q30 -73 41 -104l13 -35h714v-247h-623l13 -34q85 -231 144 -404l8 -28h501v-248h-733l-11 41q-88 273 -115 348l-12 34h-664l-13 -39 q-7 -17 -122 -345l-15 -41h-304zM591 655h498l-17 52q-6 21 -21 64q-12 37 -19 56q-6 22 -16 50q-6 18 -9 30l-68 197l-58 169l-26 82l-28 -77l-68 -174q-3 -10 -18 -47q-13 -35 -25 -70q-9 -20 -59 -158q-8 -18 -29 -75q-10 -25 -14 -38z" />
<glyph unicode="&#xc7;" horiz-adv-x="1643" vert-adv-y="2728" d="M128 789q0 408 289 651q251 211 629 211q239 0 475 -101v-264q-211 115 -443 115q-315 0 -489 -179q-149 -156 -149 -411q0 -288 193 -447q166 -136 438 -136q234 0 450 111v-267q-187 -82 -423 -98l-88 -117q215 -57 215 -241q0 -123 -106 -197q-92 -63 -232 -63 q-71 0 -152 24v133q54 -27 123 -27q148 0 148 113q0 129 -241 146l183 229q-150 7 -263 44q-275 82 -426 311q-131 199 -131 460z" />
<glyph unicode="&#xc8;" horiz-adv-x="1312" vert-adv-y="2728" d="M191 2v1616h978v-245h-689v-410h666v-247h-666v-466h709v-248h-998zM200 2187l257 66l469 -444l-206 -63z" />
<glyph unicode="&#xc9;" horiz-adv-x="1312" vert-adv-y="2728" d="M191 2v1616h978v-245h-689v-410h666v-247h-666v-466h709v-248h-998zM523 1805l468 446l246 -64l-521 -441z" />
<glyph unicode="&#xca;" horiz-adv-x="1312" vert-adv-y="2728" d="M191 2v1616h978v-245h-689v-410h666v-247h-666v-466h709v-248h-998zM236 1764l380 473h169l376 -471l-195 -29l-272 318l-278 -318z" />
<glyph unicode="&#xcb;" horiz-adv-x="1312" vert-adv-y="2728" d="M191 2v1616h978v-245h-689v-410h666v-247h-666v-466h709v-248h-998zM271 1796v289h280v-289h-280zM841 1796v289h282v-289h-282z" />
<glyph unicode="&#xcc;" horiz-adv-x="672" vert-adv-y="2728" d="M-102 2189l256 67l469 -444l-205 -66zM193 0v1623h289v-1623h-289z" />
<glyph unicode="&#xcd;" horiz-adv-x="674" vert-adv-y="2728" d="M107 1807l468 446l245 -64l-520 -443zM193 0v1623h289v-1623h-289z" />
<glyph unicode="&#xce;" horiz-adv-x="674" vert-adv-y="2728" d="M-37 1768l312 466h139l311 -464l-176 -28l-208 290l-211 -290zM193 0v1623h289v-1623h-289z" />
<glyph unicode="&#xcf;" horiz-adv-x="674" vert-adv-y="2728" d="M-43 1803v277h271v-277h-271zM193 0v1623h289v-1623h-289zM447 1803v277h271v-277h-271z" />
<glyph unicode="&#xd0;" horiz-adv-x="1841" vert-adv-y="2728" d="M-16 753v173h300v690l50 2q244 16 393 16q478 0 718 -182q269 -208 269 -615q0 -435 -293 -655q-254 -191 -727 -191q-172 0 -410 13v749h-300zM573 248q132 -7 191 -7q319 0 479 141q167 149 167 438q0 566 -621 566q-48 0 -166 -4l-50 -4v-452h379v-173h-379v-505z" />
<glyph unicode="&#xd1;" horiz-adv-x="1798" vert-adv-y="2728" d="M191 0v1623h262q84 0 126 -66l630 -966q74 -116 169 -348q-42 197 -42 366v1014h271v-1623h-262q-84 0 -126 65l-627 967q-71 106 -171 348q41 -193 41 -367v-1013h-271zM475 1948q108 169 273 169q63 0 132 -26l138 -52q59 -23 128 -23q121 0 207 146l68 -171 q-108 -168 -273 -168q-62 0 -135 25l-138 52q-58 24 -125 24q-118 0 -207 -146z" />
<glyph unicode="&#xd2;" horiz-adv-x="1878" vert-adv-y="2728" d="M128 794q0 419 253 656q221 205 569 205q393 0 611 -256q189 -224 189 -581q0 -417 -252 -652q-219 -203 -570 -203q-392 0 -611 255q-189 222 -189 576zM440 809q0 -297 152 -457q132 -139 349 -139q250 0 383 180q117 156 117 414q0 301 -150 460q-130 138 -347 138 q-251 0 -387 -180q-117 -157 -117 -416zM462 2187l256 69l466 -447l-202 -63z" />
<glyph unicode="&#xd3;" horiz-adv-x="1878" vert-adv-y="2728" d="M128 794q0 419 253 656q221 205 569 205q393 0 611 -256q189 -224 189 -581q0 -417 -252 -652q-219 -203 -570 -203q-392 0 -611 255q-189 222 -189 576zM440 809q0 -297 152 -457q132 -139 349 -139q250 0 383 180q117 156 117 414q0 301 -150 460q-130 138 -347 138 q-251 0 -387 -180q-117 -157 -117 -416zM726 1807l468 444l246 -64l-521 -441z" />
<glyph unicode="&#xd4;" horiz-adv-x="1878" vert-adv-y="2728" d="M128 794q0 419 253 656q221 205 569 205q393 0 611 -256q189 -224 189 -581q0 -417 -252 -652q-219 -203 -570 -203q-392 0 -611 255q-189 222 -189 576zM440 809q0 -297 152 -457q132 -139 349 -139q250 0 383 180q117 156 117 414q0 301 -150 460q-130 138 -347 138 q-251 0 -387 -180q-117 -157 -117 -416zM501 1766l379 471h168l377 -471l-195 -30l-272 319l-278 -319z" />
<glyph unicode="&#xd5;" horiz-adv-x="1878" vert-adv-y="2728" d="M128 794q0 419 253 656q221 205 569 205q393 0 611 -256q189 -224 189 -581q0 -417 -252 -652q-219 -203 -570 -203q-392 0 -611 255q-189 222 -189 576zM440 809q0 -297 152 -457q132 -139 349 -139q250 0 383 180q117 156 117 414q0 301 -150 460q-130 138 -347 138 q-251 0 -387 -180q-117 -157 -117 -416zM509 1946q107 171 271 171q62 0 135 -26l135 -52q68 -25 130 -25q120 0 205 146l68 -169q-105 -171 -271 -171q-64 0 -136 28l-136 52q-69 24 -125 24q-122 0 -207 -146z" />
<glyph unicode="&#xd6;" horiz-adv-x="1878" vert-adv-y="2728" d="M128 794q0 419 253 656q221 205 569 205q393 0 611 -256q189 -224 189 -581q0 -417 -252 -652q-219 -203 -570 -203q-392 0 -611 255q-189 222 -189 576zM440 809q0 -297 152 -457q132 -139 349 -139q250 0 383 180q117 156 117 414q0 301 -150 460q-130 138 -347 138 q-251 0 -387 -180q-117 -157 -117 -416zM535 1796v289h280v-289h-280zM1106 1796v289h282v-289h-282z" />
<glyph unicode="&#xd7;" vert-adv-y="2728" d="M175 1037l152 154l369 -368l364 366l141 -141l-366 -364l368 -368l-155 -153l-365 366l-367 -363l-138 138l364 366z" />
<glyph unicode="&#xd8;" horiz-adv-x="1891" vert-adv-y="2728" d="M121 50l182 195q-169 230 -169 549q0 417 254 653q220 206 567 206q297 0 500 -151l162 180l131 -114l-167 -184q177 -221 177 -566q0 -417 -252 -652q-220 -203 -569 -203q-299 0 -512 160l-170 -184zM446 811q0 -189 66 -331l757 815q-129 110 -318 110 q-251 0 -386 -180q-119 -156 -119 -414zM614 336q142 -123 337 -123q248 0 381 179q117 155 117 411q0 208 -74 354z" />
<glyph unicode="&#xd9;" horiz-adv-x="1682" vert-adv-y="2728" d="M173 634v989h289v-961q0 -239 80 -330q95 -114 299 -114q225 0 319 136q61 86 61 308v961h289v-989q0 -318 -135 -471q-170 -191 -534 -191t-534 191q-134 153 -134 471zM373 2189l257 67l466 -444l-202 -66z" />
<glyph unicode="&#xda;" horiz-adv-x="1682" vert-adv-y="2728" d="M173 634v989h289v-961q0 -239 80 -330q95 -114 299 -114q225 0 319 136q61 86 61 308v961h289v-989q0 -318 -135 -471q-170 -191 -534 -191t-534 191q-134 153 -134 471zM668 1807l466 446l246 -64l-521 -443z" />
<glyph unicode="&#xdb;" horiz-adv-x="1682" vert-adv-y="2728" d="M173 634v989h289v-961q0 -239 80 -330q95 -114 299 -114q225 0 319 136q61 86 61 308v961h289v-989q0 -318 -135 -471q-170 -191 -534 -191t-534 191q-134 153 -134 471zM394 1766l380 471h167l378 -471l-196 -28l-273 317l-277 -317z" />
<glyph unicode="&#xdc;" horiz-adv-x="1682" vert-adv-y="2728" d="M173 634v989h289v-961q0 -239 80 -330q95 -114 299 -114q225 0 319 136q61 86 61 308v961h289v-989q0 -318 -135 -471q-170 -191 -534 -191t-534 191q-134 153 -134 471zM427 1798v287h282v-287h-282zM1000 1798v287h280v-287h-280z" />
<glyph unicode="&#xdd;" horiz-adv-x="1607" vert-adv-y="2728" d="M18 1623h341l11 -20q108 -197 205 -358q125 -205 193 -310l27 -46l34 48q81 115 204 308q125 195 219 358l11 20h325l-25 -41q-269 -451 -602 -914l-30 -41v-627h-288v627l-30 41q-170 250 -287 436q-125 198 -282 473zM602 1807l466 446l245 -64l-520 -443z" />
<glyph unicode="&#xde;" horiz-adv-x="1395" vert-adv-y="2728" d="M191 0v1623h289v-287l24 3q119 4 141 4q306 0 468 -115q189 -140 189 -397q0 -272 -211 -409q-169 -111 -486 -111l-125 2v-313h-289zM475 553q63 -4 134 -4q393 0 393 276q0 279 -352 279q-28 0 -132 -4l-43 -2v-545z" />
<glyph unicode="&#xdf;" horiz-adv-x="1370" vert-adv-y="2728" d="M173 0v1067q0 312 102 451q139 191 441 191q229 0 355 -111q111 -97 111 -252q0 -103 -45 -175q-40 -64 -152 -171q-94 -90 -94 -141q0 -42 57 -93q20 -17 112 -77q141 -96 194 -183q47 -76 47 -179q0 -172 -131 -267q-114 -82 -299 -82q-141 0 -266 61v230 q108 -80 234 -80q93 0 143 42q44 35 44 94q0 58 -57 111q-14 14 -128 91q-111 81 -152 126q-73 80 -73 182q0 111 104 215l104 102q90 91 90 180q0 82 -65 130q-56 41 -142 41q-166 0 -229 -137q-34 -77 -34 -266v-1100h-271z" />
<glyph unicode="&#xe0;" horiz-adv-x="1118" vert-adv-y="2728" d="M115 295q0 227 191 319q126 61 382 89l24 2v40q0 96 -39 131q-36 30 -119 30q-182 0 -373 -122v232q212 113 431 113q238 0 310 -141q37 -70 37 -263v-703q-286 -40 -466 -40q-209 0 -299 86q-79 75 -79 227zM195 1709l248 26l358 -451l-193 -34zM363 314 q0 -125 148 -125q82 0 205 17v296q-208 -16 -285 -64q-68 -41 -68 -124z" />
<glyph unicode="&#xe1;" horiz-adv-x="1118" vert-adv-y="2728" d="M115 295q0 227 191 319q126 61 382 89l24 2v40q0 96 -39 131q-36 30 -119 30q-182 0 -373 -122v232q212 113 431 113q238 0 310 -141q37 -70 37 -263v-703q-286 -40 -466 -40q-209 0 -299 86q-79 75 -79 227zM363 314q0 -125 148 -125q82 0 205 17v296q-208 -16 -285 -64 q-68 -41 -68 -124zM427 1282l357 448l234 -23l-412 -457z" />
<glyph unicode="&#xe2;" horiz-adv-x="1118" vert-adv-y="2728" d="M115 295q0 227 191 319q126 61 382 89l24 2v40q0 96 -39 131q-36 30 -119 30q-182 0 -373 -122v232q212 113 431 113q238 0 310 -141q37 -70 37 -263v-703q-286 -40 -466 -40q-209 0 -299 86q-79 75 -79 227zM195 1271l313 430h141l314 -430l-164 -26l-226 273l-230 -273 zM363 314q0 -125 148 -125q82 0 205 17v296q-208 -16 -285 -64q-68 -41 -68 -124z" />
<glyph unicode="&#xe3;" horiz-adv-x="1116" vert-adv-y="2728" d="M115 295q0 227 191 319q126 61 382 89l24 2v40q0 96 -39 131q-36 30 -119 30q-182 0 -373 -122v232q212 113 431 113q238 0 310 -141q37 -70 37 -263v-703q-286 -40 -466 -40q-209 0 -299 86q-79 75 -79 227zM183 1441q92 152 230 152q60 0 112 -22l115 -46 q53 -22 107 -22q102 0 173 131l57 -154q-88 -150 -226 -150q-59 0 -115 22l-115 45q-51 20 -106 20q-102 0 -174 -128zM363 314q0 -125 148 -125q82 0 205 17v296q-208 -16 -285 -64q-68 -41 -68 -124z" />
<glyph unicode="&#xe4;" horiz-adv-x="1118" vert-adv-y="2728" d="M115 295q0 227 191 319q126 61 382 89l24 2v40q0 96 -39 131q-36 30 -119 30q-182 0 -373 -122v232q212 113 431 113q238 0 310 -141q37 -70 37 -263v-703q-286 -40 -466 -40q-209 0 -299 86q-79 75 -79 227zM226 1328v270h259v-270h-259zM363 314q0 -125 148 -125 q82 0 205 17v296q-208 -16 -285 -64q-68 -41 -68 -124zM662 1328v270h258v-270h-258z" />
<glyph unicode="&#xe5;" horiz-adv-x="1118" vert-adv-y="2728" d="M115 295q0 227 191 319q126 61 382 89l24 2v40q0 96 -39 131q-36 30 -119 30q-182 0 -373 -122v232q212 113 431 113q238 0 310 -141q37 -70 37 -263v-703q-286 -40 -466 -40q-209 0 -299 86q-79 75 -79 227zM339 1494q0 117 86 195q76 68 178 68q116 0 194 -86 q67 -76 67 -177q0 -116 -86 -194q-74 -68 -175 -68q-118 0 -197 87q-67 75 -67 175zM363 314q0 -125 148 -125q82 0 205 17v296q-208 -16 -285 -64q-68 -41 -68 -124zM475 1494q0 -61 42 -102q37 -37 86 -37q55 0 94 47q32 39 32 92q0 61 -42 103q-35 37 -84 37 q-57 0 -96 -47q-32 -40 -32 -93z" />
<glyph unicode="&#xe6;" horiz-adv-x="1789" vert-adv-y="2728" d="M104 301q0 220 191 313q127 62 382 86l22 5v41q0 98 -39 132q-34 31 -117 31q-178 0 -373 -122v229q214 113 425 113q208 0 280 -133q143 136 347 136q157 0 274 -78q102 -67 151 -178q52 -113 52 -367v-6h-759q15 -308 341 -308q203 0 362 112v-218q-183 -115 -398 -115 q-179 0 -314 72q-218 -64 -451 -64q-376 0 -376 319zM350 322q0 -132 161 -132q116 0 255 38q-64 111 -71 277q-200 -15 -278 -63q-67 -42 -67 -120zM949 696h492q-21 232 -230 232q-219 0 -262 -232z" />
<glyph unicode="&#xe7;" horiz-adv-x="1073" vert-adv-y="2728" d="M104 538q0 281 190 447q164 144 415 144q149 0 293 -66v-229q-118 74 -254 74q-180 0 -277 -107q-87 -93 -87 -245q0 -174 110 -270q95 -82 252 -82q135 0 270 80v-230q-126 -63 -261 -75l-80 -104q195 -55 195 -222q0 -113 -97 -179q-85 -58 -211 -58q-68 0 -139 20v123 q53 -25 111 -25q136 0 136 104q0 114 -222 134l168 207q-263 30 -395 192q-117 142 -117 367z" />
<glyph unicode="&#xe8;" horiz-adv-x="1227" vert-adv-y="2728" d="M107 539q0 285 167 450q147 143 373 143q159 0 277 -76q102 -68 153 -180q52 -120 52 -369v-4h-762q18 -305 343 -305q201 0 362 114v-225q-187 -113 -402 -113q-284 0 -434 169q-129 148 -129 396zM206 1709l246 26l359 -453l-191 -32zM385 696h483q-18 232 -225 232 q-110 0 -179 -70q-61 -60 -79 -162z" />
<glyph unicode="&#xe9;" horiz-adv-x="1227" vert-adv-y="2728" d="M107 539q0 285 167 450q147 143 373 143q159 0 277 -76q102 -68 153 -180q52 -120 52 -369v-4h-762q18 -305 343 -305q201 0 362 114v-225q-187 -113 -402 -113q-284 0 -434 169q-129 148 -129 396zM385 696h483q-18 232 -225 232q-110 0 -179 -70q-61 -60 -79 -162z M497 1280l358 450l234 -23l-414 -457z" />
<glyph unicode="&#xea;" horiz-adv-x="1227" vert-adv-y="2728" d="M107 539q0 285 167 450q147 143 373 143q159 0 277 -76q102 -68 153 -180q52 -120 52 -369v-4h-762q18 -305 343 -305q201 0 362 114v-225q-187 -113 -402 -113q-284 0 -434 169q-129 148 -129 396zM282 1271l315 430h139l314 -430l-164 -28l-227 275l-229 -275zM385 696 h483q-18 232 -225 232q-110 0 -179 -70q-61 -60 -79 -162z" />
<glyph unicode="&#xeb;" horiz-adv-x="1227" vert-adv-y="2728" d="M107 539q0 285 167 450q147 143 373 143q159 0 277 -76q102 -68 153 -180q52 -120 52 -369v-4h-762q18 -305 343 -305q201 0 362 114v-225q-187 -113 -402 -113q-284 0 -434 169q-129 148 -129 396zM325 1328v270h257v-270h-257zM385 696h483q-18 232 -225 232 q-110 0 -179 -70q-61 -60 -79 -162zM759 1328v270h257v-270h-257z" />
<glyph unicode="&#xec;" horiz-adv-x="620" vert-adv-y="2728" d="M-115 1709l245 26l360 -451l-191 -34zM178 0v1107h270v-1107h-270z" />
<glyph unicode="&#xed;" horiz-adv-x="620" vert-adv-y="2728" d="M143 1282l358 448l233 -23l-411 -457zM175 0v1107h271v-1107h-271z" />
<glyph unicode="&#xee;" horiz-adv-x="622" vert-adv-y="2728" d="M7 1271l252 430h114l252 -430l-145 -26l-169 265l-172 -265zM175 0v1107h271v-1107h-271z" />
<glyph unicode="&#xef;" horiz-adv-x="622" vert-adv-y="2728" d="M-4 1335v257h243v-257h-243zM178 0v1107h270v-1107h-270zM384 1335v257h243v-257h-243z" />
<glyph unicode="&#xf0;" horiz-adv-x="1314" vert-adv-y="2728" d="M107 547q0 283 171 445q148 140 381 140q111 0 216 -43q-58 202 -185 311l-240 -178l-79 110l197 141q-82 30 -173 30q-46 0 -98 -10v202q73 14 126 14q199 0 347 -86l226 163l78 -109l-190 -139q103 -99 164 -218q150 -289 150 -658q0 -356 -160 -535 q-140 -157 -383 -157q-269 0 -419 178q-129 154 -129 399zM382 546q0 -177 83 -273q72 -84 192 -84q268 0 268 429q0 81 -14 185q-4 26 -6 45q-121 69 -228 69q-150 0 -227 -111q-68 -97 -68 -260z" />
<glyph unicode="&#xf1;" horiz-adv-x="1293" vert-adv-y="2728" d="M173 0v1052q261 75 502 75q262 0 368 -114q89 -95 89 -301v-712h-271v693q0 125 -56 173q-51 42 -163 42q-96 0 -198 -31v-877h-271zM258 1441q88 152 227 152q50 0 111 -22l116 -46q52 -22 107 -22q100 0 174 131l58 -154q-90 -150 -227 -150q-61 0 -117 22l-115 45 q-51 20 -105 20q-103 0 -173 -128z" />
<glyph unicode="&#xf2;" horiz-adv-x="1305" vert-adv-y="2728" d="M107 541q0 291 168 451q147 140 384 140q268 0 412 -173q127 -151 127 -397q0 -292 -169 -452q-147 -140 -384 -140q-266 0 -412 173q-126 152 -126 398zM206 1709l248 26l357 -451l-191 -32zM380 553q0 -187 81 -283q71 -85 192 -85q137 0 209 109q63 96 63 259 q0 186 -81 283q-71 83 -191 83q-139 0 -211 -109q-62 -94 -62 -257z" />
<glyph unicode="&#xf3;" horiz-adv-x="1305" vert-adv-y="2728" d="M107 541q0 291 168 451q147 140 384 140q268 0 412 -173q127 -151 127 -397q0 -292 -169 -452q-147 -140 -384 -140q-266 0 -412 173q-126 152 -126 398zM380 553q0 -187 81 -283q71 -85 192 -85q137 0 209 109q63 96 63 259q0 186 -81 283q-71 83 -191 83 q-139 0 -211 -109q-62 -94 -62 -257zM491 1282l357 451l232 -24l-412 -457z" />
<glyph unicode="&#xf4;" horiz-adv-x="1305" vert-adv-y="2728" d="M107 541q0 291 168 451q147 140 384 140q268 0 412 -173q127 -151 127 -397q0 -292 -169 -452q-147 -140 -384 -140q-266 0 -412 173q-126 152 -126 398zM289 1271l313 430h138l317 -428l-163 -28l-228 276l-232 -276zM380 553q0 -187 81 -283q71 -85 192 -85 q137 0 209 109q63 96 63 259q0 186 -81 283q-71 83 -191 83q-139 0 -211 -109q-62 -94 -62 -257z" />
<glyph unicode="&#xf5;" horiz-adv-x="1305" vert-adv-y="2728" d="M107 541q0 291 168 451q147 140 384 140q268 0 412 -173q127 -151 127 -397q0 -292 -169 -452q-147 -140 -384 -140q-266 0 -412 173q-126 152 -126 398zM282 1441q88 152 230 152q55 0 111 -22l113 -46q61 -22 110 -22q101 0 172 131l56 -152q-86 -152 -226 -152 q-49 0 -114 22l-116 48q-51 20 -104 20q-103 0 -175 -131zM380 553q0 -187 81 -283q71 -85 192 -85q137 0 209 109q63 96 63 259q0 186 -81 283q-71 83 -191 83q-139 0 -211 -109q-62 -94 -62 -257z" />
<glyph unicode="&#xf6;" horiz-adv-x="1305" vert-adv-y="2728" d="M107 541q0 291 168 451q147 140 384 140q268 0 412 -173q127 -151 127 -397q0 -292 -169 -452q-147 -140 -384 -140q-266 0 -412 173q-126 152 -126 398zM325 1328v273h259v-273h-259zM380 553q0 -187 81 -283q71 -85 192 -85q137 0 209 109q63 96 63 259q0 186 -81 283 q-71 83 -191 83q-139 0 -211 -109q-62 -94 -62 -257zM759 1328v273h259v-273h-259z" />
<glyph unicode="&#xf7;" vert-adv-y="2728" d="M161 574v209h1054v-209h-1054zM549 161v289h278v-289h-278zM549 907v286h278v-286h-278z" />
<glyph unicode="&#xf8;" horiz-adv-x="1320" vert-adv-y="2728" d="M89 28l132 141q-107 150 -107 374q0 288 169 449q148 140 383 140q193 0 341 -105l116 130l100 -87l-125 -136q107 -150 107 -375q0 -290 -168 -451q-148 -140 -384 -140q-192 0 -341 107l-121 -132zM387 559q0 -102 23 -177l431 464q-75 73 -182 73q-136 0 -208 -108 q-64 -94 -64 -252zM477 259q74 -73 182 -73q139 0 211 109q62 95 62 254q0 98 -23 176z" />
<glyph unicode="&#xf9;" horiz-adv-x="1284" vert-adv-y="2728" d="M161 436v673h271v-662q0 -138 58 -187q49 -44 170 -44q81 0 180 20v873h271v-1070q-270 -52 -473 -52q-256 0 -373 102q-61 58 -84 143q-20 75 -20 204zM204 1709l246 26l359 -451l-191 -32z" />
<glyph unicode="&#xfa;" horiz-adv-x="1284" vert-adv-y="2728" d="M161 436v673h271v-662q0 -138 58 -187q49 -44 170 -44q81 0 180 20v873h271v-1070q-270 -52 -473 -52q-256 0 -373 102q-61 58 -84 143q-20 75 -20 204zM491 1282l356 451l234 -24l-411 -457z" />
<glyph unicode="&#xfb;" horiz-adv-x="1284" vert-adv-y="2728" d="M161 436v673h271v-662q0 -138 58 -187q49 -44 170 -44q81 0 180 20v873h271v-1070q-270 -52 -473 -52q-256 0 -373 102q-61 58 -84 143q-20 75 -20 204zM276 1271l317 430h138l315 -428l-165 -28l-225 276l-231 -276z" />
<glyph unicode="&#xfc;" horiz-adv-x="1284" vert-adv-y="2728" d="M161 436v673h271v-662q0 -138 58 -187q49 -44 170 -44q81 0 180 20v873h271v-1070q-270 -52 -473 -52q-256 0 -373 102q-61 58 -84 143q-20 75 -20 204zM315 1328v273h259v-273h-259zM750 1328v273h259v-273h-259z" />
<glyph unicode="&#xfd;" horiz-adv-x="1195" vert-adv-y="2728" d="M41 1107h293l5 -24q82 -349 218 -712l14 -39l21 -123l22 123l13 37q65 150 128 336q71 206 116 378l7 24h282l-17 -50q-161 -503 -354 -923l-97 -209q-134 -289 -204 -466l-8 -27h-266q34 88 64 158q65 154 143 326l25 56q-256 567 -405 1135zM441 1282l357 448l234 -23 l-412 -457z" />
<glyph unicode="&#xfe;" horiz-adv-x="1309" vert-adv-y="2728" d="M178 -568v2273h270v-594q89 16 176 16q291 0 446 -167q135 -144 135 -385q0 -286 -182 -446q-158 -140 -411 -140q-85 0 -164 15v-572h-270zM448 223q77 -15 133 -15q178 0 269 105q80 92 80 251q0 174 -98 262q-85 78 -234 78q-67 0 -150 -18v-663z" />
<glyph unicode="&#xff;" horiz-adv-x="1195" vert-adv-y="2728" d="M41 1107h293l5 -24q82 -349 218 -712l14 -39l21 -123l22 123l13 37q65 150 128 336q71 206 116 378l7 24h282l-17 -50q-161 -503 -354 -923l-97 -209q-134 -289 -204 -466l-8 -27h-266q34 88 64 158q65 154 143 326l25 56q-256 567 -405 1135zM275 1328v270h257v-270 h-257zM710 1328v270h257v-270h-257z" />
<glyph unicode="&#x152;" horiz-adv-x="2479" vert-adv-y="2728" d="M121 794q0 417 254 655q220 206 566 206q122 0 259 -34h1142v-248h-776q126 -166 159 -410h594v-247h-589q-26 -273 -170 -466h802v-248h-1164q-126 -39 -279 -39q-391 0 -608 256q-190 222 -190 575zM433 809q0 -297 152 -457q132 -139 350 -139q249 0 383 180 q116 156 116 414q0 301 -150 460q-130 138 -347 138q-251 0 -386 -180q-118 -157 -118 -416z" />
<glyph unicode="&#x153;" horiz-adv-x="2006" vert-adv-y="2728" d="M98 542q0 289 168 450q147 140 381 140q259 0 396 -195q145 195 393 195q158 0 277 -76q102 -67 153 -178q52 -120 52 -369v-4h-761q13 -304 340 -304q202 0 364 111v-223q-182 -111 -405 -111q-283 0 -415 181q-154 -189 -403 -189q-268 0 -414 173q-126 151 -126 399z M371 553q0 -186 81 -282q71 -85 192 -85q137 0 210 109q62 96 62 258q0 187 -81 283q-71 83 -191 83q-139 0 -211 -108q-62 -95 -62 -258zM1174 698h483q-21 232 -225 232q-110 0 -179 -70q-61 -60 -79 -162z" />
<glyph unicode="&#x178;" horiz-adv-x="1607" vert-adv-y="2728" d="M18 1623h341l11 -20q108 -197 205 -358q125 -205 193 -310l27 -46l34 48q81 115 204 308q125 195 219 358l11 20h325l-25 -41q-269 -451 -602 -914l-30 -41v-627h-288v627l-30 41q-170 250 -287 436q-125 198 -282 473zM386 1798v287h282v-287h-282zM959 1798v287h280 v-287h-280z" />
<glyph unicode="&#x2c6;" horiz-adv-x="1136" vert-adv-y="2728" d="M184 1271l314 430h141l313 -430l-163 -26l-227 273l-230 -273z" />
<glyph unicode="&#x2dc;" horiz-adv-x="1136" vert-adv-y="2728" d="M171 1441q92 152 230 152q59 0 111 -22l116 -46q52 -22 107 -22q102 0 173 131l57 -154q-88 -150 -226 -150q-61 0 -115 22l-117 45q-51 20 -104 20q-102 0 -175 -128z" />
<glyph unicode="&#x2013;" horiz-adv-x="1136" vert-adv-y="2728" d="M0 562v229h1137v-229h-1137z" />
<glyph unicode="&#x2014;" horiz-adv-x="2273" vert-adv-y="2728" d="M0 562v229h2273v-229h-2273z" />
<glyph unicode="&#x2018;" horiz-adv-x="643" vert-adv-y="2728" d="M104 1089l252 616h199l-189 -616h-262z" />
<glyph unicode="&#x2019;" horiz-adv-x="643" vert-adv-y="2728" d="M89 1089l189 616h261l-255 -616h-195z" />
<glyph unicode="&#x201a;" horiz-adv-x="643" vert-adv-y="2728" d="M73 -300l189 616h262l-255 -616h-196z" />
<glyph unicode="&#x201c;" horiz-adv-x="1041" vert-adv-y="2728" d="M104 1089l252 616h199l-189 -616h-262zM502 1089l253 616h197l-188 -616h-262z" />
<glyph unicode="&#x201d;" horiz-adv-x="1041" vert-adv-y="2728" d="M89 1089l189 616h261l-255 -616h-195zM486 1089l187 616h264l-254 -616h-197z" />
<glyph unicode="&#x201e;" horiz-adv-x="1041" vert-adv-y="2728" d="M73 -300l189 616h262l-255 -616h-196zM471 -300l186 616h264l-254 -616h-196z" />
<glyph unicode="&#x2022;" vert-adv-y="2728" d="M416 410v560h549v-560h-549z" />
<glyph unicode="&#x2026;" horiz-adv-x="2273" vert-adv-y="2728" d="M223 0v323h314v-323h-314zM980 0v323h314v-323h-314zM1737 0v323h314v-323h-314z" />
<glyph unicode="&#x2039;" horiz-adv-x="822" vert-adv-y="2728" d="M125 607l323 473h218l-265 -473l271 -475h-224z" />
<glyph unicode="&#x203a;" horiz-adv-x="822" vert-adv-y="2728" d="M152 1080h223l323 -473l-323 -475h-218l266 475z" />
<glyph unicode="&#x20ac;" vert-adv-y="2728" d="M-154 614v145h243v35q0 57 9 127h-252v146h284q95 292 353 446q224 135 525 135q245 0 475 -97v-256q-213 117 -451 117q-233 0 -393 -101q-139 -89 -204 -244h905l-32 -146h-912q-9 -57 -9 -103q0 -33 3 -59h882l-32 -145h-826q60 -204 238 -308q155 -91 376 -91 q237 0 455 115v-257q-226 -101 -512 -101q-372 0 -606 192q-204 169 -260 450h-259z" />
<glyph unicode="&#x2122;" horiz-adv-x="2266" vert-adv-y="2728" d="M34 1445v176h840v-176h-315v-766h-210v766h-315zM971 679l2 48q2 31 18 319q19 245 26 315l20 225l4 37h191q79 0 107 -33q24 -29 71 -151q17 -54 84 -232q68 -195 82 -348q16 156 83 348q118 330 150 376q23 31 55 38q14 2 57 2h182l5 -37l20 -225q2 -30 28 -359 q2 -42 6 -114q6 -99 9 -161l2 -48h-208l-3 23q-12 303 -16 375l-13 212v54q0 33 6 132h-2q-21 -99 -93 -280q-79 -213 -170 -479l-12 -37h-187l-11 37l-48 141l-36 100q-55 156 -86 238q-73 185 -93 280h-2q6 -66 6 -130v-56l-14 -212q-14 -334 -16 -375v-23h-204z" />
<glyph unicode="&#xe000;" horiz-adv-x="1105" vert-adv-y="2209" d="M0 1105h1105v-1105h-1105v1105z" />
<glyph unicode="&#xfb01;" horiz-adv-x="1425" vert-adv-y="2728" d="M976 1316v289h280v-289h-280zM980 0v1107h271v-1107h-271zM61 882v200h175v37q0 194 39 305q35 99 111 170q135 120 343 120q55 0 115 -11v-216q-49 8 -85 8q-132 0 -195 -84q-57 -71 -57 -292v-37h272v-200h-272v-882h-271v882h-175z" />
<glyph unicode="&#xfb02;" horiz-adv-x="1429" vert-adv-y="2728" d="M983 0v1705h270v-1705h-270zM61 882v200h175v37q0 194 39 305q35 99 111 170q135 120 343 120q55 0 115 -11v-216q-49 8 -85 8q-132 0 -195 -84q-57 -71 -57 -292v-37h272v-200h-272v-882h-271v882h-175z" />
<glyph unicode="&#xfb03;" horiz-adv-x="2229" vert-adv-y="2728" d="M1781 1316v289h280v-289h-280zM1785 0v1107h271v-1107h-271zM866 882v200h175v37q0 194 39 305q35 99 111 170q135 120 343 120q55 0 115 -11v-216q-49 8 -85 8q-132 0 -195 -84q-57 -71 -57 -292v-37h272v-200h-272v-882h-271v882h-175zM61 882v200h175v37q0 194 39 305 q35 99 111 170q135 120 343 120q55 0 115 -11v-216q-49 8 -85 8q-132 0 -195 -84q-57 -71 -57 -292v-37h272v-200h-272v-882h-271v882h-175z" />
<glyph unicode="&#xfb04;" horiz-adv-x="2234" vert-adv-y="2728" d="M1788 0v1705h270v-1705h-270zM866 882v200h175v37q0 194 39 305q35 99 111 170q135 120 343 120q55 0 115 -11v-216q-49 8 -85 8q-132 0 -195 -84q-57 -71 -57 -292v-37h272v-200h-272v-882h-271v882h-175zM61 882v200h175v37q0 194 39 305q35 99 111 170 q135 120 343 120q55 0 115 -11v-216q-49 8 -85 8q-132 0 -195 -84q-57 -71 -57 -292v-37h272v-200h-272v-882h-271v882h-175z" />
</font>
</defs>
</svg>
